<?xml version="1.0" encoding="utf-8"?>
<!-- Generator: Adobe Illustrator 17.0.2, SVG Export Plug-In . SVG Version: 6.00 Build 0)  -->
<!DOCTYPE svg PUBLIC "-//W3C//DTD SVG 1.1//EN" "http://www.w3.org/Graphics/SVG/1.1/DTD/svg11.dtd">
<svg version="1.1" id="Ebene_1" xmlns="http://www.w3.org/2000/svg" xmlns:xlink="http://www.w3.org/1999/xlink" x="0px" y="0px"
	 width="40px" height="44px" viewBox="0 0 40 44" enable-background="new 0 0 40 44" xml:space="preserve">
<path fill="none" stroke="#F3F2F2" stroke-width="2" stroke-miterlimit="10" d="M13.404,28.617"/>
<g>
	<path fill="#FFFFFF" d="M29.516,13.534L29.516,13.534c0.011,0.014,0.031,0.04,0.031,0.04S29.531,13.552,29.516,13.534z"/>
</g>
<g display="none">
	<path display="inline" fill="#FFFFFF" d="M11.034,8.949c0.854,0,1.582-0.3,2.183-0.901c0.6-0.602,0.902-1.33,0.902-2.184
		c0-0.839-0.301-1.558-0.902-2.159c-0.601-0.602-1.313-0.902-2.136-0.902s-1.558,0.3-2.206,0.902
		c-0.601,0.6-0.902,1.313-0.902,2.135c0,0.886,0.292,1.622,0.878,2.207C9.451,8.649,10.179,8.949,11.034,8.949z"/>
	<path display="inline" fill="#FFFFFF" d="M13.622,10.604H8.469c-0.949,0-1.718,0.769-1.718,1.718v12.989h2.054v12.493h4.479V25.311
		h2.055V12.322C15.339,11.373,14.57,10.604,13.622,10.604z"/>
	<path display="inline" fill="#FFFFFF" d="M25.063,8.949c0.854,0,1.582-0.3,2.183-0.901c0.6-0.602,0.902-1.33,0.902-2.184
		c0-0.839-0.301-1.558-0.902-2.159c-0.601-0.602-1.313-0.902-2.136-0.902s-1.558,0.3-2.206,0.902
		c-0.601,0.6-0.902,1.313-0.902,2.135c0,0.886,0.292,1.622,0.878,2.207C23.48,8.649,24.208,8.949,25.063,8.949z"/>
	<path display="inline" fill="#FFFFFF" d="M27.651,10.604h-5.153c-0.949,0-1.718,0.769-1.718,1.718v12.989h2.054v12.493h4.479
		V25.311h2.055V12.322C29.369,11.373,28.599,10.604,27.651,10.604z"/>
</g>
<g display="none">
	<path display="inline" fill="#FFFFFF" d="M5.528,6.688H31.44l0.246,7.787H30.59c-0.537-2.446-1.22-4.039-2.047-4.777
		c-0.828-0.738-2.57-1.108-5.225-1.108h-2.551v23.45c0,1.765,0.276,2.86,0.828,3.283s1.76,0.701,3.625,0.834v0.85H11.86v-0.85
		c1.939-0.148,3.148-0.467,3.625-0.957s0.716-1.723,0.716-3.697V8.59h-2.573c-2.536,0-4.263,0.365-5.18,1.096
		s-1.607,2.327-2.07,4.789H5.259L5.528,6.688z"/>
</g>
<path fill="none" stroke="#F4F3F3" stroke-width="2" stroke-miterlimit="10" d="M13.57,29.395"/>
<path fill="#FFFFFF" d="M21.275,36.898v-4.929c0,0,0-6.786,7.021-6.786v-1.124H9.573v1.125c0,0,7.021-0.815,7.021,6.756
	c0,0,0,4.034,0,4.943c0,1.523,1.48,1.774,2.475,1.774C19.07,38.655,21.275,38.886,21.275,36.898z M17.918,37.112
	c-0.59-0.532-0.59-1.395,0-1.927c0.59-0.532,1.547-0.532,2.137,0s0.59,1.395,0,1.927C19.464,37.644,18.507,37.644,17.918,37.112z"/>
<g>
	<path fill="#FFFFFF" d="M28.296,17.288L28.296,17.288c0.009,0.012,0.027,0.034,0.027,0.034S28.309,17.303,28.296,17.288z"/>
	<path fill="#FFFFFF" d="M28.323,17.036V7.163H9.6v0.285v0.324H9.573v1.98v0.738v2.812v5.011v0.462v0.443v3.325h18.723v-3.076
		v-1.153L28.323,17.036z M27.346,14.628c-1.529-1.334-3.96-2.911-6.896-2.911c-0.984,0-1.964,0.181-2.913,0.538
		c-1.624,0.61-3.024,0.92-4.161,0.92c-2.229,0-2.714-1.201-2.8-1.5V8.141h16.771L27.346,14.628z"/>
</g>
</svg>
