<svg xmlns="http://www.w3.org/2000/svg" width="40" height="44" viewBox="0 0 40 44" style="enable-background:new 0 0 40 44">
 <g>
  <path d="M29.5 13.5L29.5 13.5c0 0 0 0 0 0S29.5 13.6 29.5 13.5" style="fill:#ffffff"/>
 </g>
 <g style="fill:#ffffff">
  <path d="M21.3 36.9v-4.9c0 0 0-6.8 7-6.8v-1.1H9.6v1.1c0 0 7-.8 7 6.8 0 0 0 4 0 4.9 0 1.5 1.5 1.8 2.5 1.8C19 38.7 21.3 38.9 21.3 36.9M17.9 37c-.6-.5-.6-1.4 0-1.9.6-.5 1.5-.5 2.1 0s.6 1.4 0 1.9C19.5 37.6 18.5 37.6 17.9 37"/>
  <path d="M28 17.3L28 17.3c0 0 0 0 0 0S28.3 17.3 28 17.3"/>
  <path d="M28.3 17V7.2H9.6v.3.3H9.6v2 .7 2.8 5 .5.4 3.3h18.7v-3.1-1.2V17M27.3 14.6c-1.5-1.3-4-2.9-6.9-2.9-1 0-2 .2-2.9.5-1.6.6-3 .9-4.2.9-2.2 0-2.7-1.2-2.8-1.5V8.1h16.8V14.6"/>
 </g>
</svg>
