<svg xmlns="http://www.w3.org/2000/svg" width="46" height="25" viewBox="0 0 46 25" style="enable-background:new 0 0 46 25">
 <g style="fill:#ffffff">
  <path d="M43 4.4c.6 0 1.1-.2 1.5-.6.4-.4.6-1 .6-1.6 0-.6-.2-1.1-.6-1.5C44 .2 43.6 0 43 0c-.6 0-1.1.2-1.6.6-.4.4-.6.9-.6 1.5 0 .6.2 1.2.6 1.6C41.8 4.2 42 4.4 43 4.4"/>
  <path d="M46 6.8c0-.7-.5-1.2-1.2-1.2h-3.6c-.7 0-1.2.5-1.2 1.2v9.3h1.4V25h3.2v-8.9H46V6.8"/>
  <path d="M23 4.4c.6 0 1.1-.2 1.5-.6.4-.4.6-1 .6-1.6 0-.6-.2-1.1-.6-1.5C24.3.2 23.8 0 23.3 0s-1.1.2-1.6.6c-.4.4-.6.9-.6 1.5 0 .6.2 1.2.6 1.6C22 4.2 22.6 4.4 23 4.4"/>
  <path d="M26 6.8c0-.7-.5-1.2-1.2-1.2h-3.6c-.7 0-1.2.5-1.2 1.2v9.3h1.4V25h3.2v-8.9h1.4V6.8H26"/>
  <path d="M3 4.4c.6 0 1.1-.2 1.5-.6.4-.4.6-1 .6-1.6 0-.6-.2-1.1-.6-1.5C4.1.2 3.6 0 3.1 0S2 .2 1.5.6C1.1 1.1.9 1.6.9 2.2c0 .6.2 1.2.6 1.6C1.9 4.2 2.4 4.4 3 4.4"/>
  <path d="M6 6.8c0-.7-.5-1.2-1.2-1.2H1.2C.5 5.6 0 6.1 0 6.8v9.3h1.4V25h3.2v-8.9h1.4V6.8L6 6.8"/>
 </g>
 <g style="fill:none;stroke-miterlimit:10;stroke:#ffffff">
  <line x1="13" x2="13" y2="25"/>
  <line x1="33" x2="33" y2="25"/>
 </g>
</svg>
