<?xml version="1.0" encoding="utf-8"?>
<!-- Generator: Adobe Illustrator 17.1.0, SVG Export Plug-In . SVG Version: 6.00 Build 0)  -->
<!DOCTYPE svg PUBLIC "-//W3C//DTD SVG 1.1//EN" "http://www.w3.org/Graphics/SVG/1.1/DTD/svg11.dtd">
<svg version="1.1" id="Ebene_1" xmlns="http://www.w3.org/2000/svg" xmlns:xlink="http://www.w3.org/1999/xlink" x="0px" y="0px"
	 width="186.8px" height="31px" viewBox="0 0 186.8 31" enable-background="new 0 0 186.8 31" xml:space="preserve">
<g>
	<g>
		<path fill="#FFFFFF" d="M6.7,7.8c0.6,0,1.1-0.2,1.5-0.6c0.4-0.4,0.6-0.9,0.6-1.5c0-0.6-0.2-1-0.6-1.4C7.8,3.9,7.3,3.7,6.7,3.7
			s-1,0.2-1.5,0.6C4.9,4.7,4.7,5.2,4.7,5.7c0,0.6,0.2,1.1,0.6,1.5C5.6,7.6,6.1,7.8,6.7,7.8z"/>
		<path fill="#FFFFFF" d="M9.6,10c0-0.6-0.5-1.1-1.1-1.1H5c-0.6,0-1.1,0.5-1.1,1.1v8.7h1.4V27h3v-8.3h1.4C9.6,18.7,9.6,10,9.6,10z"
			/>
	</g>
	<g>
		<path fill="#FFFFFF" d="M15.5,7.8c0.6,0,1.1-0.2,1.5-0.6c0.4-0.4,0.6-0.9,0.6-1.5c0-0.6-0.2-1-0.6-1.4c-0.4-0.4-0.9-0.6-1.4-0.6
			c-0.5,0-1,0.2-1.5,0.6c-0.4,0.4-0.6,0.9-0.6,1.4c0,0.6,0.2,1.1,0.6,1.5C14.4,7.6,14.9,7.8,15.5,7.8z"/>
		<path fill="#FFFFFF" d="M18.4,10c0-0.6-0.5-1.1-1.1-1.1h-3.4c-0.6,0-1.1,0.5-1.1,1.1v8.7H14V27h3v-8.3h1.4V10z"/>
	</g>
	<g>
		<path fill="#FFFFFF" d="M24.3,7.8c0.6,0,1.1-0.2,1.5-0.6c0.4-0.4,0.6-0.9,0.6-1.5c0-0.6-0.2-1-0.6-1.4c-0.4-0.4-0.9-0.6-1.4-0.6
			s-1,0.2-1.5,0.6c-0.4,0.4-0.6,0.9-0.6,1.4c0,0.6,0.2,1.1,0.6,1.5C23.2,7.6,23.7,7.8,24.3,7.8z"/>
		<path fill="#FFFFFF" d="M27.1,10c0-0.6-0.5-1.1-1.1-1.1h-3.4c-0.6,0-1.1,0.5-1.1,1.1v8.7h1.4V27h3v-8.3h1.4V10z"/>
	</g>
	<g>
		<path fill="none" stroke="#FFFFFF" stroke-miterlimit="10" d="M1.5,18.3h-1v9.4c0,1.6,1.3,2.8,2.8,2.8h24.3c1.6,0,2.8-1.3,2.8-2.8
			v-9.4h-1"/>
	</g>
</g>
<g>
	<path fill="#FFFFFF" d="M39.8,3.3c0.6,0,1.1,0.2,1.5,0.6c0.4,0.4,0.6,0.9,0.6,1.5c0,0.6-0.2,1.1-0.6,1.5c-0.4,0.4-0.9,0.6-1.5,0.6
		s-1.1-0.2-1.5-0.6c-0.4-0.4-0.6-0.9-0.6-1.5c0-0.6,0.2-1.1,0.6-1.5C38.7,3.5,39.2,3.3,39.8,3.3z M38.3,10.6h3.2v17.1h-3.2V10.6z"/>
	<path fill="#FFFFFF" d="M51.6,10.9v3C50.8,13.3,50,13,49.2,13c-0.3,0-0.5,0-0.8,0.1s-0.5,0.2-0.6,0.4c-0.2,0.2-0.3,0.4-0.4,0.6
		c-0.1,0.2-0.2,0.5-0.2,0.8c0,0.8,0.7,1.8,2.2,2.9c0.6,0.5,1.1,0.9,1.5,1.3c0.4,0.4,0.7,0.8,0.9,1.1c0.4,0.7,0.6,1.6,0.6,2.6
		c0,1.5-0.4,2.8-1.3,3.7c-0.9,0.9-2.1,1.4-3.5,1.4c-0.9,0-1.8-0.3-2.8-0.8V24c0.9,0.7,1.8,1,2.6,1c1.4,0,2.2-0.7,2.2-2.1
		c0-0.5-0.1-1-0.4-1.4c-0.1-0.2-0.3-0.4-0.6-0.7c-0.3-0.2-0.6-0.5-1-0.8c-1.3-1-2.2-1.9-2.7-2.6c-0.5-0.7-0.7-1.6-0.7-2.6
		c0-1.4,0.4-2.5,1.3-3.4c0.9-0.9,2-1.3,3.3-1.3C49.7,10.2,50.7,10.4,51.6,10.9z"/>
	<path fill="#FFFFFF" d="M65,19.2c0,5.8-1.8,8.7-5.4,8.7c-3.6,0-5.4-2.9-5.4-8.8c0-5.9,1.8-8.8,5.3-8.8c0.9,0,1.7,0.2,2.4,0.5
		c0.7,0.4,1.2,0.9,1.7,1.6c0.4,0.7,0.8,1.7,1,2.8C64.9,16.3,65,17.7,65,19.2z M61.7,19.1c0-2.2-0.1-3.8-0.4-4.7
		c-0.3-0.9-0.8-1.3-1.6-1.3c-0.7,0-1.3,0.4-1.6,1.3c-0.3,0.9-0.4,2.4-0.4,4.6c0,2.2,0.1,3.7,0.4,4.6c0.3,0.9,0.9,1.3,1.6,1.3
		c0.7,0,1.3-0.4,1.6-1.3C61.6,22.8,61.7,21.3,61.7,19.1z"/>
	<path fill="#FFFFFF" d="M67.9,10.6h3.2v2.1c0.9-1.6,2-2.4,3.5-2.4c1.6,0,2.6,0.8,3.2,2.4c0.8-1.6,2-2.4,3.6-2.4
		c1.2,0,2.1,0.3,2.7,0.9c0.6,0.6,0.9,1.6,0.9,2.8v13.6h-3.2V16.4c0-1.3-0.1-2.1-0.4-2.6c-0.2-0.5-0.7-0.7-1.4-0.7
		c-0.8,0-1.3,0.2-1.6,0.7c-0.3,0.5-0.4,1.3-0.4,2.6v11.2h-3.3V16.4c0-0.6,0-1.1-0.1-1.5c-0.1-0.4-0.2-0.8-0.3-1s-0.3-0.4-0.6-0.6
		c-0.2-0.1-0.5-0.2-0.9-0.2c-0.7,0-1.2,0.2-1.6,0.7c-0.3,0.5-0.5,1.3-0.5,2.5v11.2h-3.2L67.9,10.6L67.9,10.6z"/>
	<path fill="#FFFFFF" d="M98.3,10.6v17.1h-3.2v-2.2c-0.5,0.9-0.9,1.6-1.4,1.9c-0.5,0.4-1,0.5-1.8,0.5c-1.4,0-2.5-0.7-3.1-2.2
		c-0.7-1.5-1-3.7-1-6.8c0-3,0.3-5.1,1-6.5s1.7-2.1,3.1-2.1c1.3,0,2.3,0.7,3.1,2.2v-1.9H98.3z M91.2,19c0,2.2,0.1,3.8,0.4,4.7
		c0.3,0.9,0.8,1.3,1.6,1.3c0.7,0,1.2-0.5,1.5-1.4c0.3-1,0.5-2.5,0.5-4.6c0-2.1-0.2-3.6-0.5-4.6c-0.3-0.9-0.8-1.4-1.5-1.4
		c-0.7,0-1.3,0.4-1.6,1.3C91.4,15.3,91.2,16.8,91.2,19z"/>
	<path fill="#FFFFFF" d="M102.3,5.8h3.2v4.8h1.7v2.5h-1.7v14.6h-3.2V13.1h-1.7v-2.5h1.7V5.8z"/>
	<path fill="#FFFFFF" d="M110.9,3.3c0.6,0,1.1,0.2,1.5,0.6c0.4,0.4,0.6,0.9,0.6,1.5c0,0.6-0.2,1.1-0.6,1.5c-0.4,0.4-0.9,0.6-1.5,0.6
		c-0.6,0-1.1-0.2-1.5-0.6c-0.4-0.4-0.6-0.9-0.6-1.5c0-0.6,0.2-1.1,0.6-1.5C109.8,3.5,110.3,3.3,110.9,3.3z M109.4,10.6h3.2v17.1
		h-3.2V10.6z"/>
	<path fill="#FFFFFF" d="M123.1,10.9v3.2c-0.4-0.5-1-0.8-1.6-0.8c-1.7,0-2.6,1.9-2.6,5.6c0,4,0.9,6,2.6,6c0.5,0,1-0.2,1.6-0.6v3
		c-0.8,0.4-1.7,0.7-2.5,0.7c-3.4,0-5.1-2.9-5.1-8.6c0-3.1,0.4-5.3,1.3-6.8c0.8-1.5,2.1-2.2,3.9-2.2
		C121.5,10.3,122.3,10.5,123.1,10.9z"/>
</g>
<g>
	<path fill="#FFFFFF" d="M130.4,17.1c0.2,0,0.4,0,0.6-0.1V18c-0.2,0.2-0.6,0.2-1,0.2c-0.5,0-0.9-0.2-1.1-0.5
		c-0.2-0.3-0.4-0.8-0.4-1.4v-3h-0.6v-0.6l0.7-0.5l0.4-1.2h0.9v1.3h1.1v1.1h-1.1v3.1C129.9,16.9,130.1,17.1,130.4,17.1z"/>
	<path fill="#FFFFFF" d="M134.7,18.2v-3.5c0-0.9-0.2-1.3-0.6-1.3c-0.3,0-0.5,0.2-0.7,0.5c-0.1,0.3-0.2,0.8-0.2,1.5v2.8h-1.4V10h1.4
		v1.8c0,0.2,0,0.7-0.1,1.3h0.1c0.3-0.6,0.7-0.9,1.3-0.9c0.5,0,0.9,0.2,1.2,0.5c0.3,0.4,0.4,0.9,0.4,1.6v3.8L134.7,18.2L134.7,18.2z"
		/>
	<path fill="#FFFFFF" d="M139.4,18.3c-0.7,0-1.3-0.3-1.7-0.8c-0.4-0.5-0.6-1.3-0.6-2.2c0-1,0.2-1.7,0.6-2.3c0.4-0.5,0.9-0.8,1.6-0.8
		c0.6,0,1.1,0.2,1.5,0.7c0.4,0.5,0.6,1.1,0.6,2v0.7h-2.8c0,0.5,0.1,0.9,0.3,1.2c0.2,0.3,0.5,0.4,0.8,0.4c0.5,0,0.9-0.1,1.4-0.4v1.1
		C140.6,18.1,140.1,18.3,139.4,18.3z M139.2,13.3c-0.2,0-0.4,0.1-0.5,0.3c-0.1,0.2-0.2,0.5-0.2,1h1.4c0-0.4-0.1-0.8-0.2-1
		C139.6,13.4,139.4,13.3,139.2,13.3z"/>
	<path fill="#FFFFFF" d="M147.7,18.2l-0.3-0.8h0c-0.2,0.3-0.4,0.6-0.6,0.7c-0.2,0.1-0.5,0.2-0.8,0.2c-0.4,0-0.8-0.2-1-0.5
		c-0.2-0.3-0.4-0.8-0.4-1.3c0-0.6,0.2-1.1,0.5-1.4c0.3-0.3,0.8-0.5,1.5-0.5l0.8,0v-0.4c0-0.5-0.2-0.8-0.7-0.8
		c-0.4,0-0.8,0.1-1.2,0.4l-0.5-1c0.6-0.4,1.2-0.6,1.9-0.6c0.6,0,1.1,0.2,1.4,0.5c0.3,0.4,0.5,0.9,0.5,1.5v3.9L147.7,18.2L147.7,18.2
		z M146.5,17.2c0.3,0,0.5-0.1,0.6-0.3c0.2-0.2,0.2-0.5,0.2-0.9v-0.5l-0.4,0c-0.3,0-0.6,0.1-0.7,0.3s-0.2,0.4-0.2,0.7
		C146,16.9,146.2,17.2,146.5,17.2z"/>
	<path fill="#FFFFFF" d="M153.1,18.2l-0.2-0.8h-0.1c-0.1,0.3-0.3,0.5-0.6,0.6c-0.2,0.2-0.5,0.2-0.8,0.2c-0.5,0-0.9-0.2-1.2-0.5
		c-0.3-0.4-0.4-0.9-0.4-1.6v-3.8h1.4v3.5c0,0.4,0.1,0.7,0.2,1c0.1,0.2,0.3,0.3,0.5,0.3c0.3,0,0.5-0.1,0.7-0.5
		c0.1-0.3,0.2-0.8,0.2-1.5v-2.8h1.4v5.8L153.1,18.2L153.1,18.2z"/>
	<path fill="#FFFFFF" d="M157.4,17.1c0.2,0,0.4,0,0.6-0.1V18c-0.2,0.2-0.6,0.2-1,0.2c-0.5,0-0.9-0.2-1.1-0.5
		c-0.2-0.3-0.4-0.8-0.4-1.4v-3h-0.6v-0.6l0.7-0.5l0.4-1.2h0.9v1.3h1.1v1.1h-1.1v3.1C156.9,16.9,157.1,17.1,157.4,17.1z"/>
	<path fill="#FFFFFF" d="M163.2,15.2c0,1-0.2,1.7-0.6,2.2c-0.4,0.5-1,0.8-1.7,0.8c-0.4,0-0.8-0.1-1.2-0.4s-0.6-0.6-0.8-1.1
		c-0.2-0.5-0.3-1-0.3-1.6c0-0.9,0.2-1.7,0.6-2.2c0.4-0.5,1-0.8,1.7-0.8c0.7,0,1.2,0.3,1.6,0.8C163,13.6,163.2,14.3,163.2,15.2z
		 M160.1,15.2c0,0.6,0.1,1.1,0.2,1.4c0.1,0.3,0.3,0.5,0.6,0.5c0.6,0,0.8-0.6,0.8-1.8c0-0.6-0.1-1.1-0.2-1.4
		c-0.1-0.3-0.3-0.5-0.6-0.5c-0.3,0-0.5,0.2-0.6,0.5C160.1,14.2,160.1,14.6,160.1,15.2z"/>
	<path fill="#FFFFFF" d="M169.9,18.2v-3.5c0-0.9-0.2-1.3-0.6-1.3c-0.3,0-0.5,0.2-0.7,0.5c-0.1,0.3-0.2,0.8-0.2,1.5v2.8H167v-3.5
		c0-0.9-0.2-1.3-0.6-1.3c-0.3,0-0.5,0.2-0.7,0.5c-0.1,0.3-0.2,0.8-0.2,1.5v2.8h-1.4v-5.8h1.1l0.2,0.8h0.1c0.1-0.3,0.3-0.5,0.6-0.7
		c0.2-0.1,0.5-0.2,0.8-0.2c0.7,0,1.2,0.3,1.4,1h0.1c0.3-0.7,0.8-1,1.4-1c0.5,0,0.9,0.2,1.2,0.5c0.3,0.4,0.4,0.9,0.4,1.6v3.8
		L169.9,18.2L169.9,18.2z"/>
	<path fill="#FFFFFF" d="M175.4,18.2l-0.3-0.8h0c-0.2,0.3-0.4,0.6-0.6,0.7c-0.2,0.1-0.5,0.2-0.8,0.2c-0.4,0-0.8-0.2-1-0.5
		c-0.2-0.3-0.4-0.8-0.4-1.3c0-0.6,0.2-1.1,0.5-1.4c0.3-0.3,0.8-0.5,1.5-0.5l0.8,0v-0.4c0-0.5-0.2-0.8-0.7-0.8
		c-0.4,0-0.8,0.1-1.2,0.4l-0.5-1c0.6-0.4,1.2-0.6,1.9-0.6c0.6,0,1.1,0.2,1.4,0.5c0.3,0.4,0.5,0.9,0.5,1.5v3.9L175.4,18.2L175.4,18.2
		z M174.1,17.2c0.3,0,0.5-0.1,0.6-0.3c0.2-0.2,0.2-0.5,0.2-0.9v-0.5l-0.4,0c-0.3,0-0.6,0.1-0.7,0.3s-0.2,0.4-0.2,0.7
		C173.6,16.9,173.8,17.2,174.1,17.2z"/>
	<path fill="#FFFFFF" d="M179.5,17.1c0.2,0,0.4,0,0.6-0.1V18c-0.2,0.2-0.6,0.2-1,0.2c-0.5,0-0.9-0.2-1.1-0.5
		c-0.2-0.3-0.4-0.8-0.4-1.4v-3h-0.6v-0.6l0.7-0.5l0.4-1.2h0.9v1.3h1.1v1.1h-1.1v3.1C179.1,16.9,179.2,17.1,179.5,17.1z"/>
	<path fill="#FFFFFF" d="M180.9,10.8c0-0.2,0.1-0.4,0.2-0.5c0.1-0.1,0.3-0.2,0.6-0.2c0.2,0,0.4,0.1,0.5,0.2c0.1,0.1,0.2,0.3,0.2,0.5
		c0,0.2-0.1,0.4-0.2,0.6c-0.1,0.1-0.3,0.2-0.5,0.2c-0.2,0-0.4-0.1-0.6-0.2C181,11.2,180.9,11,180.9,10.8z M182.4,18.2H181v-5.8h1.4
		L182.4,18.2L182.4,18.2z"/>
	<path fill="#FFFFFF" d="M185.5,18.3c-0.7,0-1.2-0.3-1.6-0.8c-0.4-0.5-0.5-1.3-0.5-2.2c0-1,0.2-1.8,0.5-2.3c0.3-0.5,0.9-0.8,1.6-0.8
		c0.2,0,0.4,0,0.7,0.1c0.2,0.1,0.5,0.2,0.6,0.3l-0.4,1.1c-0.3-0.2-0.5-0.3-0.8-0.3c-0.3,0-0.5,0.2-0.6,0.5c-0.1,0.3-0.2,0.8-0.2,1.4
		c0,0.6,0.1,1.1,0.2,1.4c0.1,0.3,0.3,0.4,0.6,0.4c0.4,0,0.7-0.1,1.1-0.4v1.2C186.4,18.2,186,18.3,185.5,18.3z"/>
	<path fill="#FFFFFF" d="M128.3,20.6c0-0.2,0.1-0.4,0.2-0.5c0.1-0.1,0.3-0.2,0.6-0.2c0.2,0,0.4,0.1,0.5,0.2c0.1,0.1,0.2,0.3,0.2,0.5
		c0,0.2-0.1,0.4-0.2,0.6c-0.1,0.1-0.3,0.2-0.5,0.2c-0.2,0-0.4-0.1-0.6-0.2C128.4,21,128.3,20.8,128.3,20.6z M129.7,27.9h-1.4v-5.8
		h1.4V27.9z"/>
	<path fill="#FFFFFF" d="M134.1,26.2c0,0.6-0.2,1-0.5,1.3s-0.8,0.5-1.5,0.5c-0.6,0-1.1-0.1-1.4-0.3v-1.2c0.2,0.1,0.4,0.2,0.7,0.3
		c0.3,0.1,0.5,0.1,0.7,0.1c0.2,0,0.4-0.1,0.5-0.2c0.1-0.1,0.2-0.2,0.2-0.4c0-0.2-0.1-0.3-0.2-0.5c-0.1-0.1-0.3-0.3-0.7-0.5
		c-0.4-0.3-0.7-0.5-0.9-0.8c-0.2-0.3-0.3-0.6-0.3-1c0-0.5,0.2-0.9,0.5-1.2c0.3-0.3,0.8-0.4,1.4-0.4c0.5,0,1,0.1,1.5,0.4l-0.5,1
		c-0.4-0.2-0.7-0.3-1-0.3c-0.2,0-0.3,0-0.4,0.1c-0.1,0.1-0.1,0.2-0.1,0.3c0,0.2,0.1,0.3,0.2,0.4c0.1,0.1,0.3,0.3,0.6,0.5
		c0.4,0.2,0.6,0.4,0.8,0.6c0.1,0.2,0.3,0.3,0.3,0.5C134,25.7,134.1,26,134.1,26.2z"/>
	<path fill="#FFFFFF" d="M139.3,25c0,1-0.2,1.7-0.6,2.2c-0.4,0.5-1,0.8-1.7,0.8c-0.4,0-0.8-0.1-1.2-0.4s-0.6-0.6-0.8-1.1
		c-0.2-0.5-0.3-1-0.3-1.6c0-0.9,0.2-1.7,0.6-2.2c0.4-0.5,1-0.8,1.7-0.8c0.7,0,1.2,0.3,1.6,0.8C139.1,23.3,139.3,24.1,139.3,25z
		 M136.2,25c0,0.6,0.1,1.1,0.2,1.4c0.1,0.3,0.3,0.5,0.6,0.5c0.6,0,0.8-0.6,0.8-1.8c0-0.6-0.1-1.1-0.2-1.4c-0.1-0.3-0.3-0.5-0.6-0.5
		c-0.3,0-0.5,0.2-0.6,0.5S136.2,24.4,136.2,25z"/>
	<path fill="#FFFFFF" d="M142.3,26.9c0.2,0,0.4,0,0.6-0.1v1.1c-0.2,0.2-0.6,0.2-1,0.2c-0.5,0-0.9-0.2-1.1-0.5
		c-0.2-0.3-0.4-0.8-0.4-1.4v-3h-0.6v-0.6l0.7-0.5l0.4-1.2h0.9v1.3h1.1v1.1h-1.1v3.1C141.8,26.7,142,26.9,142.3,26.9z"/>
	<path fill="#FFFFFF" d="M143.2,22.1h1.4l0.8,3.3c0.1,0.3,0.1,0.7,0.2,1.2h0c0-0.1,0-0.2,0-0.4c0-0.2,0.1-0.4,0.1-0.5
		c0-0.1,0.3-1.3,0.7-3.6h1.5l-1.7,6.3c-0.2,0.8-0.5,1.3-0.8,1.7s-0.8,0.5-1.3,0.5c-0.3,0-0.5,0-0.7-0.1v-1.2c0.1,0,0.3,0.1,0.5,0.1
		c0.5,0,0.8-0.3,0.9-0.9l0.1-0.4L143.2,22.1z"/>
	<path fill="#FFFFFF" d="M151.2,28c-0.3,0-0.5-0.1-0.7-0.2c-0.2-0.1-0.4-0.3-0.5-0.6h-0.1c0.1,0.5,0.1,0.8,0.1,0.9v2.4h-1.4v-8.4
		h1.1l0.2,0.8h0.1c0.3-0.6,0.7-0.9,1.3-0.9c0.5,0,0.9,0.3,1.2,0.8s0.5,1.3,0.5,2.2c0,0.9-0.2,1.7-0.5,2.2
		C152.1,27.8,151.7,28,151.2,28z M150.7,23.2c-0.3,0-0.5,0.1-0.6,0.4c-0.1,0.3-0.2,0.7-0.2,1.3V25c0,0.6,0.1,1.1,0.2,1.4
		s0.3,0.4,0.6,0.4c0.5,0,0.7-0.6,0.7-1.9c0-0.6-0.1-1.1-0.2-1.4C151.2,23.3,151,23.2,150.7,23.2z"/>
	<path fill="#FFFFFF" d="M156,28c-0.7,0-1.3-0.3-1.7-0.8c-0.4-0.5-0.6-1.3-0.6-2.2c0-1,0.2-1.7,0.6-2.3c0.4-0.5,0.9-0.8,1.6-0.8
		c0.6,0,1.1,0.2,1.5,0.7c0.4,0.5,0.6,1.1,0.6,2v0.7h-2.8c0,0.5,0.1,0.9,0.3,1.2c0.2,0.3,0.5,0.4,0.8,0.4c0.5,0,0.9-0.1,1.4-0.4v1.1
		C157.2,27.9,156.7,28,156,28z M155.8,23.1c-0.2,0-0.4,0.1-0.5,0.3c-0.1,0.2-0.2,0.5-0.2,1h1.4c0-0.4-0.1-0.8-0.2-1
		C156.2,23.2,156.1,23.1,155.8,23.1z"/>
	<path fill="#FFFFFF" d="M158.6,25.7v-1.2h2.6v1.2H158.6z"/>
	<path fill="#FFFFFF" d="M164.3,26.9c0.2,0,0.4,0,0.6-0.1v1.1c-0.2,0.2-0.6,0.2-1,0.2c-0.5,0-0.9-0.2-1.1-0.5
		c-0.2-0.3-0.4-0.8-0.4-1.4v-3h-0.6v-0.6l0.7-0.5l0.4-1.2h0.9v1.3h1.1v1.1h-1.1v3.1C163.8,26.7,163.9,26.9,164.3,26.9z"/>
	<path fill="#FFFFFF" d="M170,25c0,1-0.2,1.7-0.6,2.2c-0.4,0.5-1,0.8-1.7,0.8c-0.4,0-0.8-0.1-1.2-0.4s-0.6-0.6-0.8-1.1
		c-0.2-0.5-0.3-1-0.3-1.6c0-0.9,0.2-1.7,0.6-2.2c0.4-0.5,1-0.8,1.7-0.8c0.7,0,1.2,0.3,1.6,0.8C169.8,23.3,170,24.1,170,25z
		 M166.9,25c0,0.6,0.1,1.1,0.2,1.4c0.1,0.3,0.3,0.5,0.6,0.5c0.6,0,0.8-0.6,0.8-1.8c0-0.6-0.1-1.1-0.2-1.4c-0.1-0.3-0.3-0.5-0.6-0.5
		c-0.3,0-0.5,0.2-0.6,0.5S166.9,24.4,166.9,25z"/>
	<path fill="#FFFFFF" d="M175.4,25c0,1-0.2,1.7-0.6,2.2c-0.4,0.5-1,0.8-1.7,0.8c-0.4,0-0.8-0.1-1.2-0.4s-0.6-0.6-0.8-1.1
		c-0.2-0.5-0.3-1-0.3-1.6c0-0.9,0.2-1.7,0.6-2.2c0.4-0.5,1-0.8,1.7-0.8c0.7,0,1.2,0.3,1.6,0.8C175.2,23.3,175.4,24.1,175.4,25z
		 M172.3,25c0,0.6,0.1,1.1,0.2,1.4c0.1,0.3,0.3,0.5,0.6,0.5c0.6,0,0.8-0.6,0.8-1.8c0-0.6-0.1-1.1-0.2-1.4s-0.3-0.5-0.6-0.5
		c-0.3,0-0.5,0.2-0.6,0.5C172.3,23.9,172.3,24.4,172.3,25z"/>
	<path fill="#FFFFFF" d="M177.7,27.9h-1.4v-8.2h1.4V27.9z"/>
</g>
</svg>
