<svg xmlns="http://www.w3.org/2000/svg" width="22" height="14" viewBox="0 0 22 14" style="enable-background:new 0 0 22 14">
 <g style="fill:#686766">
  <path d="M4 2.5c.3 0 .6-.1.8-.4.2-.2.3-.5.3-.9 0-.3-.1-.6-.3-.9C4.6.1 4.3 0 4 0S3.4.1 3.2.4C3 .6 2.8.9 2.8 1.2c0 .4.1.6.3.9C3.4 2.3 3.7 2.5 4 2.5"/>
  <path d="M5 3.1H3c-.4 0-.6.3-.6.7v5.2h.8V14h1.7V9H5.6V3.8C5.6 3.4 5.3 3.1 5 3.1"/>
  <path d="M17.5 2.5c.3 0 .6-.1.8-.4.2-.2.3-.5.3-.9 0-.3-.1-.6-.3-.9C18 .1 17.8 0 17.5 0c-.3 0-.6.1-.8.4-.2.2-.3.5-.3.9 0 .4.1.6.3.9C16.9 2.3 17 2.5 17.5 2.5"/>
  <path d="M18.4 3.1h-1.9c-.4 0-.6.3-.6.7v5.2h.8V14h1.7V9h.8V3.8C19 3.4 18.8 3.1 18.4 3.1"/>
 </g>
 <g>
  <g>
   <line x1="7.5" y1="7.5" x2="14" y2="7.5" style="fill:none;stroke-miterlimit:10;stroke:#686766"/>
   <g>
    <polygon points="9.469,9.17 7.773,7.475 9.469,5.779 8.03,5.779 6.334,7.475 8.03,9.17 			" style="fill:#686766"/>
   </g>
   <g>
    <polygon points="11.991,9.17 13.688,7.475 11.991,5.779 13.431,5.779 15.126,7.475 13.431,9.17 			" style="fill:#686766"/>
   </g>
  </g>
 </g>
</svg>
