<svg xmlns="http://www.w3.org/2000/svg" width="22" height="14" viewBox="0 0 22 14" style="enable-background:new 0 0 22 14">
 <g>
  <path d="M7.8 4.2L7.8 4.2c0 0 0 0 0 0S7.8 4.3 7.8 4.2" style="fill:#ffffff"/>
 </g>
 <g style="fill:#686766">
  <path d="M5.2 2.5c.3 0 .6-.1.8-.4.2-.2.3-.5.3-.9 0-.3-.1-.6-.3-.9C5.8.1 5.5 0 5.2 0S4.6.1 4.3.4c-.2.2-.3.5-.3.9 0 .4.1.6.3.9C4.6 2.3 4.8 2.5 5.2 2.5"/>
  <path d="M6.1 3.1H4.2c-.4 0-.6.3-.6.7v5.2h.8V14h1.7V9h.8V3.8C6.8 3.4 6.5 3.1 6.1 3.1"/>
  <path d="M10.4 2.5c.3 0 .6-.1.8-.4.2-.2.3-.5.3-.9 0-.3-.1-.6-.3-.9C11 .1 10.7 0 10.4 0c-.3 0-.6.1-.8.4C9.3.6 9.2.9 9.2 1.2c0 .4.1.6.3.9C9.8 2.3 10 2.5 10.4 2.5"/>
  <path d="M11.3 3.1H9.4c-.4 0-.6.3-.6.7v5.2h.8V14h1.7V9h.8V3.8C12 3.4 11.7 3.1 11.3 3.1"/>
 </g>
 <g>
  <g>
   <line x1="15.4" y1="12.9" x2="15.4" y2="1.2" style="fill:none;stroke-miterlimit:10;stroke:#686766"/>
   <g>
    <polygon points="17.073,10.865 15.378,12.562 13.683,10.865 13.683,12.305 15.378,14 17.073,12.305 			" style="fill:#686766"/>
   </g>
   <g>
    <polygon points="17.243,3.407 15.378,1.541 13.513,3.407 13.513,1.823 15.378,-0.042 17.243,1.823 			" style="fill:#686766"/>
   </g>
  </g>
 </g>
</svg>
