<?xml version="1.0" encoding="utf-8"?>
<!-- Generator: Adobe Illustrator 15.1.0, SVG Export Plug-In . SVG Version: 6.00 Build 0)  -->
<!DOCTYPE svg PUBLIC "-//W3C//DTD SVG 1.1//EN" "http://www.w3.org/Graphics/SVG/1.1/DTD/svg11.dtd">
<svg version="1.1" id="Ebene_1" xmlns="http://www.w3.org/2000/svg" xmlns:xlink="http://www.w3.org/1999/xlink" x="0px" y="0px"
	 width="133.9px" height="31px" viewBox="0 0 133.9 31" enable-background="new 0 0 133.9 31" xml:space="preserve">
<g>
	<g>
		<path fill="#FFFFFF" d="M6.7,7.8c0.6,0,1.1-0.2,1.5-0.6c0.4-0.4,0.6-0.9,0.6-1.5c0-0.6-0.2-1-0.6-1.4C7.8,3.9,7.3,3.7,6.7,3.7
			c-0.6,0-1,0.2-1.5,0.6C4.9,4.7,4.7,5.2,4.7,5.7c0,0.6,0.2,1.1,0.6,1.5C5.6,7.6,6.1,7.8,6.7,7.8z"/>
		<path fill="#FFFFFF" d="M9.6,10c0-0.6-0.5-1.1-1.1-1.1H5c-0.6,0-1.1,0.5-1.1,1.1v8.7h1.4V27h3v-8.3h1.4C9.6,18.7,9.6,10,9.6,10z"
			/>
	</g>
	<g>
		<path fill="#FFFFFF" d="M15.5,7.8c0.6,0,1.1-0.2,1.5-0.6c0.4-0.4,0.6-0.9,0.6-1.5c0-0.6-0.2-1-0.6-1.4c-0.4-0.4-0.9-0.6-1.4-0.6
			s-1,0.2-1.5,0.6c-0.4,0.4-0.6,0.9-0.6,1.4c0,0.6,0.2,1.1,0.6,1.5C14.4,7.6,14.9,7.8,15.5,7.8z"/>
		<path fill="#FFFFFF" d="M18.4,10c0-0.6-0.5-1.1-1.1-1.1h-3.4c-0.6,0-1.1,0.5-1.1,1.1v8.7H14V27h3v-8.3h1.4V10z"/>
	</g>
	<g>
		<path fill="#FFFFFF" d="M24.3,7.8c0.6,0,1.1-0.2,1.5-0.6c0.4-0.4,0.6-0.9,0.6-1.5c0-0.6-0.2-1-0.6-1.4c-0.4-0.4-0.9-0.6-1.4-0.6
			s-1,0.2-1.5,0.6c-0.4,0.4-0.6,0.9-0.6,1.4c0,0.6,0.2,1.1,0.6,1.5C23.2,7.6,23.7,7.8,24.3,7.8z"/>
		<path fill="#FFFFFF" d="M27.3,10c0-0.6-0.5-1.1-1.1-1.1h-3.6c-0.6,0-1.1,0.5-1.1,1.1v8.7h1.4V27h3v-8.3h1.4L27.3,10L27.3,10z"/>
	</g>
	<g>
		<path fill="none" stroke="#FFFFFF" stroke-miterlimit="10" d="M1.5,18.3h-1v9.4c0,1.6,1.3,2.8,2.8,2.8h24.3c1.6,0,2.8-1.3,2.8-2.8
			v-9.4h-1"/>
	</g>
</g>
<g>
	<path fill="#FFFFFF" d="M38,27V10.4h3.2V27H38z"/>
	<path fill="#FFFFFF" d="M48.8,24.5c0.7,0,1.3-0.2,1.7-0.5c0.4-0.4,0.6-0.9,0.6-1.5c0-0.3,0-0.6-0.1-0.9c-0.1-0.3-0.2-0.5-0.5-0.7
		c-0.2-0.2-0.5-0.4-0.9-0.6c-0.4-0.2-0.9-0.4-1.6-0.6c-1.2-0.4-2.2-1-2.9-1.7c-0.7-0.8-1-1.9-1-3.2c0-0.7,0.1-1.3,0.4-1.9
		c0.2-0.6,0.6-1.1,1.1-1.5c0.5-0.4,1-0.8,1.7-1c0.7-0.3,1.4-0.4,2.2-0.4c1,0,1.9,0.2,2.7,0.5c0.8,0.3,1.5,0.8,2,1.2l-1.4,2.5
		c-0.5-0.4-1-0.7-1.5-1c-0.5-0.2-1.1-0.3-1.7-0.3c-0.7,0-1.2,0.2-1.6,0.5c-0.4,0.3-0.6,0.7-0.6,1.2c0,0.3,0,0.5,0.1,0.7
		c0.1,0.2,0.2,0.4,0.5,0.6c0.2,0.2,0.5,0.4,0.9,0.5c0.4,0.2,0.9,0.4,1.5,0.6c0.6,0.2,1.2,0.5,1.7,0.7c0.5,0.3,1,0.6,1.3,1
		c0.4,0.4,0.7,0.9,0.9,1.4c0.2,0.6,0.3,1.2,0.3,2c0,0.9-0.2,1.6-0.5,2.3c-0.3,0.7-0.7,1.2-1.2,1.7c-0.5,0.5-1.1,0.8-1.8,1
		c-0.7,0.2-1.4,0.3-2.2,0.3c-1.2,0-2.2-0.2-3.1-0.7c-0.9-0.4-1.7-1-2.3-1.7l1.7-2.3c0.5,0.5,1.1,0.9,1.7,1.2
		C47.5,24.3,48.1,24.5,48.8,24.5z"/>
	<path fill="#FFFFFF" d="M56.5,18.7c0-1.3,0.1-2.5,0.4-3.6c0.3-1.1,0.7-2,1.2-2.8c0.5-0.8,1.2-1.4,2-1.8c0.8-0.4,1.7-0.6,2.7-0.6
		c1,0,1.9,0.2,2.7,0.6c0.8,0.4,1.4,1,2,1.8c0.5,0.8,0.9,1.7,1.2,2.8c0.3,1.1,0.4,2.3,0.4,3.6c0,1.3-0.1,2.5-0.4,3.6
		c-0.3,1.1-0.7,2-1.2,2.8c-0.5,0.8-1.2,1.4-2,1.8c-0.8,0.4-1.7,0.6-2.6,0.6c-1,0-1.9-0.2-2.7-0.6c-0.8-0.4-1.4-1-2-1.7
		c-0.5-0.8-1-1.7-1.2-2.8C56.6,21.2,56.5,20,56.5,18.7z M65.6,18.7c0-2-0.2-3.4-0.7-4.3c-0.5-0.9-1.2-1.4-2.2-1.4
		c-1,0-1.7,0.5-2.2,1.4c-0.5,0.9-0.7,2.4-0.7,4.3c0,2,0.2,3.5,0.7,4.4c0.5,0.9,1.2,1.4,2.2,1.4c1,0,1.7-0.5,2.2-1.4
		C65.4,22.1,65.6,20.7,65.6,18.7z"/>
	<path fill="#FFFFFF" d="M72.1,27V10.4h2.8l0.2,2.1c1.1-1.7,2.4-2.5,3.9-2.5c0.9,0,1.6,0.2,2.1,0.7c0.5,0.4,0.9,1.1,1.1,1.9
		c0.6-0.8,1.2-1.4,1.9-1.9c0.7-0.4,1.4-0.7,2.1-0.7c1.2,0,2.1,0.4,2.7,1.3c0.6,0.9,0.8,2.1,0.8,3.6V27h-3.2V15.4
		c0-0.9-0.1-1.5-0.3-1.9c-0.2-0.4-0.6-0.6-1.1-0.6c-0.5,0-1,0.2-1.4,0.7c-0.4,0.4-0.8,1-1.2,1.6V27h-3.2V15.3c0-0.9-0.1-1.5-0.3-1.8
		c-0.2-0.4-0.6-0.5-1.1-0.5c-0.5,0-1,0.2-1.4,0.7c-0.4,0.4-0.8,1-1.2,1.6V27H72.1z"/>
	<path fill="#FFFFFF" d="M103.6,22.7c0,0.6,0.1,1.1,0.2,1.4c0.1,0.3,0.4,0.5,0.7,0.7l-0.7,2.7c-0.7-0.1-1.3-0.3-1.8-0.6
		c-0.5-0.3-0.8-0.9-1.1-1.6c-0.5,0.8-1.1,1.4-1.8,1.7c-0.7,0.4-1.5,0.5-2.3,0.5c-0.7,0-1.3-0.1-1.8-0.4c-0.5-0.3-1-0.6-1.4-1.1
		c-0.4-0.5-0.7-1-0.9-1.6c-0.2-0.6-0.3-1.3-0.3-2.1c0-1.8,0.5-3.1,1.6-4.1c1.1-0.9,2.7-1.4,4.7-1.4h1.6v-0.9c0-1.1-0.2-1.8-0.6-2.2
		c-0.4-0.4-1.1-0.6-2-0.6c-0.4,0-1,0.1-1.6,0.2c-0.6,0.1-1.2,0.4-1.9,0.6l-0.8-2.8c0.9-0.4,1.7-0.7,2.5-0.9c0.8-0.2,1.6-0.3,2.2-0.3
		c1.9,0,3.2,0.5,4.1,1.4c0.8,1,1.2,2.4,1.2,4.2V22.7z M97.9,24.5c0.5,0,1-0.2,1.5-0.5c0.4-0.4,0.8-0.9,1.1-1.5v-3.3h-1.1
		c-1.2,0-2.1,0.2-2.6,0.8C96.2,20.4,96,21.1,96,22C96,23.7,96.6,24.5,97.9,24.5z"/>
	<path fill="#FFFFFF" d="M115.2,26.2c-0.5,0.4-1,0.7-1.6,0.9c-0.6,0.2-1.2,0.3-1.8,0.3c-0.7,0-1.4-0.1-1.9-0.4
		c-0.5-0.3-0.9-0.6-1.3-1.1c-0.3-0.5-0.6-1.1-0.7-1.7c-0.1-0.7-0.2-1.4-0.2-2.3v-8.7h-2v-2.9h2V6.7l3.2-0.5v4.1h3.3l-0.4,2.9H111
		v8.7c0,0.8,0.1,1.4,0.3,1.8c0.2,0.4,0.6,0.5,1.1,0.5c0.5,0,1-0.2,1.6-0.6L115.2,26.2z"/>
	<path fill="#FFFFFF" d="M117,27V10.4h3.2V27H117z"/>
	<path fill="#FFFFFF" d="M129.7,24.2c0.5,0,0.9-0.1,1.3-0.3c0.4-0.2,0.9-0.5,1.4-1l1.5,2.6c-1.3,1.3-2.7,1.9-4.3,1.9
		c-1,0-2-0.2-2.8-0.6c-0.8-0.4-1.5-1-2-1.8c-0.5-0.8-0.9-1.7-1.2-2.7c-0.3-1.1-0.4-2.2-0.4-3.6c0-1.3,0.1-2.4,0.4-3.5
		c0.3-1.1,0.7-2,1.2-2.8c0.5-0.8,1.2-1.4,2-1.9c0.8-0.4,1.7-0.7,2.7-0.7c0.8,0,1.6,0.2,2.3,0.5c0.7,0.3,1.4,0.8,2,1.5l-1.5,2.4
		c-0.5-0.5-0.9-0.8-1.4-1c-0.4-0.2-0.9-0.3-1.3-0.3c-1,0-1.7,0.4-2.2,1.3c-0.5,0.9-0.8,2.3-0.8,4.3c0,2,0.3,3.4,0.8,4.2
		C128,23.8,128.7,24.2,129.7,24.2z"/>
</g>
<path fill="#FFFFFF" d="M39.6,7.8c0.6,0,1.1-0.2,1.5-0.6c0.4-0.4,0.6-0.9,0.6-1.5c0-0.6-0.2-1-0.6-1.4c-0.4-0.4-0.9-0.6-1.4-0.6
	s-1,0.2-1.5,0.6c-0.4,0.4-0.6,0.9-0.6,1.4c0,0.6,0.2,1.1,0.6,1.5C38.5,7.6,39,7.8,39.6,7.8z"/>
<path fill="#FFFFFF" d="M118.5,7.8c0.6,0,1.1-0.2,1.5-0.6c0.4-0.4,0.6-0.9,0.6-1.5c0-0.6-0.2-1-0.6-1.4c-0.4-0.4-0.9-0.6-1.4-0.6
	s-1,0.2-1.5,0.6c-0.4,0.4-0.6,0.9-0.6,1.4c0,0.6,0.2,1.1,0.6,1.5C117.4,7.5,117.9,7.8,118.5,7.8z"/>
</svg>
