<svg xmlns="http://www.w3.org/2000/svg" width="134" height="31" viewBox="0 0 133.9 31" style="enable-background:new 0 0 133.9 31">
 <g>
  <g style="fill:#ffffff">
   <path d="M6.7 7.8c.6 0 1.1-.2 1.5-.6.4-.4.6-.9.6-1.5 0-.6-.2-1-.6-1.4C7.8 3.9 7.3 3.7 6.7 3.7c-.6 0-1 .2-1.5.6C4.9 4.7 4.7 5.2 4.7 5.7c0 .6.2 1.1.6 1.5C5.6 7.6 6.1 7.8 6.7 7.8"/>
   <path d="M9.6 10c0-.6-.5-1.1-1.1-1.1H5c-.6 0-1.1.5-1.1 1.1v8.7h1.4V27h3v-8.3h1.4C9.6 18.7 9.6 10 9.6 10"/>
   <path d="M15.5 7.8c.6 0 1.1-.2 1.5-.6.4-.4.6-.9.6-1.5 0-.6-.2-1-.6-1.4-.4-.4-.9-.6-1.4-.6s-1 .2-1.5.6c-.4.4-.6.9-.6 1.4 0 .6.2 1.1.6 1.5C14.4 7.6 14.9 7.8 15.5 7.8"/>
   <path d="M18.4 10c0-.6-.5-1.1-1.1-1.1h-3.4c-.6 0-1.1.5-1.1 1.1v8.7H14V27h3v-8.3h1.4V10"/>
   <path d="M24.3 7.8c.6 0 1.1-.2 1.5-.6.4-.4.6-.9.6-1.5 0-.6-.2-1-.6-1.4-.4-.4-.9-.6-1.4-.6s-1 .2-1.5.6c-.4.4-.6.9-.6 1.4 0 .6.2 1.1.6 1.5C23 7.6 23.7 7.8 24.3 7.8"/>
   <path d="M27.3 10c0-.6-.5-1.1-1.1-1.1h-3.6c-.6 0-1.1.5-1.1 1.1v8.7h1.4V27h3v-8.3h1.4V10L27.3 10"/>
  </g>
  <g>
   <path d="M1.5 18.3h-1v9.4c0 1.6 1.3 2.8 2.8 2.8h24.3c1.6 0 2.8-1.3 2.8-2.8v-9.4h-1" style="fill:none;stroke-miterlimit:10;stroke:#ffffff"/>
  </g>
 </g>
 <g style="fill:#ffffff">
  <path d="M38 27V10.4h3.2V27H38"/>
  <path d="M48.8 24.5c.7 0 1.3-.2 1.7-.5.4-.4.6-.9.6-1.5 0-.3 0-.6-.1-.9-.1-.3-.2-.5-.5-.7-.2-.2-.5-.4-.9-.6-.4-.2-.9-.4-1.6-.6-1.2-.4-2.2-1-2.9-1.7-.7-.8-1-1.9-1-3.2 0-.7.1-1.3.4-1.9.2-.6.6-1.1 1.1-1.5.5-.4 1-.8 1.7-1 .7-.3 1.4-.4 2.2-.4 1 0 1.9.2 2.7.5.8.3 1.5.8 2 1.2l-1.4 2.5c-.5-.4-1-.7-1.5-1-.5-.2-1.1-.3-1.7-.3-.7 0-1.2.2-1.6.5-.4.3-.6.7-.6 1.2 0 .3 0 .5.1.7.1.2.2.4.5.6.2.2.5.4.9.5.4.2.9.4 1.5.6.6.2 1.2.5 1.7.7.5.3 1 .6 1.3 1 .4.4.7.9.9 1.4.2.6.3 1.2.3 2 0 .9-.2 1.6-.5 2.3-.3.7-.7 1.2-1.2 1.7-.5.5-1.1.8-1.8 1-.7.2-1.4.3-2.2.3-1.2 0-2.2-.2-3.1-.7-.9-.4-1.7-1-2.3-1.7l1.7-2.3c.5.5 1.1.9 1.7 1.2C48 24.3 48 24.5 48.8 24.5"/>
  <path d="M57 18.7c0-1.3.1-2.5.4-3.6.3-1.1.7-2 1.2-2.8.5-.8 1.2-1.4 2-1.8.8-.4 1.7-.6 2.7-.6 1 0 1.9.2 2.7.6.8.4 1.4 1 2 1.8.5.8.9 1.7 1.2 2.8.3 1.1.4 2.3.4 3.6 0 1.3-.1 2.5-.4 3.6-.3 1.1-.7 2-1.2 2.8-.5.8-1.2 1.4-2 1.8-.8.4-1.7.6-2.6.6-1 0-1.9-.2-2.7-.6-.8-.4-1.4-1-2-1.7-.5-.8-1-1.7-1.2-2.8C57 21 57 20 57 18.7M66 18.7c0-2-.2-3.4-.7-4.3-.5-.9-1.2-1.4-2.2-1.4-1 0-1.7.5-2.2 1.4-.5.9-.7 2.4-.7 4.3 0 2 .2 3.5.7 4.4.5.9 1.2 1.4 2.2 1.4 1 0 1.7-.5 2.2-1.4C65 22 66 20.7 66 18.7"/>
  <path d="M72 27V10.4h2.8l.2 2.1c1.1-1.7 2.4-2.5 3.9-2.5.9 0 1.6.2 2.1.7.5.4.9 1.1 1.1 1.9.6-.8 1.2-1.4 1.9-1.9.7-.4 1.4-.7 2.1-.7 1.2 0 2.1.4 2.7 1.3.6.9.8 2.1.8 3.6V27h-3.2V15.4c0-.9-.1-1.5-.3-1.9-.2-.4-.6-.6-1.1-.6-.5 0-1 .2-1.4.7-.4.4-.8 1-1.2 1.6V27h-3.2V15.3c0-.9-.1-1.5-.3-1.8-.2-.4-.6-.5-1.1-.5-.5 0-1 .2-1.4.7-.4.4-.8 1-1.2 1.6V27H72"/>
  <path d="M104 22.7c0 .6.1 1.1.2 1.4.1.3.4.5.7.7l-.7 2.7c-.7-.1-1.3-.3-1.8-.6-.5-.3-.8-.9-1.1-1.6-.5.8-1.1 1.4-1.8 1.7-.7.4-1.5.5-2.3.5-.7 0-1.3-.1-1.8-.4-.5-.3-1-.6-1.4-1.1-.4-.5-.7-1-.9-1.6-.2-.6-.3-1.3-.3-2.1 0-1.8.5-3.1 1.6-4.1 1.1-.9 2.7-1.4 4.7-1.4h1.6v-.9c0-1.1-.2-1.8-.6-2.2-.4-.4-1.1-.6-2-.6-.4 0-1 .1-1.6.2-.6.1-1.2.4-1.9.6l-.8-2.8c.9-.4 1.7-.7 2.5-.9.8-.2 1.6-.3 2.2-.3 1.9 0 3.2.5 4.1 1.4.8 1 1.2 2.4 1.2 4.2V22.7zM98 24.5c.5 0 1-.2 1.5-.5.4-.4.8-.9 1.1-1.5v-3.3h-1.1c-1.2 0-2.1.2-2.6.8C96 20.4 96 21 96 22 96 23.7 97 24.5 98 24.5"/>
  <path d="M115 26c-.5.4-1 .7-1.6.9-.6.2-1.2.3-1.8.3-.7 0-1.4-.1-1.9-.4-.5-.3-.9-.6-1.3-1.1-.3-.5-.6-1.1-.7-1.7-.1-.7-.2-1.4-.2-2.3v-8.7h-2v-2.9h2V6.7l3.2-.5v4.1h3.3l-.4 2.9H111v8.7c0 .8.1 1.4.3 1.8.2.4.6.5 1.1.5.5 0 1-.2 1.6-.6L115 26"/>
  <path d="M117 27V10.4h3.2V27H117"/>
  <path d="M130 24c.5 0 .9-.1 1.3-.3.4-.2.9-.5 1.4-1l1.5 2.6c-1.3 1.3-2.7 1.9-4.3 1.9-1 0-2-.2-2.8-.6-.8-.4-1.5-1-2-1.8-.5-.8-.9-1.7-1.2-2.7-.3-1.1-.4-2.2-.4-3.6 0-1.3.1-2.4.4-3.5.3-1.1.7-2 1.2-2.8.5-.8 1.2-1.4 2-1.9.8-.4 1.7-.7 2.7-.7.8 0 1.6.2 2.3.5.7.3 1.4.8 2 1.5l-1.5 2.4c-.5-.5-.9-.8-1.4-1-.4-.2-.9-.3-1.3-.3-1 0-1.7.4-2.2 1.3-.5.9-.8 2.3-.8 4.3 0 2 .3 3.4.8 4.2C128 23.8 129 24 130 24"/>
  <path d="M39.6 7.8c.6 0 1.1-.2 1.5-.6.4-.4.6-.9.6-1.5 0-.6-.2-1-.6-1.4-.4-.4-.9-.6-1.4-.6s-1 .2-1.5.6c-.4.4-.6.9-.6 1.4 0 .6.2 1.1.6 1.5C38.5 7.6 39 7.8 39.6 7.8"/>
  <path d="M119 7.8c.6 0 1.1-.2 1.5-.6.4-.4.6-.9.6-1.5 0-.6-.2-1-.6-1.4-.4-.4-.9-.6-1.4-.6s-1 .2-1.5.6c-.4.4-.6.9-.6 1.4 0 .6.2 1.1.6 1.5C117 7.5 118 7.8 119 7.8"/>
 </g>
</svg>
