<?xml version="1.0" encoding="utf-8"?>
<!-- Generator: Adobe Illustrator 17.1.0, SVG Export Plug-In . SVG Version: 6.00 Build 0)  -->
<!DOCTYPE svg PUBLIC "-//W3C//DTD SVG 1.1//EN" "http://www.w3.org/Graphics/SVG/1.1/DTD/svg11.dtd">
<svg version="1.1" id="Ebene_1" xmlns="http://www.w3.org/2000/svg" xmlns:xlink="http://www.w3.org/1999/xlink" x="0px" y="0px"
	 width="135.2px" height="31px" viewBox="0 0 135.2 31" enable-background="new 0 0 135.2 31" xml:space="preserve">
<g>
	<g>
		<path fill="#FFFFFF" d="M6.8,7.6c0.6,0,1.1-0.2,1.5-0.6c0.4-0.4,0.6-0.9,0.6-1.5s-0.2-1-0.6-1.4S7.4,3.5,6.8,3.5s-1,0.2-1.5,0.6
			C5,4.5,4.8,5,4.8,5.5C4.8,6.1,5,6.6,5.4,7C5.7,7.4,6.2,7.6,6.8,7.6z"/>
		<path fill="#FFFFFF" d="M9.7,9.8c0-0.6-0.5-1.1-1.1-1.1H5.1C4.5,8.7,4,9.2,4,9.8v8.7h1.4v8.3h3v-8.3h1.4C9.7,18.5,9.7,9.8,9.7,9.8
			z"/>
	</g>
	<g>
		<path fill="#FFFFFF" d="M15.6,7.6c0.6,0,1.1-0.2,1.5-0.6c0.4-0.4,0.6-0.9,0.6-1.5s-0.2-1-0.6-1.4s-0.9-0.6-1.4-0.6
			c-0.5,0-1,0.2-1.5,0.6c-0.4,0.4-0.6,0.9-0.6,1.4c0,0.6,0.2,1.1,0.6,1.5C14.5,7.4,15,7.6,15.6,7.6z"/>
		<path fill="#FFFFFF" d="M18.5,9.8c0-0.6-0.5-1.1-1.1-1.1H14c-0.6,0-1.1,0.5-1.1,1.1v8.7h1.2v8.3h3v-8.3h1.4V9.8z"/>
	</g>
	<g>
		<path fill="#FFFFFF" d="M24.4,7.6c0.6,0,1.1-0.2,1.5-0.6c0.4-0.4,0.6-0.9,0.6-1.5s-0.2-1-0.6-1.4c-0.4-0.4-0.9-0.6-1.4-0.6
			c-0.5,0-1,0.2-1.5,0.6c-0.4,0.4-0.6,0.9-0.6,1.4c0,0.6,0.2,1.1,0.6,1.5C23.3,7.4,23.8,7.6,24.4,7.6z"/>
		<path fill="#FFFFFF" d="M27.4,9.8c0-0.6-0.5-1.1-1.1-1.1h-3.6c-0.6,0-1.1,0.5-1.1,1.1v8.7H23v8.3h3v-8.3h1.4L27.4,9.8L27.4,9.8z"
			/>
	</g>
	<g>
		<path fill="none" stroke="#FFFFFF" stroke-miterlimit="10" d="M1.6,18.1c-1,0-1,1.1-1,1.1v8.3c0,1.6,1.3,2.8,2.8,2.8h24.3
			c1.6,0,2.8-1.3,2.8-2.8v-8.3c0,0,0-1.1-1-1.1"/>
	</g>
</g>
<g>
	<path fill="#FFFFFF" d="M38.1,26.8V10.2h3.2v16.6H38.1z"/>
	<path fill="#FFFFFF" d="M49.3,24.3c0.7,0,1.3-0.2,1.7-0.5c0.4-0.4,0.6-0.9,0.6-1.5c0-0.3,0-0.6-0.1-0.9s-0.2-0.5-0.5-0.7
		c-0.2-0.2-0.5-0.4-0.9-0.6c-0.4-0.2-0.9-0.4-1.6-0.6c-1.2-0.4-2.2-1-2.9-1.7c-0.7-0.8-1-1.9-1-3.2c0-0.7,0.1-1.3,0.4-1.9
		c0.2-0.6,0.6-1.1,1.1-1.5c0.5-0.4,1-0.8,1.7-1c0.7-0.3,1.4-0.4,2.2-0.4c1,0,1.9,0.2,2.7,0.5c0.8,0.3,1.5,0.8,2,1.2L53.3,14
		c-0.5-0.4-1-0.7-1.5-1c-0.5-0.2-1.1-0.3-1.7-0.3c-0.7,0-1.2,0.2-1.6,0.5c-0.4,0.3-0.6,0.7-0.6,1.2c0,0.3,0,0.5,0.1,0.7
		c0.1,0.2,0.2,0.4,0.5,0.6c0.2,0.2,0.5,0.4,0.9,0.5c0.4,0.2,0.9,0.4,1.5,0.6c0.6,0.2,1.2,0.5,1.7,0.7c0.5,0.3,1,0.6,1.3,1
		c0.4,0.4,0.7,0.9,0.9,1.4c0.2,0.6,0.3,1.2,0.3,2c0,0.9-0.2,1.6-0.5,2.3c-0.3,0.7-0.7,1.2-1.2,1.7c-0.5,0.5-1.1,0.8-1.8,1
		c-0.7,0.2-1.4,0.3-2.2,0.3c-1.2,0-2.2-0.2-3.1-0.7c-0.9-0.4-1.7-1-2.3-1.7l1.7-2.3c0.5,0.5,1.1,0.9,1.7,1.2
		C48,24.1,48.6,24.3,49.3,24.3z"/>
	<path fill="#FFFFFF" d="M57.1,18.5c0-1.3,0.1-2.5,0.4-3.6c0.3-1.1,0.7-2,1.2-2.8c0.5-0.8,1.2-1.4,2-1.8s1.7-0.6,2.7-0.6
		s1.9,0.2,2.7,0.6c0.8,0.4,1.4,1,2,1.8c0.5,0.8,0.9,1.7,1.2,2.8c0.3,1.1,0.4,2.3,0.4,3.6c0,1.3-0.1,2.5-0.4,3.6s-0.7,2-1.2,2.8
		c-0.5,0.8-1.2,1.4-2,1.8c-0.8,0.4-1.7,0.6-2.6,0.6c-1,0-1.9-0.2-2.7-0.6c-0.8-0.4-1.4-1-2-1.7c-0.5-0.8-1-1.7-1.2-2.8
		C57.2,21,57.1,19.8,57.1,18.5z M66.2,18.5c0-2-0.2-3.4-0.7-4.3c-0.5-0.9-1.2-1.4-2.2-1.4c-1,0-1.7,0.5-2.2,1.4
		c-0.5,0.9-0.7,2.4-0.7,4.3c0,2,0.2,3.5,0.7,4.4c0.5,0.9,1.2,1.4,2.2,1.4c1,0,1.7-0.5,2.2-1.4C66,21.9,66.2,20.5,66.2,18.5z"/>
	<path fill="#FFFFFF" d="M72.4,26.8V10.2h2.8l0.2,2.1c1.1-1.7,2.4-2.5,3.9-2.5c0.9,0,1.6,0.2,2.1,0.7c0.5,0.4,0.9,1.1,1.1,1.9
		c0.6-0.8,1.2-1.4,1.9-1.9c0.7-0.4,1.4-0.7,2.1-0.7c1.2,0,2.1,0.4,2.7,1.3s0.8,2.1,0.8,3.6v12.1h-3.2V15.2c0-0.9-0.1-1.5-0.3-1.9
		c-0.2-0.4-0.6-0.6-1.1-0.6c-0.5,0-1,0.2-1.4,0.7c-0.4,0.4-0.8,1-1.2,1.6v11.8h-3.2V15.1c0-0.9-0.1-1.5-0.3-1.8
		c-0.2-0.4-0.6-0.5-1.1-0.5s-1,0.2-1.4,0.7c-0.4,0.4-0.8,1-1.2,1.6v11.7H72.4z"/>
	<path fill="#FFFFFF" d="M104.9,24.1c0.2,0.3,0.8,0.8,1.6,0.8v2.2c0,0-1.2,0.2-1.5,0.2c-0.8,0-1.4-0.2-2-0.5
		c-0.5-0.3-0.9-0.9-1.2-1.6c-0.5,0.8-1.2,1.4-2,1.7c-0.8,0.4-1.6,0.5-2.5,0.5c-0.8,0-1.4-0.1-2-0.4c-0.5-0.3-1.1-0.6-1.5-1.1
		c-0.4-0.5-0.8-1-1-1.6c-0.2-0.6-0.3-1.3-0.3-2.1c0-1.8,0.5-3.1,1.8-4.1c1.2-0.9,3-1.4,5.2-1.4h1.8v-0.9c0-1.1-0.2-1.8-0.7-2.2
		c-0.4-0.4-1.2-0.6-2.2-0.6c-0.4,0-1.1,0.1-1.8,0.2c-0.7,0.1-1.3,0.4-2.1,0.6L93.6,11c1-0.4,1.9-0.7,2.7-0.9
		c0.9-0.2,1.8-0.3,2.4-0.3c2.1,0,3.5,0.5,4.5,1.4c0.9,1,1.3,2.4,1.3,4.2v7.2C104.5,22.5,104.6,23.7,104.9,24.1z M98.5,24.3
		c0.5,0,1.1-0.2,1.6-0.5c0.4-0.4,0.9-0.9,1.2-1.5V19h-1.2c-1.3,0-2.3,0.2-2.9,0.8c-0.7,0.4-0.9,1.1-0.9,2
		C96.4,23.5,97.1,24.3,98.5,24.3z"/>
	<path fill="#FFFFFF" d="M116.2,26c-0.5,0.4-1,0.7-1.6,0.9s-1.2,0.3-1.8,0.3c-0.7,0-1.4-0.1-1.9-0.4c-0.5-0.3-0.9-0.6-1.3-1.1
		c-0.3-0.5-0.6-1.1-0.7-1.7c-0.1-0.7-0.2-1.4-0.2-2.3V13h-2v-2.9h2V6.5l3.2-0.5v4.1h3.3l-0.4,2.9H112v8.7c0,0.8,0.1,1.4,0.3,1.8
		c0.2,0.4,0.6,0.5,1.1,0.5c0.5,0,1-0.2,1.6-0.6L116.2,26z"/>
	<path fill="#FFFFFF" d="M118.3,26.8V10.2h3.2v16.6H118.3z"/>
	<path fill="#FFFFFF" d="M131,24c0.5,0,0.9-0.1,1.3-0.3c0.4-0.2,0.9-0.5,1.4-1l1.5,2.6c-1.3,1.3-2.7,1.9-4.3,1.9c-1,0-2-0.2-2.8-0.6
		c-0.8-0.4-1.5-1-2-1.8c-0.5-0.8-0.9-1.7-1.2-2.7c-0.3-1.1-0.4-2.2-0.4-3.6c0-1.3,0.1-2.4,0.4-3.5s0.7-2,1.2-2.8
		c0.5-0.8,1.2-1.4,2-1.9c0.8-0.4,1.7-0.7,2.7-0.7c0.8,0,1.6,0.2,2.3,0.5c0.7,0.3,1.4,0.8,2,1.5l-1.5,2.4c-0.5-0.5-0.9-0.8-1.4-1
		c-0.4-0.2-0.9-0.3-1.3-0.3c-1,0-1.7,0.4-2.2,1.3c-0.5,0.9-0.8,2.3-0.8,4.3s0.3,3.4,0.8,4.2C129.3,23.6,130,24,131,24z"/>
</g>
<path fill="#FFFFFF" d="M39.7,7.6c0.6,0,1.1-0.2,1.5-0.6c0.4-0.4,0.6-0.9,0.6-1.5s-0.2-1-0.6-1.4c-0.4-0.4-0.9-0.6-1.4-0.6
	s-1,0.2-1.5,0.6c-0.4,0.4-0.6,0.9-0.6,1.4c0,0.6,0.2,1.1,0.6,1.5C38.6,7.4,39.1,7.6,39.7,7.6z"/>
<path fill="#FFFFFF" d="M119.8,7.6c0.6,0,1.1-0.2,1.5-0.6c0.4-0.4,0.6-0.9,0.6-1.5s-0.2-1-0.6-1.4s-0.9-0.6-1.4-0.6
	c-0.5,0-1,0.2-1.5,0.6c-0.4,0.4-0.6,0.9-0.6,1.4c0,0.6,0.2,1.1,0.6,1.5C118.7,7.3,119.2,7.6,119.8,7.6z"/>
</svg>
