<?xml version="1.0" encoding="utf-8"?>
<!-- Generator: Adobe Illustrator 17.0.2, SVG Export Plug-In . SVG Version: 6.00 Build 0)  -->
<!DOCTYPE svg PUBLIC "-//W3C//DTD SVG 1.1//EN" "http://www.w3.org/Graphics/SVG/1.1/DTD/svg11.dtd">
<svg version="1.1" id="Ebene_1" xmlns="http://www.w3.org/2000/svg" xmlns:xlink="http://www.w3.org/1999/xlink" x="0px" y="0px"
	 width="20.993px" height="19.311px" viewBox="0 0 20.993 19.311" enable-background="new 0 0 20.993 19.311" xml:space="preserve">
<g>
	<g>
		<path fill="#FFFFFF" d="M20.287,5.186h-3.589l2.538-2.485c0.276-0.275,0.276-0.698,0-0.972s-0.678-0.264-0.954,0.011l-2.493,2.54
			V0.703C15.788,0.315,15.473,0,15.083,0c-0.39,0-0.706,0.315-0.706,0.703v3.576L11.795,1.75c-0.276-0.275-0.744-0.275-1.02,0
			s-0.287,0.676-0.011,0.95l2.527,2.485H9.702c-0.39,0-0.706,0.315-0.706,0.703s0.316,0.703,0.706,0.703h3.589l-2.538,2.573
			c-0.276,0.275-0.276,0.742,0,1.016c0.138,0.137,0.318,0.217,0.499,0.217s0.405-0.063,0.543-0.201l2.582-2.523v3.576
			c0,0.388,0.316,0.703,0.706,0.703s0.706-0.315,0.706-0.703V7.674l2.493,2.529c0.138,0.137,0.296,0.206,0.477,0.206
			s0.35-0.069,0.488-0.206c0.276-0.275,0.27-0.764-0.006-1.038l-2.543-2.573h3.589c0.39,0,0.706-0.315,0.706-0.703
			C20.992,5.5,20.677,5.186,20.287,5.186z"/>
		<g>
			<path fill="#FFFFFF" d="M12.807,11.403c-0.82,0.718-2.306,0.742-3.165-0.11c-0.082-0.081-0.15-0.172-0.217-0.263H0v8.281h14.995
				v-5.796C13.83,13.469,12.885,12.556,12.807,11.403z"/>
			<path fill="#FFFFFF" d="M9.196,8.099H6.522L4.026,5.733H1.159L0,6.597v2.685h9.007c0.071-0.419,0.254-0.807,0.537-1.125
				C9.424,8.149,9.309,8.125,9.196,8.099z"/>
		</g>
	</g>
</g>
<g display="none">
	<path display="inline" fill="#FFFFFF" d="M108.442-24.827c0.854,0,1.582-0.3,2.183-0.901c0.6-0.602,0.902-1.33,0.902-2.184
		c0-0.839-0.301-1.558-0.902-2.159c-0.601-0.602-1.313-0.902-2.136-0.902s-1.558,0.3-2.206,0.902
		c-0.601,0.6-0.902,1.313-0.902,2.135c0,0.886,0.292,1.622,0.878,2.207C106.859-25.127,107.587-24.827,108.442-24.827z"/>
	<path display="inline" fill="#FFFFFF" d="M111.03-23.172h-5.153c-0.949,0-1.717,0.769-1.717,1.718v12.989h2.054V4.028h4.479V-8.465
		h2.055v-12.989C112.748-22.403,111.978-23.172,111.03-23.172z"/>
	<path display="inline" fill="#FFFFFF" d="M122.471-24.827c0.854,0,1.582-0.3,2.183-0.901c0.6-0.602,0.902-1.33,0.902-2.184
		c0-0.839-0.301-1.558-0.902-2.159c-0.601-0.602-1.313-0.902-2.136-0.902s-1.558,0.3-2.206,0.902
		c-0.601,0.6-0.902,1.313-0.902,2.135c0,0.886,0.292,1.622,0.878,2.207C120.889-25.127,121.617-24.827,122.471-24.827z"/>
	<path display="inline" fill="#FFFFFF" d="M125.059-23.172h-5.153c-0.949,0-1.718,0.769-1.718,1.718v12.989h2.054V4.028h4.479
		V-8.465h2.055v-12.989C126.777-22.403,126.008-23.172,125.059-23.172z"/>
</g>
<g display="none">
	<path display="inline" fill="#FFFFFF" d="M102.936-27.088h25.912l0.246,7.787h-1.096c-0.537-2.446-1.22-4.039-2.047-4.777
		c-0.828-0.738-2.57-1.108-5.225-1.108h-2.551v23.45c0,1.765,0.276,2.86,0.828,3.283s1.76,0.701,3.625,0.834v0.85h-13.359v-0.85
		c1.939-0.148,3.148-0.467,3.625-0.957s0.716-1.723,0.716-3.697v-22.913h-2.573c-2.536,0-4.263,0.365-5.18,1.096
		s-1.607,2.327-2.07,4.789h-1.119L102.936-27.088z"/>
</g>
<path display="none" fill="#FFFFFF" d="M118.658,3.825v-5.477c0,0,0-7.54,7.801-7.54v-1.249h-20.803v1.25
	c0,0,7.801-0.906,7.801,7.507c0,0,0,4.482,0,5.492c0,1.692,1.644,1.971,2.75,1.971C116.208,5.778,118.658,6.034,118.658,3.825z
	 M114.929,4.062c-0.656-0.591-0.656-1.55,0-2.141c0.655-0.591,1.719-0.591,2.374,0s0.655,1.55,0,2.141
	C116.646,4.653,115.584,4.653,114.929,4.062z"/>
<g display="none">
	<path display="inline" fill="#FFFFFF" d="M126.459-17.965L126.459-17.965c0.01,0.013,0.03,0.038,0.03,0.038
		S126.474-17.947,126.459-17.965z"/>
	<path display="inline" fill="#FFFFFF" d="M126.489-18.243v-10.97h-20.803v0.317v0.36h-0.03v2.2v0.82v3.125v5.568v0.513v0.492v3.694
		h20.803v-3.418v-1.281L126.489-18.243z M125.405-20.919c-1.699-1.482-4.4-3.235-7.662-3.235c-1.093,0-2.182,0.201-3.237,0.598
		c-1.805,0.678-3.36,1.022-4.623,1.022c-2.477,0-3.016-1.335-3.111-1.667v-3.926h18.634L125.405-20.919L125.405-20.919z"/>
</g>
</svg>
