<svg xmlns="http://www.w3.org/2000/svg" width="46" height="25" viewBox="0 0 46 25" style="enable-background:new 0 0 46 25">
 <g style="fill:#ffffff">
  <path d="M33 4.4c.6 0 1.1-.2 1.5-.6.4-.4.6-1 .6-1.6 0-.6-.2-1.1-.6-1.5C34 .2 33.6 0 33 0s-1.1.2-1.6.6C31 1.1 30.8 1.6 30.8 2.2c0 .6.2 1.2.6 1.6C31.9 4.2 32.4 4.4 33 4.4"/>
  <path d="M36 6.8c0-.7-.5-1.2-1.2-1.2H31c-.7 0-1.2.5-1.2 1.2v9.3h1.4V25h3.2v-8.9h1.4V6.8H36"/>
  <path d="M3 4.4c.6 0 1.1-.2 1.5-.6.4-.4.6-1 .6-1.6 0-.6-.2-1.1-.6-1.5C4.1.2 3.6 0 3.1 0S2 .2 1.5.6C1.1 1.1.9 1.6.9 2.2c0 .6.2 1.2.6 1.6C1.9 4.2 2.4 4.4 3 4.4"/>
  <path d="M6 6.8c0-.7-.5-1.2-1.2-1.2H1.2C.5 5.6 0 6.1 0 6.8v9.3h1.4V25h3.2v-8.9h1.4V6.8L6 6.8"/>
  <path d="M13 9c.5 0 .9-.2 1.2-.5.3-.3.5-.7.5-1.2 0-.5-.2-.9-.5-1.2-.3-.3-.7-.5-1.2-.5-.4 0-.8.2-1.2.5-.3.3-.5.7-.5 1.2 0 .5.2.9.5 1.2C12.1 8.9 12.5 9 13 9"/>
  <path d="M15.3 10.9c0-.5-.4-.9-.9-.9h-2.8c-.5 0-.9.4-.9.9v7.1h1.1v6.9h2.4v-6.9h1.1v-7.1H15.3"/>
  <path d="M23 14.3c.3 0 .6-.1.8-.3.2-.2.3-.5.3-.8 0-.3-.1-.6-.3-.8-.2-.2-.5-.3-.8-.3s-.6.1-.8.3c-.2.2-.3.5-.3.8 0 .3.1.6.3.8C22.4 14.2 22.7 14.3 23 14.3"/>
  <path d="M24.6 15.6c0-.3-.3-.6-.6-.6h-1.9c-.3 0-.6.3-.6.6v4.8h.7v4.6h1.6v-4.6h.7V15.6H24.6"/>
  <path d="M43 10.5c.4 0 .8-.2 1.1-.5.3-.3.5-.7.5-1.1 0-.4-.2-.8-.5-1.1-.3-.3-.7-.5-1.1-.5S42 7.5 41.9 7.8C41.6 8.1 41 8.5 41 8.9c0 .5.1.8.4 1.1C42 10.3 42.5 10.5 43 10.5"/>
  <path d="M45 12.2c0-.5-.4-.9-.9-.9h-2.6c-.5 0-.9.4-.9.9v6.6h1v6.4h2.3v-6.4h1V12.2"/>
 </g>
</svg>
