<?xml version="1.0" encoding="utf-8"?>
<!-- Generator: Adobe Illustrator 15.1.0, SVG Export Plug-In  -->
<!DOCTYPE svg PUBLIC "-//W3C//DTD SVG 1.1//EN" "http://www.w3.org/Graphics/SVG/1.1/DTD/svg11.dtd" [
	<!ENTITY ns_flows "http://ns.adobe.com/Flows/1.0/">
]>
<svg version="1.1"
	 xmlns="http://www.w3.org/2000/svg" xmlns:xlink="http://www.w3.org/1999/xlink" xmlns:a="http://ns.adobe.com/AdobeSVGViewerExtensions/3.0/"
	 x="0px" y="0px" width="366px" height="144px" viewBox="-5.3 -4.3 366 144" enable-background="new -5.3 -4.3 366 144"
	 xml:space="preserve">
<defs>
</defs>
<path fill="#555555" d="M248,137.1c-2.6-8-6.9-14.5-14.5-19.8c-3.7-2.5-8.6-4.3-13.3-6c-0.6-0.2-1.2-0.4-1.8-0.7L213.4,52l0,0.1
	c-1.7-27.1-13.6-41.4-34.8-41.4c-12.2,0-21.3,4.6-27.2,13.6c-4.7,7.3-7.4,17.6-7.8,30.7l-4.6,55.5c-0.7,0.3-1.4,0.5-2.2,0.8
	c-4.7,1.7-9.6,3.4-13.3,6c-7.6,5.3-11.8,11.7-14.6,19.5c-0.5,1.5-0.6,2.3-0.6,2.3c0.1,0,2.3,0.1,2.5,0.1c0,0,0,0,0,0l0,0H246
	c0,0,0,0,0,0c0,0,0.1,0,0.1,0c0.1,0,2.3-0.1,2.3-0.1S248.2,138,248,137.1z M147.8,45.5c1.6,4.2,6.2,9.2,19,9.2
	c30.1,0,33.3,12.5,33.3,12.5s8-6.5,9.5-18.6c0.3,3.2,0.5,6.7,0.5,10.3c0,10.3-3.9,18.5-7.7,24c-0.3,0.2-0.5,0.5-0.6,0.9c0,0,0,0,0,0
	c-1.2,1.6-2.3,3-3.3,4.1c-6.2,6.8-14.2,11.3-19.9,11.3c-10.8,0-31.6-17-31.6-40.3C147,54,147.3,49.6,147.8,45.5z M178.5,135.4
	c-19.2,0-33-15.7-37.7-21.8c4.6-1.7,8.7-3.5,10.9-6.1c4.5-5.4,5-12.1,4.6-17.1c7.2,7.8,16,12.3,22.2,12.3c6.6,0,15.1-4.7,22-11.9
	c-0.4,4.9,0.2,11.5,4.7,16.7c2.4,2.9,7,4.7,12.1,6.5C213.3,119,198.4,135.4,178.5,135.4z"/>
<path fill="#555555" d="M178.6,89.1c6.1,0,11-4.8,11-4.8s-2.9-3.4-6.9-4c-1.3-0.2-2.6,1.1-4.1,1.1c-1.5,0-2.6-1.2-3.9-1
	c-4,0.6-7,4-7,4S172.5,89.1,178.6,89.1z"/>
<circle fill="#555555" cx="168" cy="76.1" r="1.8"/>
<path fill="none" d="M279.2,117.5c-1.1,0-2,0.6-2.4,1.6h4.8C281.2,118.2,280.3,117.5,279.2,117.5z"/>
<path fill="none" d="M258,44.2h12.2c1.8,0,3.5,0.7,4.6,1.9h9c1.1-1.2,2.7-1.9,4.6-1.9h12.2c2.5,0,4.6,1.3,5.5,3.2l1.6-0.8
	c0-0.1,0-0.1,0-0.2c0-5.7-0.2-17.7-0.3-22.5c-0.9-1.4-1.8-2.7-2.9-3.9c-2.2-2.5-5-4.5-8.1-5.9c-1.1,0.9-7.6,6-17.1,6
	c-9.4,0-15.9-5-17-6c-3.1,1.5-5.8,3.5-8,5.9c-1.2,1.3-2.3,2.8-3.2,4.4c-0.1,5-0.3,16.6-0.3,22.1c0,0,0,0.1,0,0.1l1.9,1
	C253.3,45.6,255.4,44.2,258,44.2z"/>
<path fill="none" d="M287.2,115.6h2.7c7.1-2.1,12.3-5.7,15.5-8.4L287.2,115.6z"/>
<path fill="none" d="M249,107.1c3.7,2.7,9.5,6.4,16.8,8.5h4.6l-20.9-9.6L249,107.1z"/>
<path fill="none" d="M276.9,119.1c-0.1,0.3-0.2,0.7-0.2,1v9.7c0,1.4,1.2,2.6,2.6,2.6c1.4,0,2.6-1.2,2.6-2.6v-9.7
	c0-0.4-0.1-0.7-0.2-1H276.9z"/>
<path fill="none" d="M296.9,92.1C291.6,96,285.6,98,279,98c-7.2,0-13.7-2.5-19.3-7.1c-0.8,3.5-2.7,6.6-5.4,9.2c-1,1-2.2,1.9-3.4,2.7
	l27.9,12.8l27.1-12.5C300.5,99.9,298,95.7,296.9,92.1z"/>
<path fill="none" d="M267.5,91.9c-0.2-0.2-0.3-0.4-0.3-0.4l5.9-3.4l12-0.1l6.1,3.5c0,0,0,0-0.1,0.1c3.8-1.9,7.2-4.8,10.1-8.6
	c5.8-7.4,9.5-17.8,10.7-29.9c-1.2-0.5-2.6-1.5-3.5-3.1l-2,1v3.5c0,2.8-2.6,5.1-5.9,5.1h-12.2c-3.2,0-5.9-2.3-5.9-5.1v-5h-6.3v5
	c0,2.8-2.6,5.1-5.9,5.1H258c-3.2,0-5.9-2.3-5.9-5.1v-3.4l-2.4-1.2c-0.9,1.7-2.3,2.6-3.6,3.2c1.1,11.8,4.9,22.4,10.7,29.8
	C259.9,86.9,263.5,89.9,267.5,91.9z"/>
<path fill="none" d="M288.3,47.6c-1.3,0-2.4,0.8-2.4,1.6v5.3c0,0.9,1.1,1.6,2.4,1.6h12.2c1.3,0,2.4-0.8,2.4-1.6v-5.3
	c0-0.9-1.1-1.6-2.4-1.6H288.3z"/>
<path fill="none" d="M258,47.6c-1.3,0-2.4,0.8-2.4,1.6v5.3c0,0.9,1.1,1.6,2.4,1.6h12.2c1.3,0,2.4-0.8,2.4-1.6v-5.3
	c0-0.9-1.1-1.6-2.4-1.6H258z"/>
<path fill="#FFFFFF" d="M310.1,101.3l-0.3,0.1c0.1,0.1,0.2,0.1,0.4,0.2L310.1,101.3z"/>
<path fill="#555555" d="M355.6,137.5c0-0.3-0.1-6.8-4.7-14.2c-7.5-12.2-21.1-16.9-31.1-18.7c-3.9-0.7-7.1-1.7-9.7-3
	c-0.1-0.1-0.2-0.1-0.4-0.2c-6.2-3-8.7-7.1-9.7-10.6c-0.1-0.4-0.4-1.2-0.4-1.2c1.6-1.4,2.7-2.8,4.1-4.5c6.2-8,10.1-18.9,11.4-31.7
	c1.6-15.6-1.3-28-8.4-35.8c-6.3-6.9-15.6-10.4-27.9-10.4c-11.9,0-21.2,3.5-27.5,10.4c-7.3,8-10.3,20.4-8.8,35.8
	c1.4,15,6.3,26.8,14,34.6c0,0-0.1,0.9-0.1,1.3c-1,5.4-5.4,12.2-20.1,15.2c-7.4,1.5-12.5,4.2-12.5,4.2c4.7,1.1,10.7,3.8,14.3,6.3
	l0.9,0.6c5.4,3.7,12.2,12.2,14.9,22.7c0.1,0.3,0.1,0.5,0.1,0.8l99.4-0.1c0.2,0,0.3,0.1,0.5,0.1c0,0,0,0,0,0c0.2,0,0.3,0,0.5-0.1
	l0.5,0c0,0,0-0.1,0-0.2C355.3,138.6,355.6,138.1,355.6,137.5z M250.5,46.4c0-5.5,0.2-17,0.3-22.1c0.9-1.6,2-3,3.2-4.4
	c2.2-2.5,4.9-4.4,8-5.9c1.1,1,7.6,6,17,6c9.5,0,16-5.1,17.1-6c3.2,1.5,5.9,3.5,8.1,5.9c1.1,1.2,2,2.5,2.9,3.9
	c0.1,4.8,0.3,16.9,0.3,22.5c0,0.1,0,0.1,0,0.2l-1.6,0.8c-0.9-1.9-3-3.2-5.5-3.2h-12.2c-1.8,0-3.5,0.7-4.6,1.9h-9
	c-1.1-1.2-2.7-1.9-4.6-1.9H258c-2.5,0-4.7,1.4-5.5,3.3l-1.9-1C250.5,46.5,250.5,46.4,250.5,46.4z M302.9,49.3v5.3
	c0,0.9-1.1,1.6-2.4,1.6h-12.2c-1.3,0-2.4-0.8-2.4-1.6v-5.3c0-0.9,1.1-1.6,2.4-1.6h12.2C301.8,47.6,302.9,48.4,302.9,49.3z
	 M272.6,49.3v5.3c0,0.9-1.1,1.6-2.4,1.6H258c-1.3,0-2.4-0.8-2.4-1.6v-5.3c0-0.9,1.1-1.6,2.4-1.6h12.2
	C271.5,47.6,272.6,48.4,272.6,49.3z M256.8,82.9c-5.7-7.4-9.5-18-10.7-29.8c1.3-0.5,2.7-1.5,3.6-3.2l2.4,1.2v3.4
	c0,2.8,2.6,5.1,5.9,5.1h12.2c3.2,0,5.9-2.3,5.9-5.1v-5h6.3v5c0,2.8,2.6,5.1,5.9,5.1h12.2c3.2,0,5.9-2.3,5.9-5.1v-3.5l2-1
	c0.9,1.6,2.2,2.6,3.5,3.1c-1.2,12.1-5,22.4-10.7,29.9c-2.9,3.8-6.4,6.7-10.1,8.6c0.1-0.1,0.1-0.1,0.1-0.1L285,88l-12,0.1l-5.9,3.4
	c0,0,0.1,0.1,0.3,0.4C263.5,89.9,259.9,86.9,256.8,82.9z M265.8,115.6H246l3.1-8.5l0.4-1.1l20.9,9.6H265.8z M281.8,129.8
	c0,1.4-1.2,2.6-2.6,2.6c-1.4,0-2.6-1.2-2.6-2.6v-9.7c0-0.4,0.1-0.7,0.2-1c0.4-0.9,1.3-1.6,2.4-1.6s2,0.6,2.4,1.6
	c0.1,0.3,0.2,0.7,0.2,1V129.8z M278.8,115.7l-27.9-12.8c1.3-0.8,2.4-1.7,3.4-2.7c2.7-2.6,4.5-5.7,5.4-9.2c5.5,4.5,12.1,7.1,19.3,7.1
	c6.6,0,12.6-2,17.9-5.9c1.1,3.6,3.6,7.8,9,11.1L278.8,115.7L278.8,115.7z M289.8,115.6h-2.7l18.2-8.4l2.7-1.2l3.5,9.6H289.8z"/>
<path fill="#555555" d="M79.2,127.4c-9,0-17.5,1.5-23.8,4.1c-5.2,2.2-8.4,5-8.7,7.7l56.1,0c0,0,1.3-4.9,2.2-6.8
	c-0.6-0.3-1.3-0.6-2-0.9C96.7,128.9,88.3,127.4,79.2,127.4z"/>
<path fill="#555555" d="M89.8,80.9c0,2.8-4.9,5.1-10.9,5.1S68,83.7,68,80.9l-5-0.6c-0.4,1.6-0.9,2.9-2.5,3.3c-1,0.3-1.9,0.4-2.7,0.4
	c-0.3-0.4-0.6-0.8-0.9-1.2c-5.7-7.4-9.5-18-10.7-29.8c-0.4-4-0.4-7.8-0.2-11.3c-1.9,1.4-3,2.3-3,2.4c-0.2,0.1-0.4,0.3-0.5,0.4
	c0,0.6,0,1.2,0,1.8l-0.1-0.3c0.4,4.3-3,13.1-3,13.1l4.5,1.7l-1.5,9.4l3.4-1.7c2.6,8.1,6.1,14.6,11,19.6c0,0,0,0.8-0.1,1.1
	c-1,5.4-5.3,12.5-20.1,15.2c-10,1.8-23.7,6.5-31.4,18.7c-4.7,7.4-5,13.9-5,14.2c0,0.7,0.4,1.4,1.1,1.7c0,0.1,0,0.1,0,0.1l0.6,0
	c0,0,0,0,0,0c0,0,0.1,0,0.1,0c0,0,0,0,0,0l39.8,0c0.2-4.9,4.4-9.3,11.9-12.5c6.9-2.9,16.1-4.5,25.8-4.5c9.7,0,18.9,1.6,25.8,4.5
	c0.9,0.4,1.7,0.7,2.4,1.1c3.6-5.7,8-9.5,9.8-11.2c4-3.5,10.7-7.2,16.7-8.2c0,0-6.8-2.8-14.1-4c-13.8-2.1-18.3-8.8-19.8-13.7
	c-0.1-0.4-0.2-1-0.2-1c1.6-1.4,2.6-2.9,4-4.7c3.6-4.6,6.4-10.2,8.4-16.6l3.6,1.8l-1.5-9.4l4.5-1.7c0,0-3.4-8.8-3-13.1l-0.1,0.7
	c0-0.7,0-1.3,0-2c-0.3-0.1-0.6-0.3-0.9-0.5c0,0-1-0.8-2.7-2c0.2,3.4,0.1,7-0.3,10.8c-1.2,12.1-5,22.5-10.7,29.9
	c-0.1,0.1-0.2,0.3-0.3,0.4c-0.8,0.1-1.8,0.2-2.9,0.2c-2.2,0-2.9-1.7-3.4-3.4L89.8,80.9z M77.7,117.4c-14.9,0-26.8-8.6-31.1-12.2
	c3.1-1.3,5.7-3,7.8-5c2.7-2.6,4.5-5.7,5.4-9.2c5.5,4.5,12.1,7.1,19.3,7.1c6.6,0,12.6-2,17.9-5.9c1.3,4.1,4.3,9,11.4,12.4
	C105.5,107.5,94.9,117.4,77.7,117.4z"/>
<path fill="#555555" d="M47.3,40.9c7.5-2.1,17.6-3.6,31.6-3.6c13,0,25.3,2,32.6,4C103.5,36.8,91.7,31,78.9,31
	C66.4,31,54.9,36.3,47.3,40.9z"/>
<path fill="#555555" d="M103.1,31c0.1-2.8-0.1-8.3-1.9-15.1C98.4,5.4,91.2,1.8,86.7,0.5c-3.9-0.7-10.4-0.6-13.2-0.3
	c-4.3,0.9-12.7,4-15.8,15.7c-1.6,6.1-1.9,11.2-1.9,14.2c6.2-2.8,13.8-5.1,22-5.1C87.3,25,96.1,27.8,103.1,31z"/>
<path fill="#555555" d="M108.1,33.6C108.1,33.6,108.1,33.6,108.1,33.6c3.1,1.7,5.5,3.3,7.3,4.6c-0.1-1.1-0.3-2.2-0.5-3.2
	c-0.4-4.7-2-11.8-7.3-20.5c-0.9-1.4-1.8-2.7-2.8-3.8c0.5,1.2,1,2.6,1.4,4C109.1,25.4,108.2,33.2,108.1,33.6z"/>
<path fill="#555555" d="M50.7,32.7c-0.2-2.3-0.4-9.2,2-18.1c0.6-2.3,1.4-4.4,2.4-6.2c-1.7,1.7-3.4,3.6-4.8,6
	c-6.5,10.7-7.5,18.9-7.4,23.3C44.7,36.3,47.4,34.5,50.7,32.7z"/>
<path fill="#555555" d="M62.8,81.2c0,0-0.7,4-5.2,0.7c-3.9-2.8-8.3-13.9-8.3-13.9l2.2,9.7L61,88.5L62.8,81.2z"/>
<path fill="#555555" d="M94.9,81.2c0,0,0.7,4,5.4,0.7c4.1-2.8,8.6-13.9,8.6-13.9l-2.3,9.7l-9.9,10.8L94.9,81.2z"/>
</svg>
