<svg xmlns="http://www.w3.org/2000/svg" width="366" height="144" viewBox="-5.3 -4.3 366 144" style="enable-background:new -5.3 -4.3 366 144">
 <g style="fill:#555555">
  <path d="M248 137c-2.6-8-6.9-14.5-14.5-19.8-3.7-2.5-8.6-4.3-13.3-6-.6-.2-1.2-.4-1.8-.7L213 52v.1c-1.7-27-13.6-41-34.8-41-12.2 0-21.3 4.6-27 13.6-4.7 7.3-7.4 17.6-7.8 30.7l-4.6 56c-.7.3-1.4.5-2.2.8-4.7 1.7-9.6 3.4-13.3 6-7.6 5.3-11.8 11.7-14.6 19.5-.5 1.5-.6 2.3-.6 2.3.1 0 2.3.1 2.5.1 0 0 0 0 0 0l0 0H246c0 0 0 0 0 0v0c.1 0 2.3-.1 2.3-.1S248 138 248 137M148 45.5c1.6 4.2 6.2 9.2 19 9.2 30 0 33 12.5 33 12.5s8-6.5 9.5-18.6c.3 3.2.5 6.7.5 10.3 0 10.3-3.9 18.5-7.7 24-.3.2-.5.5-.6.9 0 0 0 0 0 0-1.2 1.6-2.3 3-3.3 4.1-6.2 6.8-14.2 11.3-19.9 11.3-10.8 0-31.6-17-31.6-40C147 54 147 49.6 148 45.5M179 135c-19 0-33-15.7-37.7-21.8 4.6-1.7 8.7-3.5 10.9-6.1 4.5-5.4 5-12 4.6-17 7.2 7.8 16 12.3 22 12.3 6.6 0 15-4.7 22-11.9-.4 4.9.2 11.5 4.7 16.7 2.4 2.9 7 4.7 12 6.5C213 119 198 135 179 135"/>
  <path d="M179 89c6.1 0 11-4.8 11-4.8s-2.9-3.4-6.9-4c-1.3-.2-2.6 1.1-4.1 1.1-1.5 0-2.6-1.2-3.9-1-4 .6-7 4-7 4S173 89 179 89"/>
  <circle cx="168" cy="76" r="1.8"/>
 </g>
 <path d="M310 101h-.3c.1.1.2.1.4.2V101" style="fill:#ffffff"/>
 <g style="fill:#555555">
  <path d="M356 138c0-.3-.1-6.8-4.7-14.2-7.5-12.2-21-16.9-31-18.7-3.9-.7-7.1-1.7-9.7-3-.1-.1-.2-.1-.4-.2-6.2-3-8.7-7.1-9.7-10.6-.1-.4-.4-1.2-.4-1.2 1.6-1.4 2.7-2.8 4.1-4.5 6.2-8 10-18.9 11.4-31.7 1.6-15.6-1.3-28-8.4-35.8-6.3-6.9-15.6-10.4-27.9-10.4-11.9 0-21 3.5-27.5 10.4-7.3 8-10.3 20.4-8.8 35.8 1.4 15 6.3 26.8 14 34.6 0 0-.1.9-.1 1.3-1 5.4-5.4 12.2-20 15.2-7.4 1.5-12.5 4.2-12.5 4.2 4.7 1.1 10.7 3.8 14.3 6.3l.9.6c5.4 3.7 12.2 12.2 14.9 22.7.1.3.1.5.1.8h99c.2 0 .3.1.5.1 0 0 0 0 0 0 .2 0 .3 0 .5-.1h.5c0 0 0-.1 0-.2C355 139 356 138 356 138M251 46c0-5.5.2-17 .3-22 .9-1.6 2-3 3.2-4.4 2.2-2.5 4.9-4.4 8-5.9 1.1 1 7.6 6 17 6 9.5 0 16-5.1 17-6 3.2 1.5 5.9 3.5 8.1 5.9 1.1 1.2 2 2.5 2.9 3.9.1 4.8.3 16.9.3 22.5 0 .1 0 .1 0 .2l-1.6.8c-.9-1.9-3-3.2-5.5-3.2h-12.2c-1.8 0-3.5.7-4.6 1.9h-9c-1.1-1.2-2.7-1.9-4.6-1.9H258c-2.5 0-4.7 1.4-5.5 3.3l-1.9-1C251 47 251 46 251 46M303 49v5.3c0 .9-1.1 1.6-2.4 1.6h-12.2c-1.3 0-2.4-.8-2.4-1.6v-5.3c0-.9 1.1-1.6 2.4-1.6h12.2C302 47.6 303 48 303 49M273 49v5.3c0 .9-1.1 1.6-2.4 1.6H258c-1.3 0-2.4-.8-2.4-1.6v-5.3c0-.9 1.1-1.6 2.4-1.6h12.2C272 47.6 273 48 273 49M257 83c-5.7-7.4-9.5-18-10.7-29.8 1.3-.5 2.7-1.5 3.6-3.2l2.4 1.2v3.4c0 2.8 2.6 5.1 5.9 5.1h12.2c3.2 0 5.9-2.3 5.9-5.1v-5h6.3v5c0 2.8 2.6 5.1 5.9 5.1h12.2c3.2 0 5.9-2.3 5.9-5.1v-3.5l2-1c.9 1.6 2.2 2.6 3.5 3.1-1.2 12-5 22.4-10.7 29.9-2.9 3.8-6.4 6.7-10 8.6.1-.1.1-.1.1-.1L285 88h-12l-5.9 3.4c0 0 .1.1.3.4C264 90 260 87 257 83M266 116H246l3.1-8.5.4-1.1 20.9 9.6H266M282 130c0 1.4-1.2 2.6-2.6 2.6-1.4 0-2.6-1.2-2.6-2.6v-9.7c0-.4.1-.7.2-1 .4-.9 1.3-1.6 2.4-1.6s2 .6 2.4 1.6c.1.3.2.7.2 1V130M279 116l-27.9-12.8c1.3-.8 2.4-1.7 3.4-2.7 2.7-2.6 4.5-5.7 5.4-9.2 5.5 4.5 12 7.1 19.3 7.1 6.6 0 12.6-2 17.9-5.9 1.1 3.6 3.6 7.8 9 11L279 116 279 116M290 116h-2.7l18.2-8.4 2.7-1.2 3.5 9.6H290"/>
  <path d="M79 127c-9 0-17.5 1.5-23.8 4.1-5.2 2.2-8.4 5-8.7 7.7h56c0 0 1.3-4.9 2.2-6.8-.6-.3-1.3-.6-2-.9C97 129 88 127 79 127"/>
  <path d="M90 80.9c0 2.8-4.9 5.1-10.9 5.1S68 84 68 80.9l-5-.6c-.4 1.6-.9 2.9-2.5 3.3-1 .3-1.9.4-2.7.4-.3-.4-.6-.8-.9-1.2-5.7-7.4-9.5-18-10.7-29.8-.4-4-.4-7.8-.2-11.3-1.9 1.4-3 2.3-3 2.4-.2.1-.4.3-.5.4 0 .6 0 1.2 0 1.8l-.1-.3c.4 4.3-3 13-3 13l4.5 1.7-1.5 9.4 3.4-1.7c2.6 8.1 6.1 14.6 11 19.6 0 0 0 .8-.1 1.1-1 5.4-5.3 12.5-20 15.2-10 1.8-23.7 6.5-31.4 18.7-4.7 7.4-5 13.9-5 14.2 0 .7.4 1.4 1.1 1.7 0 .1 0 .1 0 .1h.6c0 0 0 0 0 0h.1c0 0 0 0 0 0h39.8c.2-4.9 4.4-9.3 11.9-12.5 6.9-2.9 16-4.5 25.8-4.5 9.7 0 18.9 1.6 25.8 4.5.9.4 1.7.7 2.4 1.1 3.6-5.7 8-9.5 9.8-11.2 4-3.5 10.7-7.2 16.7-8.2 0 0-6.8-2.8-14-4-13.8-2.1-18.3-8.8-19.8-13.7-.1-.4-.2-1-.2-1 1.6-1.4 2.6-2.9 4-4.7 3.6-4.6 6.4-10.2 8.4-16.6l3.6 1.8-1.5-9.4 4.5-1.7c0 0-3.4-8.8-3-13v.7c0-.7 0-1.3 0-2-.3-.1-.6-.3-.9-.5 0 0-1-.8-2.7-2 .2 3.4.1 7-.3 10.8-1.2 12-5 22.5-10.7 29.9-.1.1-.2.3-.3.4-.8.1-1.8.2-2.9.2-2.2 0-2.9-1.7-3.4-3.4L90 80.9M78 117c-14.9 0-26.8-8.6-31-12.2 3.1-1.3 5.7-3 7.8-5 2.7-2.6 4.5-5.7 5.4-9.2 5.5 4.5 12 7.1 19.3 7.1 6.6 0 12.6-2 17.9-5.9 1.3 4.1 4.3 9 11.4 12.4C106 108 95 117 78 117"/>
  <path d="M47 40.9c7.5-2.1 17.6-3.6 31.6-3.6 13 0 25.3 2 32.6 4C104 36.8 92 31 78.9 31 66 31 54.9 36 47 40.9"/>
  <path d="M103 31c.1-2.8-.1-8.3-1.9-15C98 5.4 91 1.8 87 .5c-3.9-.7-10.4-.6-13.2-.3-4.3.9-12.7 4-15.8 15.7-1.6 6.1-1.9 11.2-1.9 14.2 6.2-2.8 13.8-5.1 22-5.1C87 25 96 27.8 103 31"/>
  <path d="M108 33.6C108 33.6 108 33.6 108 33.6c3.1 1.7 5.5 3.3 7.3 4.6-.1-1.1-.3-2.2-.5-3.2-.4-4.7-2-11.8-7.3-20.5-.9-1.4-1.8-2.7-2.8-3.8.5 1.2 1 2.6 1.4 4C109 25.4 108 33 108 33.6"/>
  <path d="M50.7 32.7c-.2-2.3-.4-9.2 2-18 .6-2.3 1.4-4.4 2.4-6.2-1.7 1.7-3.4 3.6-4.8 6-6.5 10.7-7.5 18.9-7.4 23.3C44.7 36 47 34.5 50.7 32.7"/>
  <path d="M62.8 81c0 0-.7 4-5.2.7-3.9-2.8-8.3-13.9-8.3-13.9l2.2 9.7L61 89 62.8 81"/>
  <path d="M95 81c0 0 .7 4 5.4.7 4.1-2.8 8.6-13.9 8.6-13.9l-2.3 9.7-9.9 10.8L95 81"/>
 </g>
</svg>
