<svg xmlns="http://www.w3.org/2000/svg" width="22" height="14" viewBox="0 0 22 14" style="enable-background:new 0 0 22 14">
 <g>
  <g>
   <line x1="15.4" y1="12.9" x2="15.4" y2="1.2" style="fill:none;stroke-miterlimit:10;stroke:#686766"/>
   <g>
    <polygon points="17.073,10.865 15.378,12.562 13.683,10.865 13.683,12.305 15.378,14 17.073,12.305 			" style="fill:#686766"/>
   </g>
   <g>
    <polygon points="17.243,3.407 15.378,1.541 13.513,3.407 13.513,1.823 15.378,-0.042 17.243,1.823 			" style="fill:#686766"/>
   </g>
  </g>
 </g>
 <g>
  <path d="M.1 0h12l.1 3.6h-.5c-.2-1.1-.6-1.9-.9-2.2C10.4 1.1 9.6.9 8.4.9H7.2v10.9c0 .8.1 1.3.4 1.5.3.2.8.3 1.7.4v.4H3.1v-.4c.9-.1 1.5-.2 1.7-.4.2-.2.3-.8.3-1.7V.9H3.9c-1.2 0-2 .2-2.4.5-.4.3-.7 1.1-1 2.2H0L.1 0" style="fill:#686766"/>
 </g>
</svg>
