<?xml version="1.0" encoding="utf-8"?>
<!-- Generator: Adobe Illustrator 17.0.2, SVG Export Plug-In . SVG Version: 6.00 Build 0)  -->
<!DOCTYPE svg PUBLIC "-//W3C//DTD SVG 1.1//EN" "http://www.w3.org/Graphics/SVG/1.1/DTD/svg11.dtd">
<svg version="1.1" id="Ebene_1" xmlns="http://www.w3.org/2000/svg" xmlns:xlink="http://www.w3.org/1999/xlink" x="0px" y="0px"
	 width="22px" height="14px" viewBox="0 0 22 14" enable-background="new 0 0 22 14" xml:space="preserve">
<g>
	<g>
		<line fill="none" stroke="#686766" stroke-miterlimit="10" x1="15.378" y1="12.857" x2="15.378" y2="1.216"/>
		<g>
			<polygon fill="#686766" points="17.073,10.865 15.378,12.562 13.683,10.865 13.683,12.305 15.378,14 17.073,12.305 			"/>
		</g>
		<g>
			<polygon fill="#686766" points="17.243,3.407 15.378,1.541 13.513,3.407 13.513,1.823 15.378,-0.042 17.243,1.823 			"/>
		</g>
	</g>
</g>
<g>
	<path fill="#686766" d="M0.124,0h12.035l0.115,3.617h-0.51c-0.249-1.137-0.566-1.876-0.95-2.219
		C10.429,1.054,9.62,0.883,8.387,0.883H7.202v10.891c0,0.821,0.128,1.329,0.384,1.525c0.257,0.196,0.817,0.326,1.684,0.387v0.395
		H3.066v-0.395c0.9-0.068,1.461-0.217,1.684-0.444c0.221-0.228,0.333-0.799,0.333-1.717V0.883H3.886
		c-1.178,0-1.979,0.17-2.406,0.509c-0.425,0.34-0.747,1.081-0.961,2.224H0L0.124,0z"/>
</g>
</svg>
