<?xml version="1.0" encoding="utf-8"?>
<!-- Generator: Adobe Illustrator 17.0.2, SVG Export Plug-In . SVG Version: 6.00 Build 0)  -->
<!DOCTYPE svg PUBLIC "-//W3C//DTD SVG 1.1//EN" "http://www.w3.org/Graphics/SVG/1.1/DTD/svg11.dtd">
<svg version="1.1" id="Ebene_1" xmlns="http://www.w3.org/2000/svg" xmlns:xlink="http://www.w3.org/1999/xlink" x="0px" y="0px"
	 width="40px" height="44px" viewBox="0 0 40 44" enable-background="new 0 0 40 44" xml:space="preserve">
<path fill="none" stroke="#F3F2F2" stroke-width="2" stroke-miterlimit="10" d="M14.728,29.203"/>
<g>
	<path fill="#FFFFFF" d="M29.229,15.628L29.229,15.628c0.01,0.013,0.028,0.036,0.028,0.036S29.243,15.644,29.229,15.628z"/>
</g>
<path fill="#FFFFFF" d="M12.595,11.502c0.769,0,1.424-0.27,1.965-0.811c0.54-0.542,0.812-1.197,0.812-1.966
	c0-0.755-0.271-1.402-0.812-1.943C14.019,6.24,13.378,5.97,12.638,5.97s-1.402,0.27-1.985,0.812
	c-0.541,0.54-0.812,1.182-0.812,1.922c0,0.797,0.263,1.46,0.79,1.986C11.171,11.232,11.826,11.502,12.595,11.502z"/>
<path fill="#FFFFFF" d="M14.925,12.991h-4.638c-0.854,0-1.546,0.692-1.546,1.546v11.69h1.849v11.244h4.031V26.228h1.849v-11.69
	C16.47,13.683,15.778,12.991,14.925,12.991z"/>
<path fill="#FFFFFF" d="M25.222,11.502c0.769,0,1.424-0.27,1.965-0.811c0.54-0.542,0.812-1.197,0.812-1.966
	c0-0.755-0.271-1.402-0.812-1.943C26.645,6.24,26.005,5.97,25.264,5.97s-1.402,0.27-1.985,0.812
	c-0.541,0.54-0.812,1.182-0.812,1.922c0,0.797,0.263,1.46,0.79,1.986C23.797,11.232,24.452,11.502,25.222,11.502z"/>
<path fill="#FFFFFF" d="M27.551,12.991h-4.638c-0.854,0-1.546,0.692-1.546,1.546v11.69h1.849v11.244h4.031V26.228h1.849v-11.69
	C29.097,13.683,28.404,12.991,27.551,12.991z"/>
</svg>
