<svg xmlns="http://www.w3.org/2000/svg" width="46" height="25" viewBox="0 0 46 25" style="enable-background:new 0 0 46 25">
 <g style="fill:#ffffff">
  <path d="M43 4.4c.6 0 1.1-.2 1.5-.6.4-.4.6-1 .6-1.6 0-.6-.2-1.1-.6-1.5C44 .2 43.6 0 43 0c-.6 0-1.1.2-1.6.6-.4.4-.6.9-.6 1.5 0 .6.2 1.2.6 1.6C41.8 4.2 42 4.4 43 4.4"/>
  <path d="M46 6.8c0-.7-.5-1.2-1.2-1.2h-3.6c-.7 0-1.2.5-1.2 1.2v9.3h1.4V25h3.2v-8.9H46V6.8"/>
  <path d="M33 4.4c.6 0 1.1-.2 1.5-.6.4-.4.6-1 .6-1.6 0-.6-.2-1.1-.6-1.5C34 .2 33.6 0 33 0s-1.1.2-1.6.6C31 1.1 30.8 1.6 30.8 2.2c0 .6.2 1.2.6 1.6C31.9 4.2 32.4 4.4 33 4.4"/>
  <path d="M36 6.8c0-.7-.5-1.2-1.2-1.2H31c-.7 0-1.2.5-1.2 1.2v9.3h1.4V25h3.2v-8.9h1.4V6.8H36"/>
  <path d="M13 4.4c.6 0 1.1-.2 1.5-.6.4-.4.6-1 .6-1.6 0-.6-.2-1.1-.6-1.5C14 .2 13.6 0 13 0s-1.1.2-1.6.6c-.4.4-.6.9-.6 1.5 0 .6.2 1.2.6 1.6C11.9 4.2 12.4 4.4 13 4.4"/>
  <path d="M16 6.8c0-.7-.5-1.2-1.2-1.2h-3.6c-.7 0-1.2.5-1.2 1.2v9.3h1.4V25h3.2v-8.9h1.4V6.8H16"/>
  <path d="M3 4.4c.6 0 1.1-.2 1.5-.6.4-.4.6-1 .6-1.6 0-.6-.2-1.1-.6-1.5C4.1.2 3.6 0 3.1 0S2 .2 1.5.6C1.1 1.1.9 1.6.9 2.2c0 .6.2 1.2.6 1.6C1.9 4.2 2.4 4.4 3 4.4"/>
  <path d="M6 6.8c0-.7-.5-1.2-1.2-1.2H1.2C.5 5.6 0 6.1 0 6.8v9.3h1.4V25h3.2v-8.9h1.4V6.8L6 6.8"/>
 </g>
 <line x1="23" x2="23" y2="25" style="fill:none;stroke-miterlimit:10;stroke:#ffffff"/>
</svg>
