<?xml version="1.0" encoding="utf-8"?>
<!-- Generator: Adobe Illustrator 17.0.2, SVG Export Plug-In . SVG Version: 6.00 Build 0)  -->
<!DOCTYPE svg PUBLIC "-//W3C//DTD SVG 1.1//EN" "http://www.w3.org/Graphics/SVG/1.1/DTD/svg11.dtd">
<svg version="1.1" id="Ebene_1" xmlns="http://www.w3.org/2000/svg" xmlns:xlink="http://www.w3.org/1999/xlink" x="0px" y="0px"
	 width="21.057px" height="18.786px" viewBox="0 0 21.057 18.786" enable-background="new 0 0 21.057 18.786" xml:space="preserve">
<g>
	<g>
		<path fill="#FFFFFF" d="M269.562-87.421c0.822,0,1.523-0.289,2.102-0.867c0.578-0.58,0.868-1.281,0.868-2.102
			c0-0.807-0.29-1.5-0.868-2.078c-0.579-0.58-1.264-0.869-2.056-0.869s-1.5,0.289-2.124,0.869c-0.579,0.578-0.868,1.264-0.868,2.056
			c0,0.853,0.281,1.562,0.845,2.125C268.039-87.71,268.74-87.421,269.562-87.421z"/>
		<path fill="#FFFFFF" d="M273.708-84.174c0-0.913-0.74-1.654-1.654-1.654h-4.961c-0.913,0-1.654,0.74-1.654,1.654v12.505h1.978
			v12.027h4.312v-12.027h1.978L273.708-84.174L273.708-84.174z"/>
	</g>
	<g>
		<path fill="#FFFFFF" d="M282.437-87.421c0.822,0,1.523-0.289,2.102-0.867c0.578-0.58,0.868-1.281,0.868-2.102
			c0-0.807-0.29-1.5-0.868-2.078c-0.579-0.58-1.264-0.869-2.056-0.869s-1.5,0.289-2.124,0.869c-0.579,0.578-0.868,1.264-0.868,2.056
			c0,0.853,0.281,1.562,0.845,2.125C280.913-87.71,281.614-87.421,282.437-87.421z"/>
		<path fill="#FFFFFF" d="M286.582-84.174c0-0.913-0.74-1.654-1.654-1.654h-4.961c-0.913,0-1.654,0.74-1.654,1.654v12.505h1.978
			v12.027h4.312v-12.027h1.978L286.582-84.174L286.582-84.174z"/>
	</g>
</g>
<g>
	<path fill="#FFFFFF" d="M159.147-2.564L159.147-2.564c0.011,0.014,0.032,0.04,0.032,0.04S159.162-2.545,159.147-2.564z"/>
</g>
<g display="none">
	<path display="inline" fill="#FFFFFF" d="M79.559-25.089c0.854,0,1.582-0.3,2.183-0.901c0.6-0.602,0.902-1.33,0.902-2.184
		c0-0.839-0.301-1.558-0.902-2.159c-0.601-0.602-1.313-0.902-2.136-0.902s-1.558,0.3-2.206,0.902
		c-0.601,0.6-0.902,1.313-0.902,2.135c0,0.886,0.292,1.622,0.878,2.207C77.976-25.389,78.704-25.089,79.559-25.089z"/>
	<path display="inline" fill="#FFFFFF" d="M82.147-23.434h-5.153c-0.949,0-1.717,0.769-1.717,1.718v12.989h2.054V3.765h4.479V-8.728
		h2.055v-12.989C83.864-22.665,83.095-23.434,82.147-23.434z"/>
	<path display="inline" fill="#FFFFFF" d="M93.588-25.089c0.854,0,1.582-0.3,2.183-0.901c0.6-0.602,0.902-1.33,0.902-2.184
		c0-0.839-0.301-1.558-0.902-2.159c-0.601-0.602-1.313-0.902-2.136-0.902s-1.558,0.3-2.206,0.902
		c-0.601,0.6-0.902,1.313-0.902,2.135c0,0.886,0.292,1.622,0.878,2.207C92.005-25.389,92.733-25.089,93.588-25.089z"/>
	<path display="inline" fill="#FFFFFF" d="M96.176-23.434h-5.153c-0.949,0-1.718,0.769-1.718,1.718v12.989h2.054V3.765h4.479V-8.728
		h2.055v-12.989C97.894-22.665,97.124-23.434,96.176-23.434z"/>
</g>
<g display="none">
	<path display="inline" fill="#FFFFFF" d="M74.053-27.351h25.912l0.246,7.787h-1.096c-0.537-2.446-1.22-4.039-2.047-4.777
		c-0.828-0.738-2.57-1.108-5.225-1.108h-2.551v23.45c0,1.765,0.276,2.86,0.828,3.283s1.76,0.701,3.625,0.834v0.85h-13.36v-0.85
		c1.939-0.148,3.148-0.467,3.625-0.957s0.716-1.723,0.716-3.697v-22.913h-2.573c-2.536,0-4.263,0.365-5.18,1.096
		s-1.607,2.327-2.07,4.789h-1.119L74.053-27.351z"/>
</g>
<path display="none" fill="#FFFFFF" d="M89.775,3.563v-5.477c0,0,0-7.54,7.801-7.54v-1.249H76.773v1.25c0,0,7.801-0.906,7.801,7.507
	c0,0,0,4.482,0,5.492c0,1.692,1.644,1.971,2.75,1.971C87.325,5.516,89.775,5.772,89.775,3.563z M86.045,3.8
	c-0.656-0.591-0.656-1.55,0-2.141c0.655-0.591,1.719-0.591,2.374,0s0.655,1.55,0,2.141C87.763,4.391,86.7,4.391,86.045,3.8z"/>
<g display="none">
	<path display="inline" fill="#FFFFFF" d="M97.576-18.227L97.576-18.227c0.01,0.013,0.03,0.038,0.03,0.038
		S97.591-18.21,97.576-18.227z"/>
	<path display="inline" fill="#FFFFFF" d="M97.606-18.506v-10.97H76.803v0.317v0.36h-0.03v2.2v0.82v3.125v5.568v0.513v0.492v3.694
		h20.803v-3.418v-1.281L97.606-18.506z M96.521-21.181c-1.699-1.482-4.4-3.235-7.662-3.235c-1.093,0-2.182,0.201-3.237,0.598
		c-1.805,0.678-3.36,1.022-4.623,1.022c-2.477,0-3.016-1.335-3.111-1.667v-3.926h18.634L96.521-21.181L96.521-21.181z"/>
</g>
<g>
	<polygon fill="#FFFFFF" points="12.682,0 12.682,7.013 9.413,7.013 15.269,12.426 21.057,7.025 17.911,7.013 17.911,0 	"/>
	<g>
		<path fill="#FFFFFF" d="M11.213,10.719H0v8.066h14.555v-5.069c-0.104-0.057-0.213-0.105-0.304-0.189L11.213,10.719z"/>
		<path fill="#FFFFFF" d="M8.195,7.865H6.331L3.908,5.56H1.125L0,6.402v2.615h9.371L8.395,8.115C8.315,8.04,8.256,7.952,8.195,7.865
			z"/>
	</g>
</g>
</svg>
