<?xml version="1.0" encoding="utf-8"?>
<!-- Generator: Adobe Illustrator 17.0.2, SVG Export Plug-In . SVG Version: 6.00 Build 0)  -->
<!DOCTYPE svg PUBLIC "-//W3C//DTD SVG 1.1//EN" "http://www.w3.org/Graphics/SVG/1.1/DTD/svg11.dtd">
<svg version="1.1" id="Ebene_1" xmlns="http://www.w3.org/2000/svg" xmlns:xlink="http://www.w3.org/1999/xlink" x="0px" y="0px"
	 width="27px" height="27px" viewBox="0 0 27 27" enable-background="new 0 0 27 27" xml:space="preserve">
<g>
	<path d="M13.461,5.714c0.59,0,1.093-0.206,1.509-0.618c0.415-0.413,0.623-0.912,0.623-1.497c0-0.575-0.208-1.068-0.623-1.48
		C14.555,1.706,14.063,1.5,13.494,1.5c-0.569,0-1.077,0.206-1.525,0.619c-0.416,0.412-0.623,0.901-0.623,1.464
		c0,0.607,0.202,1.112,0.607,1.514C12.367,5.508,12.871,5.714,13.461,5.714z"/>
	<path d="M16.518,19.513l-0.941-2.58h0.861V8.027c0-0.651-0.532-1.178-1.187-1.178h-3.562c-0.656,0-1.187,0.527-1.187,1.178v8.907
		h0.861l-0.88,2.58h1.439V25.5h3.096v-5.987H16.518z"/>
</g>
</svg>
