<?xml version="1.0" encoding="utf-8"?>
<!-- Generator: Adobe Illustrator 17.0.2, SVG Export Plug-In . SVG Version: 6.00 Build 0)  -->
<!DOCTYPE svg PUBLIC "-//W3C//DTD SVG 1.1//EN" "http://www.w3.org/Graphics/SVG/1.1/DTD/svg11.dtd">
<svg version="1.1" id="Ebene_1" xmlns="http://www.w3.org/2000/svg" xmlns:xlink="http://www.w3.org/1999/xlink" x="0px" y="0px"
	 width="40px" height="44px" viewBox="0 0 40 44" enable-background="new 0 0 40 44" xml:space="preserve">
<path fill="none" stroke="#F3F2F2" stroke-width="2" stroke-miterlimit="10" d="M13.404,28.617"/>
<g>
	<path fill="#FFFFFF" d="M29.516,13.534L29.516,13.534c0.011,0.014,0.031,0.04,0.031,0.04S29.531,13.552,29.516,13.534z"/>
</g>
<g display="none">
	<path display="inline" fill="#FFFFFF" d="M11.034,8.949c0.854,0,1.582-0.3,2.183-0.901c0.6-0.602,0.902-1.33,0.902-2.184
		c0-0.839-0.301-1.558-0.902-2.159c-0.601-0.602-1.313-0.902-2.136-0.902s-1.558,0.3-2.206,0.902
		c-0.601,0.6-0.902,1.313-0.902,2.135c0,0.886,0.292,1.622,0.878,2.207C9.451,8.649,10.179,8.949,11.034,8.949z"/>
	<path display="inline" fill="#FFFFFF" d="M13.622,10.604H8.469c-0.949,0-1.718,0.769-1.718,1.718v12.989h2.054v12.493h4.479V25.311
		h2.055V12.322C15.339,11.373,14.57,10.604,13.622,10.604z"/>
	<path display="inline" fill="#FFFFFF" d="M25.063,8.949c0.854,0,1.582-0.3,2.183-0.901c0.6-0.602,0.902-1.33,0.902-2.184
		c0-0.839-0.301-1.558-0.902-2.159c-0.601-0.602-1.313-0.902-2.136-0.902s-1.558,0.3-2.206,0.902
		c-0.601,0.6-0.902,1.313-0.902,2.135c0,0.886,0.292,1.622,0.878,2.207C23.48,8.649,24.208,8.949,25.063,8.949z"/>
	<path display="inline" fill="#FFFFFF" d="M27.651,10.604h-5.153c-0.949,0-1.718,0.769-1.718,1.718v12.989h2.054v12.493h4.479
		V25.311h2.055V12.322C29.369,11.373,28.599,10.604,27.651,10.604z"/>
</g>
<g>
	<path fill="#FFFFFF" d="M8.838,9.852h20.989l0.199,6.307h-0.888c-0.435-1.981-0.988-3.272-1.658-3.869
		c-0.671-0.598-2.082-0.897-4.232-0.897h-2.066v18.995c0,1.43,0.224,2.317,0.671,2.659c0.447,0.343,1.426,0.568,2.936,0.676v0.688
		H13.967v-0.688c1.571-0.12,2.55-0.378,2.936-0.775c0.386-0.397,0.58-1.396,0.58-2.995v-18.56h-2.084
		c-2.054,0-3.453,0.296-4.196,0.888s-1.302,1.885-1.677,3.879H8.62L8.838,9.852z"/>
</g>
</svg>
