<svg xmlns="http://www.w3.org/2000/svg" width="40" height="44" viewBox="0 0 40 44" style="enable-background:new 0 0 40 44">
 <g>
  <path d="M30.4 13.9L30.4 13.9c0 0 0 0 0 0S30.4 13.9 30.4 13.9" style="fill:#ffffff"/>
 </g>
 <g>
  <g style="fill:#ffffff">
   <path d="M13.5 11c.6 0 1.1-.2 1.6-.7.4-.4.7-1 .7-1.6 0-.6-.2-1.1-.7-1.6-.4-.4-1-.7-1.5-.7-.6 0-1.1.2-1.6.7-.4.4-.7 1-.7 1.5 0 .6.2 1.2.6 1.6C12.4 10.8 12.9 11 13.5 11"/>
   <path d="M16.6 13.4c0-.7-.6-1.2-1.2-1.2h-3.7c-.7 0-1.2.6-1.2 1.2v9.4h1.5v9h3.2v-9h1.5V13.4"/>
   <path d="M24 11c.6 0 1.1-.2 1.6-.7.4-.4.7-1 .7-1.6 0-.6-.2-1.1-.7-1.6-.4-.4-1-.7-1.5-.7-.6 0-1.1.2-1.6.7C22 7.6 21.9 8.1 21.9 8.7c0 .6.2 1.2.6 1.6C23 10.8 23.5 11 24 11"/>
   <path d="M27 13.4c0-.7-.6-1.2-1.2-1.2H22.3c-.7 0-1.2.6-1.2 1.2v9.4h1.5v9h3.2v-9h1.5V13.4"/>
  </g>
  <g>
   <g style="fill:#ffffff">
    <rect x="8.3" y="34" width="20.5" height="1.5"/>
    <path d="M28.9 35.6H8.2v-1.7h20.7V35.6L28.9 35.6M8.4 35h20.3v-1.2H8.4V35"/>
   </g>
   <g>
    <g style="fill:#ffffff">
     <rect x="7.9" y="32.4" width=".7" height="4.8"/>
     <path d="M8.7 37H7.8v-5h1V37M8 37h.5v-4.5H8V37"/>
    </g>
   </g>
   <g>
    <g style="fill:#ffffff">
     <rect x="28.4" y="32.4" width=".7" height="4.8"/>
     <path d="M29 37h-1v-5h1V37M28.5 37h.5v-4.5h-.5V37"/>
    </g>
   </g>
  </g>
 </g>
</svg>
