<svg xmlns="http://www.w3.org/2000/svg" width="40" height="44" viewBox="0 0 40 44" style="enable-background:new 0 0 40 44">
 <g style="fill:#ffffff">
  <rect x="12.5" y="20.8" width="18.6" height="1"/>
  <rect x="12.5" y="27" width="18.6" height="1"/>
  <rect x="22.5" y="15.3" width="1" height="18.4"/>
  <polygon points="12.488,15.783 7.493,15.783 7.493,20.819 12.488,20.819 12.488,21.818 7.493,21.818 7.493,27.162 
			12.488,27.162 12.488,28.161 7.493,28.161 7.493,33.688 12.488,33.688 		"/>
  <rect x="13" y="10.3" width="9.5" height="5"/>
  <polygon points="23.517,15.273 23.517,10.288 31.103,10.288 31.103,15.283 		"/>
  <polygon points="7.493,10.288 7.493,14.075 7.493,14.784 11.988,14.784 11.988,14.075 11.988,10.288 		"/>
 </g>
 <g>
  <path d="M31 12.2L31 12.2c0 0 0 0 0 0S31 12.2 31 12.2" style="fill:#ffffff"/>
 </g>
</svg>
