<svg xmlns="http://www.w3.org/2000/svg" width="40" height="44" viewBox="0 0 40 44" style="enable-background:new 0 0 40 44">
 <g>
  <path d="M28.9 15.6L28.9 15.6c0 0 0 0 0 0S29 15.6 28.9 15.6" style="fill:#ffffff"/>
 </g>
 <g style="fill:#ffffff">
  <path d="M12.6 11.5c.8 0 1.4-.3 2-.8.5-.5.8-1.2.8-2 0-.8-.3-1.4-.8-1.9C14 6.2 13.4 6 12.6 6s-1.4.3-2 .8c-.5.5-.8 1.2-.8 1.9 0 .8.3 1.5.8 2C11.2 11.2 11.8 11.5 12.6 11.5"/>
  <path d="M25 11.5c.8 0 1.4-.3 2-.8.5-.5.8-1.2.8-2 0-.8-.3-1.4-.8-1.9C26.6 6.2 26 6 25 6s-1.4.3-2 .8c-.5.5-.8 1.2-.8 1.9 0 .8.3 1.5.8 2C23.8 11.2 24.5 11.5 25 11.5"/>
  <path d="M14.9 13h-4.6c-.9 0-1.5.7-1.5 1.5v11.7h1.8v11.2h4V26h1.9v-11.7C16.5 13.7 15.8 13 14.9 13M13.5 23.5l-.5-1.2c-.3-.5-.4-1-.5-1.3 0 .3-.2.7-.4 1.2L11.6 23.5H10.4l1.5-3.2-1.5-2.9h1.3l.5 1.2c.1.1.1.3.2.4s.1.3.1.5c0-.1.1-.3.1-.4s.1-.3.1-.4v-.2l.4-1.1h1.2L13 20.3l1.7 3.2H13.5"/>
  <path d="M27.6 13h-4.6c-.9 0-1.5.7-1.5 1.5v11.7h1.8v11.2h4V26h1.9v-11.7C29 13.7 28.4 13 27.6 13M26.3 23.5l-.5-1.2c-.3-.5-.4-1-.5-1.3 0 .3-.2.7-.4 1.2L24.4 23.5h-1.2l1.5-3.2-1.5-2.9h1.3l.5 1.2c.1.1.1.3.2.4s.1.3.1.5c0-.1.1-.3.1-.4s.1-.3.1-.4v-.2l.4-1.1h1.2L26 20.3l1.7 3.2H26.3"/>
 </g>
</svg>
