<svg xmlns="http://www.w3.org/2000/svg" width="21" height="19.3" viewBox="0 0 20.993 19.311" style="enable-background:new 0 0 20.993 19.311">
 <g>
  <g style="fill:#ffffff">
   <path d="M20.3 5.2h-3.6l2.5-2.5c.3-.3.3-.7 0-1s-.7-.3-1 0l-2.5 2.5V.7C15.8.3 15.5 0 15 0c-.4 0-.7.3-.7.7v3.6L11.8 1.8c-.3-.3-.7-.3-1 0s-.3.7 0 1l2.5 2.5H9.7c-.4 0-.7.3-.7.7s.3.7.7.7h3.6l-2.5 2.6c-.3.3-.3.7 0 1 .1.1.3.2.5.2s.4-.1.5-.2l2.6-2.5v3.6c0 .4.3.7.7.7s.7-.3.7-.7V7.7l2.5 2.5c.1.1.3.2.5.2s.4-.1.5-.2c.3-.3.3-.8 0-1l-2.5-2.6h3.6c.4 0 .7-.3.7-.7C21 5.5 20.7 5.2 20.3 5.2"/>
   <path d="M12.8 11.4c-.8.7-2.3.7-3.2-.1-.1-.1-.2-.2-.2-.3H0v8.3h15v-5.8C13.8 13.5 12.9 12.6 12.8 11.4"/>
   <path d="M9.2 8.1H6.5L4 5.7H1.2L0 6.6v2.7h9c.1-.4.3-.8.5-1.1C9.4 8.1 9.3 8.1 9.2 8.1"/>
  </g>
 </g>
</svg>
