<svg xmlns="http://www.w3.org/2000/svg" width="970" height="970" viewBox="0.2 0.2 970 970" style="enable-background:new 0.2 0.2 970 970">
 <rect x="960" y=".2" width="10" height="10" style="fill:#999999"/>
 <rect x=".5" y=".2" width="959" height="10" style="fill:#b4b4b4;opacity:.7"/>
 <g style="fill:none;stroke-miterlimit:10;stroke:#ffffff;stroke-linecap:round;stroke-linejoin:round">
  <line x1="461" y1="9.9" x2="461" y2=".5"/>
  <line x1="422" y1="9.9" x2="422" y2=".5"/>
  <line x1="499" y1="10" x2="499" y2=".6"/>
  <line x1="537" y1="9.9" x2="537" y2=".5"/>
  <line x1="576" y1="10" x2="576" y2=".7"/>
  <line x1="614" y1="10" x2="614" y2=".7"/>
  <line x1="652" y1="10" x2="652" y2=".7"/>
  <line x1="691" y1="10" x2="691" y2=".7"/>
  <line x1="729" y1="10" x2="729" y2=".7"/>
  <line x1="767" y1="10" x2="767" y2=".7"/>
  <line x1="806" y1="10" x2="806" y2=".7"/>
  <line x1="844" y1="10" x2="844" y2=".7"/>
  <line x1="883" y1="10" x2="883" y2=".7"/>
  <line x1="921" y1="10" x2="921" y2=".7"/>
  <line x1="959" y1="10" x2="959" y2=".7"/>
  <line x1="429" y1=".5" x2="429" y2="4.1"/>
  <line x1="435" y1=".5" x2="435" y2="4.1"/>
  <line x1="442" y1=".5" x2="442" y2="4.1"/>
  <line x1="448" y1=".5" x2="448" y2="4.1"/>
  <line x1="454" y1=".5" x2="454" y2="4.1"/>
  <line x1="467" y1=".5" x2="467" y2="4.1"/>
  <line x1="474" y1=".5" x2="474" y2="4.1"/>
  <line x1="480" y1=".5" x2="480" y2="4.1"/>
  <line x1="486" y1=".5" x2="486" y2="4.1"/>
  <line x1="493" y1=".5" x2="493" y2="4.1"/>
  <line x1="505" y1=".5" x2="505" y2="4.1"/>
  <line x1="512" y1=".5" x2="512" y2="4.1"/>
  <line x1="518" y1=".5" x2="518" y2="4.1"/>
  <line x1="525" y1=".5" x2="525" y2="4.1"/>
  <line x1="531" y1=".5" x2="531" y2="4.1"/>
  <line x1="544" y1=".5" x2="544" y2="4.1"/>
  <line x1="550" y1=".5" x2="550" y2="4.1"/>
  <line x1="557" y1=".5" x2="557" y2="4.1"/>
  <line x1="563" y1=".5" x2="563" y2="4.1"/>
  <line x1="569" y1=".5" x2="569" y2="4.1"/>
  <line x1="582" y1=".5" x2="582" y2="4.1"/>
  <line x1="589" y1=".5" x2="589" y2="4.1"/>
  <line x1="595" y1=".5" x2="595" y2="4.1"/>
  <line x1="601" y1=".5" x2="601" y2="4.1"/>
  <line x1="608" y1=".5" x2="608" y2="4.1"/>
  <line x1="621" y1=".5" x2="621" y2="4.1"/>
  <line x1="627" y1=".5" x2="627" y2="4.1"/>
  <line x1="633" y1=".5" x2="633" y2="4.1"/>
  <line x1="640" y1=".5" x2="640" y2="4.1"/>
  <line x1="646" y1=".5" x2="646" y2="4.1"/>
  <line x1="659" y1=".5" x2="659" y2="4.1"/>
  <line x1="665" y1=".5" x2="665" y2="4.1"/>
  <line x1="672" y1=".5" x2="672" y2="4.1"/>
  <line x1="678" y1=".5" x2="678" y2="4.1"/>
  <line x1="684" y1=".5" x2="684" y2="4.1"/>
  <line x1="697" y1=".5" x2="697" y2="4.1"/>
  <line x1="704" y1=".5" x2="704" y2="4.1"/>
  <line x1="710" y1=".5" x2="710" y2="4.1"/>
  <line x1="716" y1=".5" x2="716" y2="4.1"/>
  <line x1="723" y1=".5" x2="723" y2="4.1"/>
  <line x1="736" y1=".5" x2="736" y2="4.1"/>
  <line x1="742" y1=".5" x2="742" y2="4.1"/>
  <line x1="748" y1=".5" x2="748" y2="4.1"/>
  <line x1="755" y1=".5" x2="755" y2="4.1"/>
  <line x1="761" y1=".5" x2="761" y2="4.1"/>
  <line x1="774" y1=".5" x2="774" y2="4.1"/>
  <line x1="780" y1=".5" x2="780" y2="4.1"/>
  <line x1="787" y1=".5" x2="787" y2="4.1"/>
  <line x1="793" y1=".5" x2="793" y2="4.1"/>
  <line x1="799" y1=".5" x2="799" y2="4.1"/>
  <line x1="812" y1=".5" x2="812" y2="4.1"/>
  <line x1="819" y1=".5" x2="819" y2="4.1"/>
  <line x1="825" y1=".5" x2="825" y2="4.1"/>
  <line x1="831" y1=".5" x2="831" y2="4.1"/>
  <line x1="838" y1=".5" x2="838" y2="4.1"/>
  <line x1="851" y1=".5" x2="851" y2="4.1"/>
  <line x1="857" y1=".5" x2="857" y2="4.1"/>
  <line x1="863" y1=".5" x2="863" y2="4.1"/>
  <line x1="870" y1=".5" x2="870" y2="4.1"/>
  <line x1="876" y1=".5" x2="876" y2="4.1"/>
  <line x1="889" y1=".5" x2="889" y2="4.1"/>
  <line x1="895" y1=".5" x2="895" y2="4.1"/>
  <line x1="902" y1=".5" x2="902" y2="4.1"/>
  <line x1="908" y1=".5" x2="908" y2="4.1"/>
  <line x1="914" y1=".5" x2="914" y2="4.1"/>
  <line x1="927" y1=".5" x2="927" y2="4.1"/>
  <line x1="934" y1=".5" x2="934" y2="4.1"/>
  <line x1="940" y1=".5" x2="940" y2="4.1"/>
  <line x1="946" y1=".5" x2="946" y2="4.1"/>
  <line x1="953" y1=".5" x2="953" y2="4.1"/>
  <line x1=".5" y1="9.9" x2=".5" y2=".5"/>
  <line x1="38.8" y1="10" x2="38.8" y2=".7"/>
  <line x1="77" y1="10" x2="77" y2=".7"/>
  <line x1="116" y1="10" x2="116" y2=".7"/>
  <line x1="154" y1="10" x2="154" y2=".7"/>
  <line x1="192" y1="10" x2="192" y2=".7"/>
  <line x1="231" y1="10" x2="231" y2=".7"/>
  <line x1="269" y1="10" x2="269" y2=".7"/>
  <line x1="307" y1="10" x2="307" y2=".7"/>
  <line x1="346" y1="10" x2="346" y2=".7"/>
  <line x1="384" y1="10" x2="384" y2=".7"/>
  <line x1="6.9" y1=".5" x2="6.9" y2="4.1"/>
  <line x1="13.3" y1=".5" x2="13.3" y2="4.1"/>
  <line x1="19.7" y1=".5" x2="19.7" y2="4.1"/>
  <line x1="26" y1=".5" x2="26" y2="4.1"/>
  <line x1="32.4" y1=".5" x2="32.4" y2="4.1"/>
  <line x1="45" y1=".5" x2="45" y2="4.1"/>
  <line x1="51.6" y1=".5" x2="51.6" y2="4.1"/>
  <line x1="58" y1=".5" x2="58" y2="4.1"/>
  <line x1="64" y1=".5" x2="64" y2="4.1"/>
  <line x1="70.8" y1=".5" x2="70.8" y2="4.1"/>
  <line x1="84" y1=".5" x2="84" y2="4.1"/>
  <line x1="90" y1=".5" x2="90" y2="4.1"/>
  <line x1="96" y1=".5" x2="96" y2="4.1"/>
  <line x1="103" y1=".5" x2="103" y2="4.1"/>
  <line x1="109" y1=".5" x2="109" y2="4.1"/>
  <line x1="122" y1=".5" x2="122" y2="4.1"/>
  <line x1="128" y1=".5" x2="128" y2="4.1"/>
  <line x1="135" y1=".5" x2="135" y2="4.1"/>
  <line x1="141" y1=".5" x2="141" y2="4.1"/>
  <line x1="148" y1=".5" x2="148" y2="4.1"/>
  <line x1="160" y1=".5" x2="160" y2="4.1"/>
  <line x1="167" y1=".5" x2="167" y2="4.1"/>
  <line x1="173" y1=".5" x2="173" y2="4.1"/>
  <line x1="179" y1=".5" x2="179" y2="4.1"/>
  <line x1="186" y1=".5" x2="186" y2="4.1"/>
  <line x1="199" y1=".5" x2="199" y2="4.1"/>
  <line x1="205" y1=".5" x2="205" y2="4.1"/>
  <line x1="211" y1=".5" x2="211" y2="4.1"/>
  <line x1="218" y1=".5" x2="218" y2="4.1"/>
  <line x1="224" y1=".5" x2="224" y2="4.1"/>
  <line x1="237" y1=".5" x2="237" y2="4.1"/>
  <line x1="243" y1=".5" x2="243" y2="4.1"/>
  <line x1="250" y1=".5" x2="250" y2="4.1"/>
  <line x1="256" y1=".5" x2="256" y2="4.1"/>
  <line x1="263" y1=".5" x2="263" y2="4.1"/>
  <line x1="275" y1=".5" x2="275" y2="4.1"/>
  <line x1="282" y1=".5" x2="282" y2="4.1"/>
  <line x1="288" y1=".5" x2="288" y2="4.1"/>
  <line x1="294" y1=".5" x2="294" y2="4.1"/>
  <line x1="301" y1=".5" x2="301" y2="4.1"/>
  <line x1="314" y1=".5" x2="314" y2="4.1"/>
  <line x1="320" y1=".5" x2="320" y2="4.1"/>
  <line x1="326" y1=".5" x2="326" y2="4.1"/>
  <line x1="333" y1=".5" x2="333" y2="4.1"/>
  <line x1="339" y1=".5" x2="339" y2="4.1"/>
  <line x1="352" y1=".5" x2="352" y2="4.1"/>
  <line x1="358" y1=".5" x2="358" y2="4.1"/>
  <line x1="365" y1=".5" x2="365" y2="4.1"/>
  <line x1="371" y1=".5" x2="371" y2="4.1"/>
  <line x1="378" y1=".5" x2="378" y2="4.1"/>
  <line x1="390" y1=".5" x2="390" y2="4.1"/>
  <line x1="397" y1=".5" x2="397" y2="4.1"/>
  <line x1="403" y1=".5" x2="403" y2="4.1"/>
  <line x1="410" y1=".5" x2="410" y2="4.1"/>
  <line x1="416" y1=".5" x2="416" y2="4.1"/>
 </g>
 <rect x="960" y="11.4" width="10" height="959" style="fill:#b4b4b4;opacity:.7"/>
 <g style="fill:none;stroke-miterlimit:10;stroke:#ffffff;stroke-linecap:round;stroke-linejoin:round">
  <line x1="961" y1="472" x2="970" y2="472"/>
  <line x1="961" y1="433" x2="970" y2="433"/>
  <line x1="960" y1="510" x2="970" y2="510"/>
  <line x1="961" y1="548" x2="970" y2="548"/>
  <line x1="960" y1="587" x2="970" y2="587"/>
  <line x1="960" y1="625" x2="970" y2="625"/>
  <line x1="960" y1="663" x2="970" y2="663"/>
  <line x1="960" y1="702" x2="970" y2="702"/>
  <line x1="960" y1="740" x2="970" y2="740"/>
  <line x1="960" y1="778" x2="970" y2="778"/>
  <line x1="960" y1="817" x2="970" y2="817"/>
  <line x1="960" y1="855" x2="970" y2="855"/>
  <line x1="960" y1="893" x2="970" y2="893"/>
  <line x1="960" y1="932" x2="970" y2="932"/>
  <line x1="960" y1="970" x2="970" y2="970"/>
  <line x1="970" y1="440" x2="966" y2="440"/>
  <line x1="970" y1="446" x2="966" y2="446"/>
  <line x1="970" y1="453" x2="966" y2="453"/>
  <line x1="970" y1="459" x2="966" y2="459"/>
  <line x1="970" y1="465" x2="966" y2="465"/>
  <line x1="970" y1="478" x2="966" y2="478"/>
  <line x1="970" y1="484" x2="966" y2="484"/>
  <line x1="970" y1="491" x2="966" y2="491"/>
  <line x1="970" y1="497" x2="966" y2="497"/>
  <line x1="970" y1="504" x2="966" y2="504"/>
  <line x1="970" y1="516" x2="966" y2="516"/>
  <line x1="970" y1="523" x2="966" y2="523"/>
  <line x1="970" y1="529" x2="966" y2="529"/>
  <line x1="970" y1="536" x2="966" y2="536"/>
  <line x1="970" y1="542" x2="966" y2="542"/>
  <line x1="970" y1="555" x2="966" y2="555"/>
  <line x1="970" y1="561" x2="966" y2="561"/>
  <line x1="970" y1="568" x2="966" y2="568"/>
  <line x1="970" y1="574" x2="966" y2="574"/>
  <line x1="970" y1="580" x2="966" y2="580"/>
  <line x1="970" y1="593" x2="966" y2="593"/>
  <line x1="970" y1="599" x2="966" y2="599"/>
  <line x1="970" y1="606" x2="966" y2="606"/>
  <line x1="970" y1="612" x2="966" y2="612"/>
  <line x1="970" y1="619" x2="966" y2="619"/>
  <line x1="970" y1="631" x2="966" y2="631"/>
  <line x1="970" y1="638" x2="966" y2="638"/>
  <line x1="970" y1="644" x2="966" y2="644"/>
  <line x1="970" y1="651" x2="966" y2="651"/>
  <line x1="970" y1="657" x2="966" y2="657"/>
  <line x1="970" y1="670" x2="966" y2="670"/>
  <line x1="970" y1="676" x2="966" y2="676"/>
  <line x1="970" y1="683" x2="966" y2="683"/>
  <line x1="970" y1="689" x2="966" y2="689"/>
  <line x1="970" y1="695" x2="966" y2="695"/>
  <line x1="970" y1="708" x2="966" y2="708"/>
  <line x1="970" y1="715" x2="966" y2="715"/>
  <line x1="970" y1="721" x2="966" y2="721"/>
  <line x1="970" y1="727" x2="966" y2="727"/>
  <line x1="970" y1="734" x2="966" y2="734"/>
  <line x1="970" y1="746" x2="966" y2="746"/>
  <line x1="970" y1="753" x2="966" y2="753"/>
  <line x1="970" y1="759" x2="966" y2="759"/>
  <line x1="970" y1="766" x2="966" y2="766"/>
  <line x1="970" y1="772" x2="966" y2="772"/>
  <line x1="970" y1="785" x2="966" y2="785"/>
  <line x1="970" y1="791" x2="966" y2="791"/>
  <line x1="970" y1="798" x2="966" y2="798"/>
  <line x1="970" y1="804" x2="966" y2="804"/>
  <line x1="970" y1="810" x2="966" y2="810"/>
  <line x1="970" y1="823" x2="966" y2="823"/>
  <line x1="970" y1="830" x2="966" y2="830"/>
  <line x1="970" y1="836" x2="966" y2="836"/>
  <line x1="970" y1="842" x2="966" y2="842"/>
  <line x1="970" y1="849" x2="966" y2="849"/>
  <line x1="970" y1="861" x2="966" y2="861"/>
  <line x1="970" y1="868" x2="966" y2="868"/>
  <line x1="970" y1="874" x2="966" y2="874"/>
  <line x1="970" y1="881" x2="966" y2="881"/>
  <line x1="970" y1="887" x2="966" y2="887"/>
  <line x1="970" y1="900" x2="966" y2="900"/>
  <line x1="970" y1="906" x2="966" y2="906"/>
  <line x1="970" y1="913" x2="966" y2="913"/>
  <line x1="970" y1="919" x2="966" y2="919"/>
  <line x1="970" y1="925" x2="966" y2="925"/>
  <line x1="970" y1="938" x2="966" y2="938"/>
  <line x1="970" y1="945" x2="966" y2="945"/>
  <line x1="970" y1="951" x2="966" y2="951"/>
  <line x1="970" y1="957" x2="966" y2="957"/>
  <line x1="970" y1="964" x2="966" y2="964"/>
  <line x1="960" y1="11.4" x2="970" y2="11.4"/>
  <line x1="961" y1="49.8" x2="970" y2="49.8"/>
  <line x1="961" y1="88" x2="970" y2="88"/>
  <line x1="961" y1="126" x2="970" y2="126"/>
  <line x1="961" y1="165" x2="970" y2="165"/>
  <line x1="961" y1="203" x2="970" y2="203"/>
  <line x1="961" y1="242" x2="970" y2="242"/>
  <line x1="961" y1="280" x2="970" y2="280"/>
  <line x1="961" y1="318" x2="970" y2="318"/>
  <line x1="961" y1="357" x2="970" y2="357"/>
  <line x1="961" y1="395" x2="970" y2="395"/>
  <line x1="970" y1="17.8" x2="967" y2="17.8"/>
  <line x1="970" y1="24" x2="967" y2="24"/>
  <line x1="970" y1="30.6" x2="967" y2="30.6"/>
  <line x1="970" y1="37" x2="967" y2="37"/>
  <line x1="970" y1="43" x2="967" y2="43"/>
  <line x1="970" y1="56" x2="967" y2="56"/>
  <line x1="970" y1="63" x2="967" y2="63"/>
  <line x1="970" y1="68.9" x2="967" y2="68.9"/>
  <line x1="970" y1="75" x2="967" y2="75"/>
  <line x1="970" y1="82" x2="967" y2="82"/>
  <line x1="970" y1="95" x2="967" y2="95"/>
  <line x1="970" y1="101" x2="967" y2="101"/>
  <line x1="970" y1="107" x2="967" y2="107"/>
  <line x1="970" y1="114" x2="967" y2="114"/>
  <line x1="970" y1="120" x2="967" y2="120"/>
  <line x1="970" y1="133" x2="967" y2="133"/>
  <line x1="970" y1="139" x2="967" y2="139"/>
  <line x1="970" y1="146" x2="967" y2="146"/>
  <line x1="970" y1="152" x2="967" y2="152"/>
  <line x1="970" y1="158" x2="967" y2="158"/>
  <line x1="970" y1="171" x2="967" y2="171"/>
  <line x1="970" y1="178" x2="967" y2="178"/>
  <line x1="970" y1="184" x2="967" y2="184"/>
  <line x1="970" y1="190" x2="967" y2="190"/>
  <line x1="970" y1="197" x2="967" y2="197"/>
  <line x1="970" y1="210" x2="967" y2="210"/>
  <line x1="970" y1="216" x2="967" y2="216"/>
  <line x1="970" y1="222" x2="967" y2="222"/>
  <line x1="970" y1="229" x2="967" y2="229"/>
  <line x1="970" y1="235" x2="967" y2="235"/>
  <line x1="970" y1="248" x2="967" y2="248"/>
  <line x1="970" y1="254" x2="967" y2="254"/>
  <line x1="970" y1="261" x2="967" y2="261"/>
  <line x1="970" y1="267" x2="967" y2="267"/>
  <line x1="970" y1="273" x2="967" y2="273"/>
  <line x1="970" y1="286" x2="967" y2="286"/>
  <line x1="970" y1="293" x2="967" y2="293"/>
  <line x1="970" y1="299" x2="967" y2="299"/>
  <line x1="970" y1="305" x2="967" y2="305"/>
  <line x1="970" y1="312" x2="967" y2="312"/>
  <line x1="970" y1="325" x2="967" y2="325"/>
  <line x1="970" y1="331" x2="967" y2="331"/>
  <line x1="970" y1="337" x2="967" y2="337"/>
  <line x1="970" y1="344" x2="967" y2="344"/>
  <line x1="970" y1="350" x2="967" y2="350"/>
  <line x1="970" y1="363" x2="967" y2="363"/>
  <line x1="970" y1="369" x2="967" y2="369"/>
  <line x1="970" y1="376" x2="967" y2="376"/>
  <line x1="970" y1="382" x2="967" y2="382"/>
  <line x1="970" y1="388" x2="967" y2="388"/>
  <line x1="970" y1="401" x2="967" y2="401"/>
  <line x1="970" y1="408" x2="967" y2="408"/>
  <line x1="970" y1="414" x2="967" y2="414"/>
  <line x1="970" y1="420" x2="967" y2="420"/>
  <line x1="970" y1="427" x2="967" y2="427"/>
 </g>
</svg>
