<svg xmlns="http://www.w3.org/2000/svg" width="40" height="44" viewBox="0 0 40 44" style="enable-background:new 0 0 40 44">
 <g style="fill:#ffffff">
  <path d="M7.4 11.1h4.4v19.5H9.3V13.4H7.4V11.1"/>
  <path d="M17.6 17.4c.4 0 .8.2 1.1.5.3.3.5.7.5 1.1 0 .4-.2.8-.5 1.1-.3.3-.7.5-1.1.5-.4 0-.8-.2-1.1-.5-.3-.3-.5-.7-.5-1.1 0-.4.2-.8.5-1.1C16.8 17.5 17 17.4 17.6 17.4M17.6 27.7c.4 0 .8.2 1.1.5.3.3.5.7.5 1.1 0 .4-.2.8-.5 1.1-.3.3-.7.4-1.1.4-.2 0-.4 0-.6-.1-.2-.1-.4-.2-.5-.3-.1-.1-.3-.3-.3-.5-.1-.2-.1-.4-.1-.6 0-.4.2-.8.5-1.1C16.8 27.8 17 27.7 17.6 27.7"/>
 </g>
 <g>
  <path d="M21.8 16.6h3.1l1.2 2.7c.1.3.3.6.4 1 .1.3.2.7.3 1.1.1-.3.2-.7.3-1 .1-.3.2-.6.3-.9l.2-.4 1-2.5h2.7l-3.2 6.6 3.8 7.4h-3.1l-1.2-2.7c-.6-1.3-1-2.3-1.1-3-.1.7-.4 1.6-.9 2.8l-1.3 2.9h-2.7l3.5-7.4L21.8 16.6" style="fill:#ffffff"/>
 </g>
</svg>
