<?xml version="1.0" encoding="utf-8"?>
<!-- Generator: Adobe Illustrator 17.0.0, SVG Export Plug-In . SVG Version: 6.00 Build 0)  -->
<!DOCTYPE svg PUBLIC "-//W3C//DTD SVG 1.1//EN" "http://www.w3.org/Graphics/SVG/1.1/DTD/svg11.dtd">
<svg version="1.1" id="Capa_1" xmlns="http://www.w3.org/2000/svg" xmlns:xlink="http://www.w3.org/1999/xlink" x="0px" y="0px"
	 width="64px" height="64px" viewBox="0 0 64 64" enable-background="new 0 0 64 64" xml:space="preserve">
<path fill-rule="evenodd" clip-rule="evenodd" d="M25.467,12.585c0,2.374,0,7.005,0,10.068c0,1.657-1.343,3.001-3,3.001H12.286
	c0,0-3.616,0.197-3.616,3.576v5.37c0,0-0.12,4.12,3.496,4.12h10.301c1.657,0,3,1.343,3,3v10.029c0,0,0,3.729,3.616,3.729h5.599
	c0,0,3.849-0.23,3.849-3.5v-10.24c0-1.657,1.343-3,3-3h9.948c0,0,3.852,0.062,3.852-3.674V29.23c0,0-0.117-3.558-3.731-3.558H41.65
	c-1.657,0-3-1.343-3-3v-7.16c0-1.657-0.146-4.393-1.192-5.595c-0.564-0.646-1.378-1.16-2.542-1.16c-3.15,0-5.719,0.062-5.719,0.062
	S25.467,8.856,25.467,12.585z"/>
</svg>
