<?xml version="1.0" encoding="utf-8"?>
<!-- Generator: Adobe Illustrator 17.0.0, SVG Export Plug-In . SVG Version: 6.00 Build 0)  -->
<!DOCTYPE svg PUBLIC "-//W3C//DTD SVG 1.1//EN" "http://www.w3.org/Graphics/SVG/1.1/DTD/svg11.dtd">
<svg version="1.1" id="Capa_1" xmlns="http://www.w3.org/2000/svg" xmlns:xlink="http://www.w3.org/1999/xlink" x="0px" y="0px"
	 width="64px" height="64px" viewBox="0 0 64 64" enable-background="new 0 0 64 64" xml:space="preserve">
<path d="M55.879,28.484c0.036-0.198,0.089-0.438,0.106-0.537c0.011-0.061,0.017-0.121,0.017-0.183c0-2.43-7.135-4.495-17.105-5.267
	c-1.652-0.128-2.966-0.233-2.932-0.286c0.02-0.032,0.04-0.063,0.064-0.096c3.075-4.194,0.211-10.042,0.088-10.289
	c-0.248-0.494-0.849-0.692-1.342-0.447c-0.494,0.247-0.694,0.848-0.447,1.342c0.024,0.05,2.449,4.991,0.088,8.211
	c-0.152,0.209-0.291,0.417-0.416,0.626c-0.213,0.357-1.121,0.641-2.067,0.626c-0.565-0.008-1.137-0.013-1.713-0.013
	c-0.88,0-1.749,0.01-2.605,0.028c-1.439,0.031-2.511-0.104-2.375-0.328c0.078-0.131,0.165-0.263,0.263-0.396
	c3.075-4.194,0.211-10.042,0.088-10.289c-0.248-0.494-0.848-0.693-1.342-0.447c-0.494,0.247-0.694,0.848-0.447,1.342
	c0.024,0.05,2.449,4.991,0.088,8.211c-0.248,0.338-0.456,0.676-0.63,1.013c-0.303,0.587-1.799,1.184-3.448,1.342
	c-9.053,0.867-15.372,2.831-15.372,5.118c0,0,2.665,30.05,25.781,30.985c7.553,0.305,13.001-3.604,16.887-8.74
	c1-1.321,3.04-2.714,4.535-3.427c4.049-1.931,8.604-6.371,9.726-12.497c0.763-4.169-0.844-5.398-2.597-5.603
	C57.125,28.29,55.843,28.682,55.879,28.484z M12.069,29.029c0-1.281,2.992-2.411,7.543-3.078c1.64-0.241,3.094,0.401,3.459,1.252
	c0.256,0.594,0.562,1.086,0.849,1.438c0.198,0.242,0.485,0.368,0.776,0.368c0.222,0,0.445-0.073,0.631-0.225
	c0.428-0.349,0.492-0.979,0.144-1.407c-0.031-0.038-0.295-0.371-0.543-0.914c-0.246-0.535,0.685-1.074,1.955-1.112
	c0.753-0.022,1.521-0.035,2.303-0.035c0.65,0,1.289,0.009,1.918,0.024c1.059,0.027,1.943,1.028,2.34,2.114
	c0.28,0.771,0.657,1.4,1.004,1.826c0.198,0.242,0.485,0.368,0.776,0.368c0.222,0,0.445-0.073,0.631-0.225
	c0.428-0.349,0.492-0.979,0.144-1.407c-0.036-0.044-0.378-0.477-0.652-1.172c-0.273-0.691,1.018-1.208,2.661-0.994
	c4.968,0.648,8.295,1.828,8.295,3.179c0,2.051-7.662,3.712-17.116,3.712C19.732,32.741,12.069,31.08,12.069,29.029z M58.186,35.515
	c-0.653,3.563-5.854,7.604-4.952,5.921c0.967-1.805,1.529-3.674,1.855-5.164c0.354-1.618,1.66-3.726,2.672-2.934
	C58.171,33.659,58.408,34.302,58.186,35.515z"/>
</svg>
