<?xml version="1.0" encoding="utf-8"?>
<!-- Generator: Adobe Illustrator 17.0.0, SVG Export Plug-In . SVG Version: 6.00 Build 0)  -->
<!DOCTYPE svg PUBLIC "-//W3C//DTD SVG 1.1//EN" "http://www.w3.org/Graphics/SVG/1.1/DTD/svg11.dtd">
<svg version="1.1" id="Capa_1" xmlns="http://www.w3.org/2000/svg" xmlns:xlink="http://www.w3.org/1999/xlink" x="0px" y="0px"
	 width="64px" height="64px" viewBox="0 0 64 64" enable-background="new 0 0 64 64" xml:space="preserve">
<path d="M17.13,7.348c-1.06,0-1.919,0.859-1.919,1.918c0,0,0,0.412,0,0.919c0,0.508,0.421,0.919,0.941,0.919
	c0.52,0,1.065-0.37,1.43-0.623c0.215-0.149,0.475-0.236,0.757-0.236c0.739,0,1.338,0.6,1.338,1.339c0,0.739-0.6,1.339-1.338,1.339
	c-0.282,0-0.542-0.087-0.757-0.236c-0.365-0.253-0.911-0.623-1.43-0.623c-0.52,0-0.941,0.896-0.941,2v5.433c0,1.105,0.421,2,0.941,2
	c0.52,0,1.065-0.37,1.43-0.623c0.215-0.148,0.475-0.236,0.757-0.236c0.739,0,1.338,0.6,1.338,1.339c0,0.739-0.6,1.338-1.338,1.338
	c-0.282,0-0.542-0.087-0.757-0.236c-0.365-0.253-0.911-0.623-1.43-0.623c-0.52,0-0.941,0.896-0.941,2v5.433c0,1.104,0.421,2,0.941,2
	c0.52,0,1.065-0.37,1.43-0.623c0.215-0.148,0.475-0.236,0.757-0.236c0.739,0,1.338,0.6,1.338,1.338c0,0.739-0.6,1.339-1.338,1.339
	c-0.282,0-0.542-0.087-0.757-0.236c-0.365-0.253-0.911-0.623-1.43-0.623c-0.52,0-0.941,0.896-0.941,2v5.433c0,1.104,0.421,2,0.941,2
	c0.52,0,1.065-0.37,1.43-0.623c0.215-0.149,0.475-0.236,0.757-0.236c0.739,0,1.338,0.6,1.338,1.339c0,0.739-0.6,1.339-1.338,1.339
	c-0.282,0-0.542-0.087-0.757-0.236c-0.365-0.253-0.911-0.623-1.43-0.623c-0.52,0-0.941,0.896-0.941,2v5.433c0,1.104,0.421,2,0.941,2
	c0.52,0,1.065-0.37,1.43-0.623c0.215-0.148,0.475-0.236,0.757-0.236c0.739,0,1.338,0.6,1.338,1.339c0,0.739-0.6,1.338-1.338,1.338
	c-0.282,0-0.542-0.087-0.757-0.236c-0.365-0.253-0.911-0.623-1.43-0.623c-0.52,0-0.941,0.62-0.941,1.384v1.383
	c0,1.06,0.859,1.919,1.919,1.919h33.335c1.06,0,1.918-0.859,1.918-1.919V9.266c0-1.06-0.859-1.918-1.918-1.918H17.13z"/>
</svg>
