<?xml version="1.0" encoding="utf-8"?>
<!-- Generator: Adobe Illustrator 17.0.2, SVG Export Plug-In . SVG Version: 6.00 Build 0)  -->
<!DOCTYPE svg PUBLIC "-//W3C//DTD SVG 1.1//EN" "http://www.w3.org/Graphics/SVG/1.1/DTD/svg11.dtd">
<svg version="1.1" id="Ebene_1" xmlns="http://www.w3.org/2000/svg" xmlns:xlink="http://www.w3.org/1999/xlink" x="0px" y="0px"
	 width="40px" height="44px" viewBox="0 0 40 44" enable-background="new 0 0 40 44" xml:space="preserve">
<path fill="none" stroke="#F3F2F2" stroke-width="2" stroke-miterlimit="10" d="M15.523,28.371"/>
<g>
	<path fill="#FFFFFF" d="M30.369,13.925L30.369,13.925c0.01,0.013,0.029,0.036,0.029,0.036S30.383,13.942,30.369,13.925z"/>
</g>
<g display="none">
	<path display="inline" fill="#FFFFFF" d="M11.034,8.949c0.854,0,1.582-0.3,2.183-0.901c0.6-0.602,0.902-1.33,0.902-2.184
		c0-0.839-0.301-1.558-0.902-2.159c-0.601-0.602-1.313-0.902-2.136-0.902s-1.558,0.3-2.206,0.902
		c-0.601,0.6-0.902,1.313-0.902,2.135c0,0.886,0.292,1.622,0.878,2.207C9.451,8.649,10.179,8.949,11.034,8.949z"/>
	<path display="inline" fill="#FFFFFF" d="M13.622,10.604H8.469c-0.949,0-1.718,0.769-1.718,1.718v12.989h2.054v12.493h4.479V25.311
		h2.055V12.322C15.339,11.373,14.57,10.604,13.622,10.604z"/>
	<path display="inline" fill="#FFFFFF" d="M25.063,8.949c0.854,0,1.582-0.3,2.183-0.901c0.6-0.602,0.902-1.33,0.902-2.184
		c0-0.839-0.301-1.558-0.902-2.159c-0.601-0.602-1.313-0.902-2.136-0.902s-1.558,0.3-2.206,0.902
		c-0.601,0.6-0.902,1.313-0.902,2.135c0,0.886,0.292,1.622,0.878,2.207C23.48,8.649,24.208,8.949,25.063,8.949z"/>
	<path display="inline" fill="#FFFFFF" d="M27.651,10.604h-5.153c-0.949,0-1.718,0.769-1.718,1.718v12.989h2.054v12.493h4.479
		V25.311h2.055V12.322C29.369,11.373,28.599,10.604,27.651,10.604z"/>
</g>
<g display="none">
	<path display="inline" fill="#FFFFFF" d="M5.528,6.688H31.44l0.246,7.787H30.59c-0.537-2.446-1.22-4.039-2.047-4.777
		c-0.828-0.738-2.57-1.108-5.225-1.108h-2.551v23.45c0,1.765,0.276,2.86,0.828,3.283s1.76,0.701,3.625,0.834v0.85H11.86v-0.85
		c1.939-0.148,3.148-0.467,3.625-0.957s0.716-1.723,0.716-3.697V8.59h-2.573c-2.536,0-4.263,0.365-5.18,1.096
		s-1.607,2.327-2.07,4.789H5.259L5.528,6.688z"/>
</g>
<path fill="none" stroke="#F4F3F3" stroke-width="2" stroke-miterlimit="10" d="M15.679,29.108"/>
<path display="none" fill="#FFFFFF" d="M21.25,37.601v-5.477c0,0,0-7.54,7.801-7.54v-1.249H8.248v1.25c0,0,7.801-0.906,7.801,7.507
	c0,0,0,4.482,0,5.492c0,1.692,1.644,1.971,2.75,1.971C18.8,39.554,21.25,39.81,21.25,37.601z M17.52,37.839
	c-0.656-0.591-0.656-1.55,0-2.141c0.655-0.591,1.719-0.591,2.374,0s0.655,1.55,0,2.141C19.238,38.43,18.175,38.43,17.52,37.839z"/>
<g display="none">
	<path display="inline" fill="#FFFFFF" d="M29.051,15.812L29.051,15.812c0.01,0.013,0.03,0.038,0.03,0.038
		S29.066,15.829,29.051,15.812z"/>
	<path display="inline" fill="#FFFFFF" d="M29.081,15.533V4.563H8.278V4.88v0.36h-0.03v2.2v0.82v3.125v5.568v0.513v0.492v3.694
		h20.803v-3.418v-1.281L29.081,15.533z M27.996,12.857c-1.699-1.482-4.4-3.235-7.662-3.235c-1.093,0-2.182,0.201-3.237,0.598
		c-1.805,0.678-3.36,1.022-4.623,1.022c-2.477,0-3.016-1.335-3.111-1.667V5.649h18.634L27.996,12.857z"/>
</g>
<g>
	<g>
		<path fill="#FFFFFF" d="M13.512,10.973c0.618,0,1.147-0.218,1.582-0.653c0.436-0.437,0.653-0.964,0.653-1.583
			c0-0.608-0.218-1.129-0.653-1.564c-0.436-0.437-0.952-0.654-1.548-0.654c-0.596,0-1.13,0.218-1.599,0.654
			c-0.436,0.436-0.653,0.952-0.653,1.547c0,0.642,0.212,1.175,0.636,1.599C12.366,10.756,12.893,10.973,13.512,10.973z"/>
		<path fill="#FFFFFF" d="M16.633,13.418c0-0.688-0.557-1.245-1.245-1.245h-3.734c-0.688,0-1.245,0.557-1.245,1.245v9.414h1.489
			v9.054h3.246v-9.054h1.489V13.418z"/>
	</g>
	<g>
		<path fill="#FFFFFF" d="M24.119,10.973c0.618,0,1.147-0.218,1.582-0.653c0.436-0.437,0.653-0.964,0.653-1.583
			c0-0.608-0.218-1.129-0.653-1.564c-0.436-0.437-0.952-0.654-1.548-0.654c-0.597,0-1.129,0.218-1.599,0.654
			C22.118,7.609,21.9,8.126,21.9,8.721c0,0.642,0.212,1.175,0.636,1.599C22.971,10.756,23.5,10.973,24.119,10.973z"/>
		<path fill="#FFFFFF" d="M27.239,13.418c0-0.688-0.557-1.245-1.245-1.245H22.26c-0.688,0-1.245,0.557-1.245,1.245v9.414h1.489
			v9.054h3.246v-9.054h1.489V13.418z"/>
	</g>
	<g>
		<g>
			<rect x="8.27" y="34.003" fill="#FFFFFF" width="20.521" height="1.466"/>
			<path fill="#FFFFFF" d="M28.903,35.582H8.156v-1.691h20.746L28.903,35.582L28.903,35.582z M8.381,35.357h20.296v-1.241H8.381
				V35.357z"/>
		</g>
		<g>
			<g>
				<rect x="7.903" y="32.355" fill="#FFFFFF" width="0.734" height="4.766"/>
				<path fill="#FFFFFF" d="M8.749,37.232H7.791v-4.991h0.958V37.232z M8.016,37.007h0.508v-4.541H8.016V37.007z"/>
			</g>
		</g>
		<g>
			<g>
				<rect x="28.423" y="32.355" fill="#FFFFFF" width="0.734" height="4.766"/>
				<path fill="#FFFFFF" d="M29.269,37.232h-0.958v-4.991h0.958V37.232z M28.536,37.007h0.508v-4.541h-0.508V37.007z"/>
			</g>
		</g>
	</g>
</g>
</svg>
