<?xml version="1.0" encoding="utf-8"?>
<!-- Generator: Adobe Illustrator 17.0.2, SVG Export Plug-In . SVG Version: 6.00 Build 0)  -->
<!DOCTYPE svg PUBLIC "-//W3C//DTD SVG 1.1//EN" "http://www.w3.org/Graphics/SVG/1.1/DTD/svg11.dtd">
<svg version="1.1" id="Ebene_1" xmlns="http://www.w3.org/2000/svg" xmlns:xlink="http://www.w3.org/1999/xlink" x="0px" y="0px"
	 width="22px" height="14px" viewBox="0 0 22 14" enable-background="new 0 0 22 14" xml:space="preserve">
<path fill="#686766" d="M5.875,10.238"/>
<g>
	<path fill="#FFFFFF" d="M9.748,4.247L9.748,4.247c0.004,0.006,0.012,0.016,0.012,0.016S9.754,4.254,9.748,4.247z"/>
</g>
<g>
	<path fill="#686766" d="M7.142,2.458c0.322,0,0.597-0.12,0.824-0.36c0.227-0.241,0.341-0.532,0.341-0.874
		c0-0.336-0.114-0.623-0.341-0.864C7.739,0.12,7.47,0,7.159,0S6.571,0.12,6.327,0.361C6.1,0.601,5.986,0.886,5.986,1.215
		c0,0.354,0.11,0.649,0.331,0.883C6.544,2.338,6.819,2.458,7.142,2.458z"/>
	<path fill="#686766" d="M8.119,3.12H6.173c-0.358,0-0.649,0.308-0.649,0.687v5.195H6.3V14h1.691V9.003h0.776V3.807
		C8.767,3.428,8.477,3.12,8.119,3.12z"/>
</g>
<g>
	<path fill="#686766" d="M12.346,2.458c0.322,0,0.597-0.12,0.824-0.36c0.227-0.241,0.341-0.532,0.341-0.874
		c0-0.336-0.114-0.623-0.341-0.864C12.943,0.12,12.674,0,12.364,0c-0.311,0-0.588,0.12-0.833,0.361
		c-0.227,0.24-0.341,0.525-0.341,0.854c0,0.354,0.11,0.649,0.331,0.883C11.748,2.338,12.023,2.458,12.346,2.458z"/>
	<path fill="#686766" d="M13.323,3.12h-1.946c-0.358,0-0.649,0.308-0.649,0.687v5.195h0.775V14h1.691V9.003h0.776V3.807
		C13.972,3.428,13.681,3.12,13.323,3.12z"/>
</g>
<g>
	<g>
		<line fill="none" stroke="#686766" stroke-miterlimit="10" x1="17.362" y1="12.857" x2="17.362" y2="1.216"/>
		<g>
			<polygon fill="#686766" points="19.057,10.865 17.362,12.562 15.667,10.865 15.667,12.305 17.362,14 19.057,12.305 			"/>
		</g>
		<g>
			<polygon fill="#686766" points="19.227,3.407 17.362,1.541 15.497,3.407 15.497,1.823 17.362,-0.042 19.227,1.823 			"/>
		</g>
	</g>
</g>
</svg>
