<?xml version="1.0" encoding="utf-8"?>
<!-- Generator: Adobe Illustrator 17.0.2, SVG Export Plug-In . SVG Version: 6.00 Build 0)  -->
<!DOCTYPE svg PUBLIC "-//W3C//DTD SVG 1.1//EN" "http://www.w3.org/Graphics/SVG/1.1/DTD/svg11.dtd">
<svg version="1.1" id="Ebene_1" xmlns="http://www.w3.org/2000/svg" xmlns:xlink="http://www.w3.org/1999/xlink" x="0px" y="0px"
	 width="40px" height="44px" viewBox="0 0 40 44" enable-background="new 0 0 40 44" xml:space="preserve">
<g>
	<rect x="10.597" y="19.839" fill="#FFFFFF" width="20.684" height="1.11"/>
	<rect x="10.597" y="26.886" fill="#FFFFFF" width="20.684" height="1.11"/>
	<rect x="21.742" y="13.677" fill="#FFFFFF" width="1.11" height="20.444"/>
	<g>
		<polygon fill="#FFFFFF" points="10.597,14.243 5.047,14.243 5.047,19.839 10.597,19.839 10.597,20.949 5.047,20.949 5.047,26.886 
			10.597,26.886 10.597,27.996 5.047,27.996 5.047,34.138 10.597,34.138 		"/>
		<rect x="11.152" y="8.138" fill="#FFFFFF" width="10.589" height="5.539"/>
		<polygon fill="#FFFFFF" points="22.852,13.677 22.852,8.138 31.281,8.138 31.281,13.688 		"/>
		<polygon fill="#FFFFFF" points="5.047,8.138 5.047,12.345 5.047,13.133 10.042,13.133 10.042,12.345 10.042,8.138 		"/>
		<rect x="5.047" y="26.886" fill="#999999" width="0" height="1.11"/>
	</g>
</g>
<g>
	<g>
		<path fill="#FFFFFF" d="M201.037-53.382c0.822,0,1.523-0.289,2.102-0.867c0.578-0.58,0.868-1.281,0.868-2.102
			c0-0.807-0.29-1.5-0.868-2.078c-0.579-0.58-1.264-0.869-2.056-0.869s-1.5,0.289-2.124,0.869c-0.579,0.578-0.868,1.264-0.868,2.056
			c0,0.853,0.281,1.561,0.845,2.125C199.514-53.671,200.215-53.382,201.037-53.382z"/>
		<path fill="#FFFFFF" d="M205.183-50.135c0-0.913-0.74-1.654-1.654-1.654h-4.961c-0.913,0-1.654,0.74-1.654,1.654v12.505h1.978
			v12.027h4.312V-37.63h1.978V-50.135z"/>
	</g>
	<g>
		<path fill="#FFFFFF" d="M213.912-53.382c0.822,0,1.523-0.289,2.102-0.867c0.578-0.58,0.868-1.281,0.868-2.102
			c0-0.807-0.29-1.5-0.868-2.078c-0.579-0.58-1.264-0.869-2.056-0.869s-1.5,0.289-2.124,0.869c-0.579,0.578-0.868,1.264-0.868,2.056
			c0,0.853,0.281,1.561,0.845,2.125C212.388-53.671,213.089-53.382,213.912-53.382z"/>
		<path fill="#FFFFFF" d="M218.057-50.135c0-0.913-0.74-1.654-1.654-1.654h-4.961c-0.913,0-1.654,0.74-1.654,1.654v12.505h1.978
			v12.027h4.312V-37.63h1.978V-50.135z"/>
	</g>
</g>
<g>
	<g>
		<path fill="#FFFFFF" d="M-227.591-38.5c0.57,0,1.056-0.2,1.458-0.601c0.401-0.402,0.602-0.888,0.602-1.458
			c0-0.56-0.201-1.04-0.602-1.441c-0.402-0.402-0.877-0.603-1.426-0.603c-0.549,0-1.04,0.2-1.473,0.603
			c-0.402,0.401-0.602,0.877-0.602,1.426c0,0.591,0.195,1.083,0.586,1.474C-228.647-38.701-228.161-38.5-227.591-38.5z"/>
		<path fill="#FFFFFF" d="M-224.716-36.248c0-0.633-0.514-1.147-1.147-1.147h-3.44c-0.633,0-1.147,0.513-1.147,1.147v8.673h1.372
			v8.342h2.99v-8.342h1.372V-36.248z"/>
	</g>
	<g>
		<path fill="#FFFFFF" d="M-218.813-38.5c0.57,0,1.056-0.2,1.458-0.601c0.401-0.402,0.602-0.888,0.602-1.458
			c0-0.56-0.201-1.04-0.602-1.441c-0.402-0.402-0.877-0.603-1.426-0.603c-0.549,0-1.04,0.2-1.473,0.603
			c-0.401,0.401-0.602,0.877-0.602,1.426c0,0.591,0.195,1.083,0.586,1.474C-219.87-38.701-219.383-38.5-218.813-38.5z"/>
		<path fill="#FFFFFF" d="M-215.938-36.248c0-0.633-0.514-1.147-1.147-1.147h-3.44c-0.633,0-1.147,0.513-1.147,1.147v8.673h1.372
			v8.342h2.99v-8.342h1.372V-36.248z"/>
	</g>
	<g>
		<path fill="#FFFFFF" d="M-210.035-38.5c0.57,0,1.056-0.2,1.458-0.601c0.401-0.402,0.602-0.888,0.602-1.458
			c0-0.56-0.201-1.04-0.602-1.441c-0.402-0.402-0.877-0.603-1.426-0.603c-0.549,0-1.04,0.2-1.473,0.603
			c-0.402,0.401-0.602,0.877-0.602,1.426c0,0.591,0.195,1.083,0.586,1.474C-211.092-38.701-210.606-38.5-210.035-38.5z"/>
		<path fill="#FFFFFF" d="M-207.16-36.248c0-0.633-0.513-1.147-1.147-1.147h-3.441c-0.633,0-1.147,0.513-1.147,1.147v8.673h1.372
			v8.342h2.99v-8.342h1.372V-36.248z"/>
	</g>
	<g>
		<path fill="none" stroke="#FFFFFF" stroke-miterlimit="10" d="M-233.795-18.61c0,1.566,1.269,2.835,2.835,2.835h24.331
			c1.566,0,2.835-1.269,2.835-2.835V-42.94c0-1.566-1.269-2.835-2.835-2.835h-24.331c-1.566,0-2.835,1.269-2.835,2.835V-18.61z"/>
	</g>
</g>
<g>
	<path fill="#FFFFFF" d="M-103.394-33.802v0.689h-0.736v4.222c0,0.222,0.131,0.334,0.392,0.334c0.095,0,0.209-0.014,0.345-0.042
		v0.661c-0.248,0.054-0.442,0.08-0.583,0.08c-0.254,0-0.466-0.071-0.635-0.212c-0.179-0.152-0.269-0.353-0.269-0.605v-4.439h-0.646
		v-0.689h0.646v-1.54h0.752v1.54H-103.394z"/>
	<path fill="#FFFFFF" d="M-101.818-36.013v2.895c0.396-0.565,0.873-0.847,1.431-0.847c0.463,0,0.833,0.14,1.108,0.418
		c0.276,0.28,0.414,0.65,0.414,1.113v4.324h-0.741v-3.962c0-0.291-0.076-0.553-0.228-0.79c-0.173-0.275-0.396-0.413-0.672-0.413
		c-0.363,0-0.676,0.155-0.937,0.466c-0.251,0.298-0.375,0.63-0.375,1.002v3.698h-0.741v-7.901H-101.818z"/>
	<path fill="#FFFFFF" d="M-95.774-28.552c0.388,0,0.696-0.175,0.926-0.526c0.092-0.138,0.198-0.395,0.318-0.77h0.762
		c-0.221,1.323-0.887,1.985-1.995,1.985c-0.776,0-1.343-0.334-1.698-1.001c-0.275-0.519-0.414-1.203-0.414-2.054
		c0-0.801,0.16-1.478,0.478-2.032c0.387-0.677,0.954-1.016,1.698-1.016c0.741,0,1.287,0.352,1.635,1.053
		c0.266,0.534,0.398,1.211,0.398,2.032c0,0.021-0.002,0.082-0.005,0.181h-3.414v0.334c0,0.386,0.099,0.759,0.296,1.12
		C-96.536-28.782-96.197-28.552-95.774-28.552z M-95.742-33.277c-0.762,0-1.21,0.627-1.344,1.879h2.604
		c0-0.486-0.088-0.897-0.265-1.236C-94.969-33.062-95.301-33.277-95.742-33.277z"/>
	<path fill="#FFFFFF" d="M-86.066-28.535v0.576l-0.63,0.096c-0.395-0.121-0.613-0.395-0.652-0.826
		c-0.272,0.258-0.487,0.438-0.645,0.539c-0.296,0.191-0.602,0.287-0.916,0.287c-1.03,0-1.545-0.58-1.545-1.738
		c0-0.781,0.328-1.289,0.984-1.525c0.335-0.12,0.67-0.2,1.006-0.239c0.406-0.046,0.646-0.079,0.72-0.101
		c0.243-0.067,0.366-0.212,0.366-0.434v-0.673c-0.072-0.469-0.447-0.705-1.128-0.705c-0.335,0-0.595,0.115-0.777,0.346
		c-0.167,0.209-0.249,0.486-0.249,0.829h-0.703v-0.281c0-0.472,0.186-0.86,0.56-1.164c0.346-0.278,0.762-0.418,1.249-0.418
		c0.441,0,0.835,0.088,1.181,0.265c0.434,0.219,0.652,0.528,0.652,0.927v3.926c0,0.096,0.041,0.176,0.123,0.241
		c0.084,0.066,0.173,0.098,0.267,0.098C-86.155-28.509-86.108-28.518-86.066-28.535z M-89.244-30.499
		c-0.081,0.047-0.171,0.158-0.269,0.334c-0.115,0.208-0.173,0.406-0.173,0.593c0,0.275,0.072,0.512,0.215,0.709
		c0.162,0.219,0.374,0.328,0.637,0.328c0.435,0,0.804-0.162,1.107-0.487c0.232-0.251,0.348-0.461,0.348-0.63v-1.355
		c-0.187,0.093-0.508,0.179-0.964,0.26C-88.786-30.673-89.086-30.59-89.244-30.499z"/>
	<path fill="#FFFFFF" d="M-82.335-28.721c-0.322,0.572-0.815,0.859-1.48,0.859c-0.989,0-1.484-0.626-1.484-1.875v-4.065h0.741v4.175
		c0,0.307,0.071,0.556,0.213,0.747c0.155,0.219,0.382,0.328,0.681,0.328c0.425,0,0.762-0.188,1.01-0.566
		c0.213-0.326,0.319-0.713,0.319-1.161v-3.524h0.741v5.69h-0.741V-28.721z"/>
	<path fill="#FFFFFF" d="M-78.677-33.802v0.689h-0.736v4.222c0,0.222,0.131,0.334,0.392,0.334c0.095,0,0.209-0.014,0.345-0.042
		v0.661c-0.248,0.054-0.442,0.08-0.583,0.08c-0.254,0-0.466-0.071-0.635-0.212c-0.179-0.152-0.269-0.353-0.269-0.605v-4.439h-0.646
		v-0.689h0.646v-1.54h0.752v1.54H-78.677z"/>
	<path fill="#FFFFFF" d="M-76.031-33.965c0.759,0,1.317,0.338,1.677,1.01c0.282,0.527,0.423,1.206,0.423,2.038
		s-0.141,1.513-0.423,2.038c-0.36,0.677-0.919,1.016-1.677,1.016c-0.762,0-1.323-0.338-1.683-1.011
		c-0.282-0.529-0.423-1.21-0.423-2.043c0-0.826,0.142-1.503,0.429-2.032C-77.346-33.627-76.786-33.965-76.031-33.965z
		 M-74.687-30.917c0-0.59-0.109-1.114-0.328-1.57c-0.254-0.527-0.593-0.79-1.016-0.79c-0.494,0-0.857,0.288-1.09,0.864
		c-0.169,0.418-0.254,0.916-0.254,1.496c0,0.605,0.107,1.131,0.323,1.581c0.249,0.523,0.59,0.784,1.021,0.784
		s0.77-0.261,1.021-0.784C-74.795-29.785-74.687-30.312-74.687-30.917z"/>
	<path fill="#FFFFFF" d="M-72.151-33.802v0.726c0.261-0.593,0.72-0.889,1.377-0.889c0.649,0,1.07,0.286,1.261,0.857
		c0.141-0.272,0.294-0.469,0.461-0.593c0.24-0.176,0.56-0.265,0.959-0.265c0.904,0,1.356,0.469,1.356,1.408v4.446h-0.741v-4.307
		c0-0.261-0.084-0.47-0.252-0.626s-0.385-0.233-0.65-0.233c-0.319,0-0.576,0.127-0.775,0.381c-0.187,0.234-0.281,0.513-0.281,0.837
		v3.947h-0.741v-4.175c0-0.286-0.073-0.519-0.218-0.699c-0.156-0.194-0.375-0.292-0.655-0.292c-0.334,0-0.605,0.148-0.814,0.445
		c-0.192,0.269-0.287,0.576-0.287,0.922v3.799h-0.741v-5.69H-72.151z"/>
	<path fill="#FFFFFF" d="M-61.36-28.535v0.576l-0.63,0.096c-0.395-0.121-0.613-0.395-0.652-0.826
		c-0.272,0.258-0.487,0.438-0.645,0.539c-0.296,0.191-0.602,0.287-0.916,0.287c-1.03,0-1.545-0.58-1.545-1.738
		c0-0.781,0.328-1.289,0.984-1.525c0.335-0.12,0.67-0.2,1.006-0.239c0.406-0.046,0.646-0.079,0.72-0.101
		c0.243-0.067,0.366-0.212,0.366-0.434v-0.673c-0.072-0.469-0.447-0.705-1.128-0.705c-0.335,0-0.595,0.115-0.777,0.346
		c-0.167,0.209-0.249,0.486-0.249,0.829h-0.703v-0.281c0-0.472,0.186-0.86,0.56-1.164c0.346-0.278,0.762-0.418,1.249-0.418
		c0.441,0,0.835,0.088,1.181,0.265c0.434,0.219,0.652,0.528,0.652,0.927v3.926c0,0.096,0.041,0.176,0.123,0.241
		c0.084,0.066,0.173,0.098,0.267,0.098C-61.449-28.509-61.402-28.518-61.36-28.535z M-64.538-30.499
		c-0.081,0.047-0.171,0.158-0.269,0.334c-0.115,0.208-0.173,0.406-0.173,0.593c0,0.275,0.072,0.512,0.215,0.709
		c0.162,0.219,0.374,0.328,0.637,0.328c0.435,0,0.804-0.162,1.107-0.487c0.232-0.251,0.348-0.461,0.348-0.63v-1.355
		c-0.187,0.093-0.508,0.179-0.964,0.26C-64.08-30.673-64.38-30.59-64.538-30.499z"/>
	<path fill="#FFFFFF" d="M-58.915-33.802v0.689h-0.736v4.222c0,0.222,0.131,0.334,0.392,0.334c0.095,0,0.209-0.014,0.345-0.042
		v0.661c-0.248,0.054-0.442,0.08-0.583,0.08c-0.254,0-0.466-0.071-0.635-0.212c-0.179-0.152-0.269-0.353-0.269-0.605v-4.439h-0.646
		v-0.689h0.646v-1.54h0.752v1.54H-58.915z"/>
	<path fill="#FFFFFF" d="M-58.111-34.886v-1.127h0.741v1.127H-58.111z M-58.111-28.112v-5.69h0.741v5.69H-58.111z"/>
	<path fill="#FFFFFF" d="M-54.497-27.862c-0.716,0-1.243-0.366-1.582-1.096c-0.254-0.547-0.381-1.226-0.381-2.037
		c0-0.755,0.154-1.409,0.466-1.959c0.376-0.673,0.915-1.01,1.614-1.01c0.603,0,1.073,0.2,1.408,0.599
		c0.303,0.367,0.463,0.861,0.481,1.482h-0.735c-0.025-0.387-0.123-0.703-0.296-0.952c-0.201-0.294-0.483-0.441-0.847-0.441
		c-0.441,0-0.78,0.298-1.016,0.892c-0.173,0.442-0.26,0.922-0.26,1.442c0,0.588,0.075,1.087,0.223,1.496
		c0.218,0.597,0.569,0.896,1.053,0.896c0.632,0,1.02-0.508,1.164-1.524h0.714c-0.025,0.767-0.251,1.343-0.677,1.731
		C-53.525-28.024-53.968-27.862-54.497-27.862z"/>
	<path fill="#FFFFFF" d="M-105.062-25.251v-1.127h0.741v1.127H-105.062z M-105.062-18.477v-5.69h0.741v5.69H-105.062z"/>
	<path fill="#FFFFFF" d="M-101.487-18.89c0.772,0,1.156-0.332,1.156-0.995c0-0.459-0.168-0.737-0.507-0.836
		c-0.616-0.18-1.133-0.356-1.548-0.529c-0.585-0.247-0.876-0.721-0.876-1.423c0-0.505,0.161-0.907,0.487-1.207
		c0.323-0.3,0.741-0.45,1.249-0.45c1.135,0,1.712,0.586,1.73,1.757h-0.735c0-0.713-0.355-1.069-1.064-1.069
		c-0.247,0-0.466,0.095-0.656,0.286s-0.286,0.41-0.286,0.657c0,0.392,0.183,0.667,0.55,0.826c0.025,0.011,0.336,0.108,0.936,0.292
		c0.452,0.138,0.766,0.272,0.943,0.403c0.345,0.254,0.518,0.652,0.518,1.191c0,0.555-0.176,0.99-0.529,1.309
		c-0.335,0.307-0.783,0.46-1.343,0.46c-1.275,0-1.911-0.645-1.911-1.936h0.702c0.021,0.318,0.113,0.59,0.275,0.82
		C-102.184-19.038-101.882-18.89-101.487-18.89z"/>
	<path fill="#FFFFFF" d="M-96.8-24.33c0.759,0,1.317,0.338,1.677,1.01c0.282,0.527,0.423,1.206,0.423,2.038
		s-0.141,1.513-0.423,2.038c-0.36,0.677-0.919,1.016-1.677,1.016c-0.762,0-1.323-0.338-1.683-1.011
		c-0.282-0.529-0.423-1.21-0.423-2.043c0-0.826,0.142-1.503,0.429-2.032C-98.115-23.992-97.555-24.33-96.8-24.33z M-95.455-21.282
		c0-0.59-0.109-1.114-0.328-1.57c-0.254-0.527-0.593-0.79-1.016-0.79c-0.494,0-0.857,0.288-1.09,0.864
		c-0.169,0.418-0.254,0.916-0.254,1.496c0,0.605,0.107,1.131,0.323,1.581c0.249,0.523,0.59,0.784,1.021,0.784
		c0.43,0,0.77-0.261,1.021-0.784C-95.563-20.15-95.455-20.677-95.455-21.282z"/>
	<path fill="#FFFFFF" d="M-92.03-24.167v0.689h-0.736v4.222c0,0.222,0.131,0.334,0.392,0.334c0.095,0,0.209-0.014,0.345-0.042v0.661
		c-0.248,0.054-0.442,0.08-0.583,0.08c-0.254,0-0.466-0.071-0.635-0.212c-0.179-0.152-0.269-0.353-0.269-0.605v-4.439h-0.646v-0.689
		h0.646v-1.54h0.752v1.54H-92.03z"/>
	<path fill="#FFFFFF" d="M-89.682-17.159c-0.215,0.716-0.625,1.071-1.228,1.064c-0.169,0-0.316-0.048-0.44-0.143v-0.688
		c0.148,0.071,0.285,0.106,0.408,0.106c0.229,0,0.414-0.222,0.556-0.667l0.285-0.9l-1.54-5.78h0.789l1.195,4.304l1.287-4.304h0.804
		L-89.682-17.159z"/>
	<path fill="#FFFFFF" d="M-86.898-24.167h0.65v0.715c0.141-0.265,0.342-0.478,0.605-0.637c0.26-0.161,0.539-0.241,0.835-0.241
		c0.702,0,1.24,0.327,1.609,0.98c0.318,0.557,0.478,1.275,0.478,2.154c0,0.745-0.143,1.39-0.43,1.937
		c-0.36,0.688-0.88,1.033-1.558,1.033c-0.668,0-1.15-0.287-1.447-0.859v2.991h-0.741V-24.167z M-86.157-21.438
		c0,0.583,0.08,1.088,0.239,1.516c0.229,0.603,0.588,0.906,1.076,0.906c0.478,0,0.826-0.279,1.046-0.837
		c0.159-0.399,0.238-0.88,0.238-1.441c0-0.555-0.085-1.046-0.254-1.474c-0.233-0.582-0.587-0.874-1.061-0.874
		c-0.409,0-0.737,0.261-0.981,0.784C-86.055-22.424-86.157-21.95-86.157-21.438z"/>
	<path fill="#FFFFFF" d="M-79.964-18.917c0.388,0,0.696-0.175,0.926-0.526c0.092-0.138,0.198-0.395,0.318-0.77h0.762
		c-0.221,1.323-0.887,1.985-1.995,1.985c-0.776,0-1.343-0.334-1.698-1.001c-0.275-0.519-0.414-1.203-0.414-2.054
		c0-0.801,0.16-1.478,0.478-2.032c0.387-0.677,0.954-1.016,1.698-1.016c0.741,0,1.287,0.352,1.635,1.053
		c0.266,0.534,0.398,1.211,0.398,2.032c0,0.021-0.002,0.082-0.005,0.181h-3.414v0.334c0,0.386,0.099,0.759,0.296,1.12
		C-80.726-19.147-80.388-18.917-79.964-18.917z M-79.932-23.642c-0.762,0-1.21,0.627-1.344,1.879h2.604
		c0-0.486-0.088-0.897-0.265-1.236C-79.16-23.427-79.491-23.642-79.932-23.642z"/>
	<path fill="#FFFFFF" d="M-77.068-21.187v-0.682h2.111v0.682H-77.068z"/>
	<path fill="#FFFFFF" d="M-72.267-24.167v0.689h-0.736v4.222c0,0.222,0.131,0.334,0.392,0.334c0.095,0,0.209-0.014,0.345-0.042
		v0.661c-0.248,0.054-0.442,0.08-0.583,0.08c-0.254,0-0.466-0.071-0.635-0.212c-0.179-0.152-0.269-0.353-0.269-0.605v-4.439h-0.646
		v-0.689h0.646v-1.54h0.752v1.54H-72.267z"/>
	<path fill="#FFFFFF" d="M-69.621-24.33c0.759,0,1.317,0.338,1.677,1.01c0.282,0.527,0.423,1.206,0.423,2.038
		s-0.141,1.513-0.423,2.038c-0.36,0.677-0.919,1.016-1.677,1.016c-0.762,0-1.323-0.338-1.683-1.011
		c-0.282-0.529-0.423-1.21-0.423-2.043c0-0.826,0.142-1.503,0.429-2.032C-70.936-23.992-70.376-24.33-69.621-24.33z M-68.277-21.282
		c0-0.59-0.109-1.114-0.328-1.57c-0.254-0.527-0.593-0.79-1.016-0.79c-0.494,0-0.857,0.288-1.09,0.864
		c-0.169,0.418-0.254,0.916-0.254,1.496c0,0.605,0.107,1.131,0.323,1.581c0.249,0.523,0.59,0.784,1.021,0.784
		c0.43,0,0.77-0.261,1.021-0.784C-68.385-20.15-68.277-20.677-68.277-21.282z"/>
	<path fill="#FFFFFF" d="M-64.678-24.33c0.759,0,1.317,0.338,1.677,1.01c0.282,0.527,0.423,1.206,0.423,2.038
		s-0.141,1.513-0.423,2.038c-0.36,0.677-0.919,1.016-1.677,1.016c-0.762,0-1.323-0.338-1.683-1.011
		c-0.282-0.529-0.423-1.21-0.423-2.043c0-0.826,0.142-1.503,0.429-2.032C-65.993-23.992-65.433-24.33-64.678-24.33z M-63.333-21.282
		c0-0.59-0.109-1.114-0.328-1.57c-0.254-0.527-0.593-0.79-1.016-0.79c-0.494,0-0.857,0.288-1.09,0.864
		c-0.169,0.418-0.254,0.916-0.254,1.496c0,0.605,0.107,1.131,0.323,1.581c0.249,0.523,0.59,0.784,1.021,0.784
		c0.43,0,0.77-0.261,1.021-0.784C-63.442-20.15-63.333-20.677-63.333-21.282z"/>
	<path fill="#FFFFFF" d="M-60.814-26.378v7.901h-0.741v-7.901H-60.814z"/>
</g>
<g>
	<path fill="#FFFFFF" d="M-194.5-42.982c0.572,0,1.067,0.209,1.485,0.627c0.417,0.417,0.627,0.918,0.627,1.501
		c0,0.594-0.209,1.1-0.627,1.518c-0.418,0.417-0.924,0.626-1.518,0.626c-0.594,0-1.1-0.209-1.518-0.626
		c-0.408-0.407-0.61-0.919-0.61-1.535c0-0.571,0.209-1.067,0.627-1.484C-195.584-42.773-195.072-42.982-194.5-42.982z
		 M-195.985-35.723h3.167v17.074h-3.167V-35.723z"/>
	<path fill="#FFFFFF" d="M-182.695-35.372v2.964c-0.77-0.571-1.578-0.857-2.425-0.857c-0.286,0-0.55,0.049-0.792,0.148
		c-0.242,0.099-0.454,0.233-0.635,0.403c-0.182,0.17-0.325,0.373-0.429,0.61c-0.104,0.236-0.157,0.486-0.157,0.75
		c0,0.813,0.737,1.779,2.211,2.9c0.594,0.462,1.089,0.89,1.484,1.285c0.396,0.395,0.698,0.77,0.907,1.121
		c0.429,0.693,0.644,1.565,0.644,2.62c0,1.526-0.445,2.752-1.336,3.674c-0.88,0.912-2.062,1.368-3.547,1.368
		c-0.913,0-1.837-0.271-2.772-0.813v-3.063c0.913,0.681,1.776,1.023,2.59,1.023c1.441,0,2.161-0.709,2.161-2.126
		c0-0.527-0.132-0.983-0.396-1.368c-0.121-0.187-0.314-0.403-0.577-0.651c-0.264-0.247-0.589-0.525-0.974-0.833
		c-1.33-1.033-2.232-1.901-2.705-2.604c-0.462-0.724-0.693-1.598-0.693-2.62c0-1.372,0.423-2.499,1.27-3.378
		c0.858-0.868,1.974-1.301,3.349-1.301C-184.548-36.119-183.608-35.87-182.695-35.372z"/>
	<path fill="#FFFFFF" d="M-169.284-27.046c0,5.773-1.787,8.66-5.361,8.66c-3.575,0-5.362-2.93-5.362-8.792
		c0-5.884,1.782-8.826,5.345-8.826c0.924,0,1.724,0.176,2.4,0.528c0.676,0.352,1.234,0.897,1.674,1.632
		c0.44,0.737,0.767,1.666,0.982,2.788C-169.391-29.933-169.284-28.597-169.284-27.046z M-172.55-27.129
		c0-2.244-0.149-3.805-0.445-4.684c-0.297-0.891-0.825-1.336-1.584-1.336c-0.748,0-1.282,0.44-1.6,1.319
		c-0.297,0.88-0.445,2.415-0.445,4.602c0,2.189,0.148,3.717,0.445,4.586c0.319,0.88,0.852,1.32,1.6,1.32
		c0.747,0,1.27-0.435,1.567-1.304C-172.704-23.439-172.55-24.94-172.55-27.129z"/>
	<path fill="#FFFFFF" d="M-166.347-35.723h3.151v2.111c0.869-1.594,2.023-2.392,3.464-2.392c1.572,0,2.639,0.798,3.2,2.392
		c0.835-1.594,2.023-2.392,3.563-2.392c1.199,0,2.114,0.316,2.747,0.949c0.632,0.632,0.949,1.564,0.949,2.796v13.609h-3.168v-11.234
		c0-1.287-0.121-2.15-0.363-2.59c-0.231-0.451-0.682-0.676-1.353-0.676c-0.759,0-1.276,0.231-1.551,0.693
		c-0.264,0.451-0.396,1.308-0.396,2.574v11.234h-3.266v-11.234c0-0.605-0.03-1.116-0.091-1.535c-0.06-0.417-0.162-0.753-0.305-1.006
		c-0.143-0.253-0.33-0.437-0.561-0.553s-0.517-0.173-0.858-0.173c-0.726,0-1.243,0.247-1.551,0.742
		c-0.308,0.496-0.462,1.336-0.462,2.525v11.234h-3.151V-35.723z"/>
	<path fill="#FFFFFF" d="M-135.96-35.723v17.074h-3.151v-2.195c-0.451,0.935-0.902,1.579-1.353,1.93
		c-0.451,0.352-1.045,0.528-1.782,0.528c-1.419,0-2.457-0.725-3.117-2.177c-0.66-1.452-0.99-3.728-0.99-6.83
		c0-2.958,0.33-5.133,0.99-6.524c0.66-1.391,1.699-2.087,3.117-2.087c1.298,0,2.343,0.737,3.134,2.211v-1.93H-135.96z
		 M-143.087-27.261c0,2.244,0.149,3.811,0.445,4.702c0.308,0.891,0.847,1.336,1.617,1.336c0.704,0,1.215-0.462,1.535-1.386
		c0.318-0.989,0.478-2.512,0.478-4.569c0-2.067-0.16-3.596-0.478-4.586c-0.32-0.924-0.831-1.385-1.535-1.385
		c-0.748,0-1.281,0.44-1.6,1.319C-142.934-31.017-143.087-29.493-143.087-27.261z"/>
	<path fill="#FFFFFF" d="M-132.003-40.507h3.152v4.784h1.715v2.507h-1.715v14.567h-3.152v-14.567h-1.73v-2.507h1.73V-40.507z"/>
	<path fill="#FFFFFF" d="M-123.39-42.982c0.571,0,1.066,0.209,1.484,0.627c0.417,0.417,0.626,0.918,0.626,1.501
		c0,0.594-0.209,1.1-0.626,1.518c-0.419,0.417-0.925,0.626-1.517,0.626c-0.595,0-1.101-0.209-1.518-0.626
		c-0.408-0.407-0.611-0.919-0.611-1.535c0-0.571,0.21-1.067,0.627-1.484C-124.475-42.773-123.963-42.982-123.39-42.982z
		 M-124.876-35.723h3.167v17.074h-3.167V-35.723z"/>
	<path fill="#FFFFFF" d="M-111.184-35.393v3.216c-0.44-0.539-0.968-0.808-1.584-0.808c-1.737,0-2.606,1.881-2.606,5.641
		c0,3.993,0.864,5.989,2.59,5.989c0.484,0,1.017-0.215,1.6-0.644v2.952c-0.835,0.44-1.681,0.66-2.54,0.66
		c-3.387,0-5.082-2.881-5.082-8.644c0-3.068,0.419-5.331,1.255-6.788c0.835-1.458,2.134-2.186,3.892-2.186
		C-112.812-36.004-111.986-35.8-111.184-35.393z"/>
</g>
<g>
	<g>
		<path fill="#FFFFFF" d="M-76.992,41.295h-5.204l3.679-3.603c0.4-0.398,0.4-1.012,0-1.41s-0.983-0.382-1.383,0.016l-3.616,3.682
			v-5.185c0-0.563-0.458-1.02-1.023-1.02c-0.565,0-1.023,0.457-1.023,1.02v5.185l-3.743-3.667c-0.4-0.398-1.079-0.398-1.479,0
			c-0.4,0.398-0.416,0.98-0.016,1.378l3.663,3.603h-5.204c-0.565,0-1.023,0.457-1.023,1.02c0,0.563,0.458,1.02,1.023,1.02h5.204
			l-3.679,3.73c-0.4,0.398-0.4,1.075,0,1.474c0.2,0.199,0.462,0.315,0.723,0.315s0.588-0.092,0.787-0.291l3.743-3.659v5.185
			c0,0.563,0.458,1.02,1.023,1.02c0.565,0,1.023-0.457,1.023-1.02v-5.185l3.616,3.667c0.2,0.199,0.43,0.299,0.691,0.299
			c0.262,0,0.508-0.1,0.707-0.299c0.4-0.398,0.392-1.107-0.008-1.505l-3.687-3.73h5.204c0.565,0,1.023-0.457,1.023-1.02
			C-75.969,41.752-76.427,41.295-76.992,41.295z"/>
		<g>
			<path fill="#FFFFFF" d="M-87.838,50.311c-1.189,1.042-3.344,1.076-4.589-0.16c-0.119-0.118-0.217-0.25-0.315-0.382h-13.666
				v12.007h21.742v-8.404C-86.355,53.306-87.725,51.983-87.838,50.311z"/>
			<path fill="#FFFFFF" d="M-93.075,45.52h-3.876l-3.62-3.431h-4.156l-1.681,1.253v3.893h13.06c0.103-0.607,0.368-1.169,0.778-1.631
				C-92.743,45.592-92.91,45.557-93.075,45.52z"/>
		</g>
	</g>
	<g>
		<path fill="#FFFFFF" d="M-71.258,46.328h1.588l1.692,5.02c0.491,1.418,0.925,2.931,1.3,4.54c-0.135-0.973-0.236-1.854-0.302-2.64
			c-0.065-0.788-0.098-1.529-0.098-2.226v-4.694h1.701v12.583h-1.593l-1.902-5.663c-0.174-0.527-0.339-1.068-0.494-1.622
			c-0.155-0.554-0.297-1.135-0.428-1.744c-0.01-0.076-0.028-0.167-0.054-0.277c-0.024-0.108-0.052-0.233-0.085-0.375
			c0.015,0.142,0.03,0.262,0.04,0.363c0.01,0.101,0.019,0.187,0.025,0.256l0.089,1.28l0.097,1.556
			c0.006,0.087,0.01,0.193,0.013,0.319c0.003,0.124,0.004,0.265,0.004,0.424l0.091,5.484h-1.686V46.328z"/>
		<path fill="#FFFFFF" d="M-63.423,46.328h4.523v1.434h-2.822v3.986h2.504v1.434h-2.504v4.294h2.822v1.434h-4.523V46.328z"/>
		<path fill="#FFFFFF" d="M-58.288,46.328h1.645l0.859,5.844l0.138,0.864c0.065,0.467,0.114,0.893,0.147,1.279l0.089,1.068
			c0.006,0.027,0.012,0.076,0.018,0.147c0.004,0.07,0.013,0.16,0.024,0.268l0.042-0.407c0.065-0.711,0.134-1.366,0.208-1.963
			c0.073-0.599,0.153-1.15,0.241-1.655l0.907-5.444h1.309l0.851,5.29c0.126,0.782,0.23,1.507,0.315,2.175s0.155,1.307,0.208,1.916
			c0.055-0.642,0.116-1.261,0.184-1.858c0.068-0.599,0.141-1.185,0.217-1.76l0.122-0.84l0.729-4.922h1.627l-2.232,12.583h-1.325
			l-0.892-5.435c-0.004-0.022-0.018-0.111-0.04-0.27c-0.022-0.157-0.055-0.382-0.098-0.676l-0.171-1.255
			c-0.012-0.098-0.03-0.244-0.054-0.44c-0.025-0.196-0.051-0.443-0.077-0.742l-0.042-0.522c-0.01,0.126-0.022,0.234-0.033,0.326
			c-0.01,0.093-0.019,0.169-0.024,0.228c-0.028,0.359-0.051,0.637-0.07,0.836c-0.019,0.199-0.031,0.319-0.037,0.363l-0.172,1.206
			c-0.037,0.277-0.067,0.493-0.089,0.652c-0.022,0.157-0.039,0.255-0.049,0.293l-0.923,5.435h-1.367L-58.288,46.328z"/>
	</g>
</g>
<path fill="none" stroke="#F3F2F2" stroke-width="2" stroke-miterlimit="10" d="M13.008,29.24"/>
<g>
	<path fill="#FFFFFF" d="M29.989,12.717L29.989,12.717c0.011,0.014,0.033,0.041,0.033,0.041S30.004,12.736,29.989,12.717z"/>
</g>
<g display="none">
	<path display="inline" fill="#FFFFFF" d="M11.034,8.949c0.854,0,1.582-0.3,2.183-0.901c0.6-0.602,0.902-1.33,0.902-2.184
		c0-0.839-0.301-1.558-0.902-2.159c-0.601-0.602-1.313-0.902-2.136-0.902s-1.558,0.3-2.206,0.902
		c-0.601,0.6-0.902,1.313-0.902,2.135c0,0.886,0.292,1.622,0.878,2.207C9.451,8.649,10.179,8.949,11.034,8.949z"/>
	<path display="inline" fill="#FFFFFF" d="M13.622,10.604H8.469c-0.949,0-1.718,0.769-1.718,1.718v12.989h2.054v12.493h4.479V25.311
		h2.055V12.322C15.339,11.373,14.57,10.604,13.622,10.604z"/>
	<path display="inline" fill="#FFFFFF" d="M25.063,8.949c0.854,0,1.582-0.3,2.183-0.901c0.6-0.602,0.902-1.33,0.902-2.184
		c0-0.839-0.301-1.558-0.902-2.159c-0.601-0.602-1.313-0.902-2.136-0.902c-0.823,0-1.558,0.3-2.206,0.902
		c-0.601,0.6-0.902,1.313-0.902,2.135c0,0.886,0.292,1.622,0.878,2.207C23.48,8.649,24.208,8.949,25.063,8.949z"/>
	<path display="inline" fill="#FFFFFF" d="M27.651,10.604h-5.153c-0.949,0-1.718,0.769-1.718,1.718v12.989h2.054v12.493h4.479
		V25.311h2.055V12.322C29.369,11.373,28.599,10.604,27.651,10.604z"/>
</g>
<g display="none">
	<path display="inline" fill="#FFFFFF" d="M5.528,6.688H31.44l0.246,7.787h-1.096c-0.537-2.446-1.22-4.039-2.047-4.777
		c-0.828-0.738-2.57-1.108-5.225-1.108h-2.551v23.45c0,1.765,0.276,2.86,0.828,3.283c0.552,0.423,1.76,0.701,3.625,0.834v0.85H11.86
		v-0.85c1.939-0.148,3.148-0.467,3.625-0.957c0.477-0.49,0.716-1.723,0.716-3.697V8.59h-2.573c-2.536,0-4.263,0.365-5.18,1.096
		s-1.607,2.327-2.07,4.789H5.259L5.528,6.688z"/>
</g>
<path fill="none" stroke="#F4F3F3" stroke-width="2" stroke-miterlimit="10" d="M13.187,30.083"/>
<path display="none" fill="#FFFFFF" d="M21.25,37.601v-5.477c0,0,0-7.54,7.801-7.54v-1.249H8.248v1.25c0,0,7.801-0.906,7.801,7.507
	c0,0,0,4.482,0,5.492c0,1.692,1.644,1.971,2.75,1.971C18.8,39.554,21.25,39.81,21.25,37.601z M17.52,37.839
	c-0.656-0.591-0.656-1.55,0-2.141c0.655-0.591,1.719-0.591,2.374,0c0.655,0.591,0.655,1.55,0,2.141
	C19.238,38.43,18.175,38.43,17.52,37.839z"/>
<g display="none">
	<path display="inline" fill="#FFFFFF" d="M29.051,15.812L29.051,15.812c0.01,0.013,0.03,0.038,0.03,0.038
		S29.066,15.829,29.051,15.812z"/>
	<path display="inline" fill="#FFFFFF" d="M29.081,15.533V4.563H8.278V4.88v0.36h-0.03v2.2v0.82v3.125v5.568v0.513v0.492v3.694
		h20.803v-3.418v-1.281L29.081,15.533z M27.996,12.857c-1.699-1.482-4.4-3.235-7.662-3.235c-1.093,0-2.182,0.201-3.237,0.598
		c-1.805,0.678-3.36,1.022-4.623,1.022c-2.477,0-3.016-1.335-3.111-1.667V5.649h18.634L27.996,12.857z"/>
</g>
</svg>
