<?xml version="1.0" encoding="utf-8"?>
<!-- Generator: Adobe Illustrator 17.0.2, SVG Export Plug-In . SVG Version: 6.00 Build 0)  -->
<!DOCTYPE svg PUBLIC "-//W3C//DTD SVG 1.1//EN" "http://www.w3.org/Graphics/SVG/1.1/DTD/svg11.dtd">
<svg version="1.1" id="Ebene_1" xmlns="http://www.w3.org/2000/svg" xmlns:xlink="http://www.w3.org/1999/xlink" x="0px" y="0px"
	 width="21px" height="18px" viewBox="0 0 21 18" enable-background="new 0 0 21 18" xml:space="preserve">
<g>
	<rect x="108.591" y="-32.588" fill="#FFFFFF" width="20.684" height="1.11"/>
	<rect x="108.591" y="-25.541" fill="#FFFFFF" width="20.684" height="1.11"/>
	<rect x="119.735" y="-38.75" fill="#FFFFFF" width="1.11" height="20.444"/>
	<g>
		<polygon fill="#FFFFFF" points="108.591,-38.184 103.041,-38.184 103.041,-32.588 108.591,-32.588 108.591,-31.478 
			103.041,-31.478 103.041,-25.541 108.591,-25.541 108.591,-24.431 103.041,-24.431 103.041,-18.289 108.591,-18.289 		"/>
		<rect x="109.146" y="-44.289" fill="#FFFFFF" width="10.589" height="5.539"/>
		<polygon fill="#FFFFFF" points="120.845,-38.75 120.845,-44.289 129.275,-44.289 129.275,-38.74 		"/>
		<polygon fill="#FFFFFF" points="103.041,-44.289 103.041,-40.082 103.041,-39.294 108.036,-39.294 108.036,-40.082 
			108.036,-44.289 		"/>
		<rect x="103.041" y="-25.541" fill="#999999" width="0" height="1.11"/>
	</g>
</g>
<g>
	<g>
		<path fill="#FFFFFF" d="M244.031-88.425c0.822,0,1.523-0.289,2.102-0.867c0.578-0.58,0.868-1.281,0.868-2.102
			c0-0.807-0.29-1.5-0.868-2.078c-0.579-0.58-1.264-0.869-2.056-0.869s-1.5,0.289-2.124,0.869c-0.579,0.578-0.868,1.264-0.868,2.056
			c0,0.853,0.281,1.562,0.845,2.125C242.507-88.714,243.208-88.425,244.031-88.425z"/>
		<path fill="#FFFFFF" d="M248.176-85.178c0-0.913-0.74-1.654-1.654-1.654h-4.961c-0.913,0-1.654,0.74-1.654,1.654v12.505h1.978
			v12.027h4.312v-12.027h1.978V-85.178z"/>
	</g>
	<g>
		<path fill="#FFFFFF" d="M256.905-88.425c0.822,0,1.523-0.289,2.102-0.867c0.578-0.58,0.868-1.281,0.868-2.102
			c0-0.807-0.29-1.5-0.868-2.078c-0.579-0.58-1.264-0.869-2.056-0.869c-0.792,0-1.5,0.289-2.124,0.869
			c-0.579,0.578-0.868,1.264-0.868,2.056c0,0.853,0.281,1.562,0.845,2.125C255.382-88.714,256.082-88.425,256.905-88.425z"/>
		<path fill="#FFFFFF" d="M261.05-85.178c0-0.913-0.74-1.654-1.654-1.654h-4.961c-0.913,0-1.654,0.74-1.654,1.654v12.505h1.978
			v12.027h4.312v-12.027h1.978V-85.178z"/>
	</g>
</g>
<g>
	<g>
		<path fill="#FFFFFF" d="M-184.597-73.543c0.57,0,1.056-0.2,1.458-0.601c0.401-0.402,0.602-0.888,0.602-1.458
			c0-0.56-0.201-1.04-0.602-1.441c-0.402-0.402-0.877-0.603-1.426-0.603c-0.549,0-1.04,0.2-1.473,0.603
			c-0.402,0.401-0.602,0.877-0.602,1.426c0,0.591,0.195,1.083,0.586,1.474C-185.654-73.743-185.168-73.543-184.597-73.543z"/>
		<path fill="#FFFFFF" d="M-181.722-71.291c0-0.633-0.513-1.147-1.147-1.147h-3.44c-0.633,0-1.147,0.513-1.147,1.147v8.673h1.372
			v8.342h2.99v-8.342h1.372V-71.291z"/>
	</g>
	<g>
		<path fill="#FFFFFF" d="M-175.819-73.543c0.57,0,1.056-0.2,1.458-0.601c0.401-0.402,0.602-0.888,0.602-1.458
			c0-0.56-0.201-1.04-0.602-1.441c-0.402-0.402-0.877-0.603-1.426-0.603c-0.549,0-1.04,0.2-1.473,0.603
			c-0.402,0.401-0.602,0.877-0.602,1.426c0,0.591,0.195,1.083,0.586,1.474C-176.876-73.743-176.39-73.543-175.819-73.543z"/>
		<path fill="#FFFFFF" d="M-172.944-71.291c0-0.633-0.513-1.147-1.147-1.147h-3.441c-0.633,0-1.147,0.513-1.147,1.147v8.673h1.372
			v8.342h2.99v-8.342h1.372V-71.291z"/>
	</g>
	<g>
		<path fill="#FFFFFF" d="M-167.042-73.543c0.57,0,1.056-0.2,1.458-0.601c0.401-0.402,0.602-0.888,0.602-1.458
			c0-0.56-0.201-1.04-0.602-1.441c-0.402-0.402-0.877-0.603-1.426-0.603s-1.04,0.2-1.473,0.603
			c-0.402,0.401-0.602,0.877-0.602,1.426c0,0.591,0.195,1.083,0.586,1.474C-168.098-73.743-167.612-73.543-167.042-73.543z"/>
		<path fill="#FFFFFF" d="M-164.167-71.291c0-0.633-0.514-1.147-1.147-1.147h-3.441c-0.633,0-1.147,0.513-1.147,1.147v8.673h1.372
			v8.342h2.99v-8.342h1.372V-71.291z"/>
	</g>
	<g>
		<path fill="none" stroke="#FFFFFF" stroke-miterlimit="10" d="M-190.801-53.652c0,1.566,1.269,2.835,2.835,2.835h24.331
			c1.566,0,2.835-1.269,2.835-2.835v-24.331c0-1.566-1.269-2.835-2.835-2.835h-24.331c-1.566,0-2.835,1.269-2.835,2.835V-53.652z"/>
	</g>
</g>
<g>
	<path fill="#FFFFFF" d="M-60.401-68.844v0.689h-0.736v4.222c0,0.222,0.131,0.334,0.392,0.334c0.095,0,0.209-0.014,0.345-0.042
		v0.661c-0.248,0.054-0.442,0.08-0.583,0.08c-0.254,0-0.466-0.071-0.635-0.212c-0.179-0.152-0.269-0.353-0.269-0.605v-4.439h-0.646
		v-0.689h0.646v-1.54h0.752v1.54H-60.401z"/>
	<path fill="#FFFFFF" d="M-58.825-71.055v2.895c0.396-0.565,0.873-0.847,1.431-0.847c0.463,0,0.833,0.14,1.108,0.418
		c0.276,0.28,0.414,0.65,0.414,1.113v4.324h-0.741v-3.962c0-0.291-0.076-0.553-0.228-0.79c-0.173-0.275-0.396-0.413-0.672-0.413
		c-0.363,0-0.676,0.155-0.937,0.466c-0.251,0.298-0.375,0.63-0.375,1.002v3.698h-0.741v-7.901H-58.825z"/>
	<path fill="#FFFFFF" d="M-52.78-63.594c0.388,0,0.696-0.175,0.926-0.526c0.092-0.138,0.198-0.395,0.318-0.77h0.762
		c-0.221,1.323-0.887,1.985-1.995,1.985c-0.776,0-1.343-0.334-1.698-1.001c-0.275-0.519-0.414-1.203-0.414-2.054
		c0-0.801,0.16-1.478,0.478-2.032c0.387-0.677,0.954-1.016,1.698-1.016c0.741,0,1.287,0.352,1.635,1.053
		c0.266,0.534,0.398,1.211,0.398,2.032c0,0.021-0.002,0.082-0.005,0.181h-3.414v0.334c0,0.386,0.099,0.759,0.296,1.12
		C-53.543-63.825-53.204-63.594-52.78-63.594z M-52.749-68.32c-0.762,0-1.21,0.627-1.344,1.879h2.604
		c0-0.486-0.088-0.897-0.265-1.236C-51.976-68.105-52.308-68.32-52.749-68.32z"/>
	<path fill="#FFFFFF" d="M-43.073-63.578v0.576l-0.63,0.096c-0.395-0.121-0.613-0.395-0.652-0.826
		c-0.272,0.258-0.487,0.438-0.645,0.539c-0.296,0.191-0.602,0.287-0.916,0.287c-1.03,0-1.545-0.58-1.545-1.738
		c0-0.781,0.328-1.289,0.984-1.525c0.335-0.12,0.67-0.2,1.006-0.239c0.406-0.046,0.646-0.079,0.72-0.101
		c0.243-0.067,0.366-0.212,0.366-0.434v-0.673c-0.072-0.469-0.447-0.705-1.128-0.705c-0.335,0-0.595,0.115-0.777,0.346
		c-0.167,0.209-0.249,0.486-0.249,0.829h-0.703v-0.281c0-0.472,0.186-0.86,0.56-1.164c0.346-0.278,0.762-0.418,1.249-0.418
		c0.441,0,0.835,0.088,1.181,0.265c0.434,0.219,0.652,0.528,0.652,0.927v3.926c0,0.096,0.041,0.176,0.123,0.241
		c0.084,0.066,0.173,0.098,0.267,0.098C-43.162-63.552-43.115-63.56-43.073-63.578z M-46.25-65.542
		c-0.081,0.047-0.171,0.158-0.269,0.334c-0.115,0.208-0.173,0.406-0.173,0.593c0,0.275,0.072,0.512,0.215,0.709
		c0.162,0.219,0.374,0.328,0.637,0.328c0.435,0,0.804-0.162,1.107-0.487c0.232-0.251,0.348-0.461,0.348-0.63v-1.355
		c-0.187,0.093-0.508,0.179-0.964,0.26C-45.793-65.716-46.093-65.632-46.25-65.542z"/>
	<path fill="#FFFFFF" d="M-39.342-63.763c-0.322,0.572-0.815,0.859-1.48,0.859c-0.989,0-1.484-0.626-1.484-1.875v-4.065h0.741v4.175
		c0,0.307,0.071,0.556,0.213,0.747c0.155,0.219,0.382,0.328,0.681,0.328c0.425,0,0.762-0.188,1.01-0.566
		c0.213-0.326,0.319-0.713,0.319-1.161v-3.524h0.741v5.69h-0.741V-63.763z"/>
	<path fill="#FFFFFF" d="M-35.684-68.844v0.689h-0.736v4.222c0,0.222,0.131,0.334,0.392,0.334c0.095,0,0.209-0.014,0.345-0.042
		v0.661c-0.248,0.054-0.442,0.08-0.583,0.08c-0.254,0-0.466-0.071-0.635-0.212c-0.179-0.152-0.269-0.353-0.269-0.605v-4.439h-0.646
		v-0.689h0.646v-1.54h0.752v1.54H-35.684z"/>
	<path fill="#FFFFFF" d="M-33.038-69.008c0.759,0,1.317,0.338,1.677,1.01c0.282,0.527,0.423,1.206,0.423,2.038
		c0,0.833-0.141,1.513-0.423,2.038c-0.36,0.677-0.919,1.016-1.677,1.016c-0.762,0-1.323-0.338-1.683-1.011
		c-0.282-0.529-0.423-1.21-0.423-2.043c0-0.826,0.142-1.503,0.429-2.032C-34.353-68.669-33.793-69.008-33.038-69.008z
		 M-31.693-65.959c0-0.59-0.109-1.114-0.328-1.57c-0.254-0.527-0.593-0.79-1.016-0.79c-0.494,0-0.857,0.288-1.09,0.864
		c-0.169,0.418-0.254,0.916-0.254,1.496c0,0.605,0.107,1.131,0.323,1.581c0.249,0.523,0.59,0.784,1.021,0.784
		s0.77-0.261,1.021-0.784C-31.801-64.828-31.693-65.355-31.693-65.959z"/>
	<path fill="#FFFFFF" d="M-29.157-68.844v0.726c0.261-0.593,0.72-0.889,1.377-0.889c0.649,0,1.07,0.286,1.261,0.857
		c0.141-0.272,0.294-0.469,0.461-0.593c0.24-0.176,0.56-0.265,0.959-0.265c0.904,0,1.356,0.469,1.356,1.408v4.446h-0.741v-4.307
		c0-0.261-0.084-0.47-0.252-0.626c-0.168-0.155-0.385-0.233-0.65-0.233c-0.319,0-0.576,0.127-0.775,0.381
		c-0.187,0.234-0.281,0.513-0.281,0.837v3.947h-0.741v-4.175c0-0.286-0.073-0.519-0.218-0.699c-0.156-0.194-0.375-0.292-0.655-0.292
		c-0.334,0-0.605,0.148-0.814,0.445c-0.192,0.269-0.287,0.576-0.287,0.922v3.799h-0.741v-5.69H-29.157z"/>
	<path fill="#FFFFFF" d="M-18.366-63.578v0.576l-0.63,0.096c-0.395-0.121-0.613-0.395-0.652-0.826
		c-0.272,0.258-0.487,0.438-0.645,0.539c-0.296,0.191-0.602,0.287-0.916,0.287c-1.03,0-1.545-0.58-1.545-1.738
		c0-0.781,0.328-1.289,0.984-1.525c0.335-0.12,0.67-0.2,1.006-0.239c0.406-0.046,0.646-0.079,0.72-0.101
		c0.243-0.067,0.366-0.212,0.366-0.434v-0.673c-0.072-0.469-0.447-0.705-1.128-0.705c-0.335,0-0.595,0.115-0.777,0.346
		c-0.167,0.209-0.249,0.486-0.249,0.829h-0.703v-0.281c0-0.472,0.186-0.86,0.56-1.164c0.346-0.278,0.762-0.418,1.249-0.418
		c0.441,0,0.835,0.088,1.181,0.265c0.434,0.219,0.652,0.528,0.652,0.927v3.926c0,0.096,0.041,0.176,0.123,0.241
		c0.084,0.066,0.173,0.098,0.267,0.098C-18.456-63.552-18.409-63.56-18.366-63.578z M-21.544-65.542
		c-0.081,0.047-0.171,0.158-0.269,0.334c-0.115,0.208-0.173,0.406-0.173,0.593c0,0.275,0.072,0.512,0.215,0.709
		c0.162,0.219,0.374,0.328,0.637,0.328c0.435,0,0.804-0.162,1.107-0.487c0.232-0.251,0.348-0.461,0.348-0.63v-1.355
		c-0.187,0.093-0.508,0.179-0.964,0.26C-21.087-65.716-21.387-65.632-21.544-65.542z"/>
	<path fill="#FFFFFF" d="M-15.921-68.844v0.689h-0.736v4.222c0,0.222,0.131,0.334,0.392,0.334c0.095,0,0.209-0.014,0.345-0.042
		v0.661c-0.248,0.054-0.442,0.08-0.583,0.08c-0.254,0-0.466-0.071-0.635-0.212c-0.179-0.152-0.269-0.353-0.269-0.605v-4.439h-0.646
		v-0.689h0.646v-1.54h0.752v1.54H-15.921z"/>
	<path fill="#FFFFFF" d="M-15.118-69.929v-1.127h0.741v1.127H-15.118z M-15.118-63.154v-5.69h0.741v5.69H-15.118z"/>
	<path fill="#FFFFFF" d="M-11.503-62.905c-0.716,0-1.243-0.366-1.582-1.096c-0.254-0.547-0.381-1.226-0.381-2.037
		c0-0.755,0.154-1.409,0.466-1.959c0.376-0.673,0.915-1.01,1.614-1.01c0.603,0,1.073,0.2,1.408,0.599
		c0.303,0.367,0.463,0.861,0.481,1.482h-0.735c-0.025-0.387-0.123-0.703-0.296-0.951c-0.201-0.294-0.483-0.441-0.847-0.441
		c-0.441,0-0.78,0.298-1.016,0.892c-0.173,0.442-0.26,0.922-0.26,1.442c0,0.588,0.075,1.087,0.223,1.496
		c0.218,0.597,0.569,0.896,1.053,0.896c0.632,0,1.02-0.508,1.164-1.524h0.714c-0.025,0.767-0.251,1.343-0.677,1.731
		C-10.532-63.066-10.974-62.905-11.503-62.905z"/>
	<path fill="#FFFFFF" d="M-62.069-60.294v-1.127h0.741v1.127H-62.069z M-62.069-53.519v-5.69h0.741v5.69H-62.069z"/>
	<path fill="#FFFFFF" d="M-58.493-53.932c0.772,0,1.156-0.332,1.156-0.995c0-0.459-0.168-0.737-0.507-0.836
		c-0.616-0.18-1.133-0.356-1.548-0.529c-0.585-0.247-0.876-0.721-0.876-1.423c0-0.505,0.161-0.907,0.487-1.207
		c0.323-0.3,0.741-0.45,1.249-0.45c1.135,0,1.712,0.586,1.73,1.757h-0.735c0-0.713-0.355-1.069-1.064-1.069
		c-0.247,0-0.466,0.095-0.656,0.286s-0.286,0.41-0.286,0.657c0,0.392,0.183,0.667,0.55,0.826c0.025,0.011,0.336,0.108,0.936,0.292
		c0.452,0.138,0.766,0.272,0.943,0.403c0.345,0.254,0.518,0.652,0.518,1.191c0,0.555-0.176,0.99-0.529,1.309
		c-0.335,0.307-0.783,0.46-1.343,0.46c-1.275,0-1.911-0.645-1.911-1.936h0.702c0.021,0.318,0.113,0.59,0.275,0.82
		C-59.19-54.08-58.888-53.932-58.493-53.932z"/>
	<path fill="#FFFFFF" d="M-53.806-59.373c0.759,0,1.317,0.338,1.677,1.01c0.282,0.527,0.423,1.206,0.423,2.038
		s-0.141,1.513-0.423,2.038c-0.36,0.677-0.919,1.016-1.677,1.016c-0.762,0-1.323-0.338-1.683-1.011
		c-0.282-0.529-0.423-1.21-0.423-2.043c0-0.826,0.142-1.503,0.429-2.032C-55.121-59.034-54.561-59.373-53.806-59.373z
		 M-52.462-56.324c0-0.59-0.109-1.114-0.328-1.57c-0.254-0.527-0.593-0.79-1.016-0.79c-0.494,0-0.857,0.288-1.09,0.864
		c-0.169,0.418-0.254,0.916-0.254,1.496c0,0.605,0.107,1.131,0.323,1.581c0.249,0.523,0.59,0.784,1.021,0.784
		c0.43,0,0.77-0.261,1.021-0.784C-52.57-55.193-52.462-55.72-52.462-56.324z"/>
	<path fill="#FFFFFF" d="M-49.037-59.209v0.689h-0.736v4.222c0,0.222,0.131,0.334,0.392,0.334c0.095,0,0.209-0.014,0.345-0.042
		v0.661c-0.248,0.054-0.442,0.08-0.583,0.08c-0.254,0-0.466-0.071-0.635-0.212c-0.179-0.152-0.269-0.353-0.269-0.605v-4.439h-0.646
		v-0.689h0.646v-1.54h0.752v1.54H-49.037z"/>
	<path fill="#FFFFFF" d="M-46.688-52.202c-0.215,0.716-0.625,1.071-1.228,1.064c-0.169,0-0.316-0.048-0.44-0.143v-0.688
		c0.148,0.071,0.285,0.106,0.408,0.106c0.229,0,0.414-0.222,0.556-0.667l0.285-0.9l-1.54-5.78h0.789l1.195,4.304l1.287-4.304h0.804
		L-46.688-52.202z"/>
	<path fill="#FFFFFF" d="M-43.904-59.209h0.65v0.715c0.141-0.265,0.342-0.478,0.605-0.637c0.26-0.161,0.539-0.241,0.835-0.241
		c0.702,0,1.24,0.327,1.609,0.98c0.318,0.557,0.478,1.275,0.478,2.154c0,0.745-0.143,1.39-0.43,1.937
		c-0.36,0.688-0.88,1.033-1.558,1.033c-0.668,0-1.15-0.287-1.447-0.859v2.991h-0.741V-59.209z M-43.163-56.481
		c0,0.583,0.08,1.088,0.239,1.516c0.229,0.603,0.588,0.906,1.076,0.906c0.478,0,0.826-0.279,1.046-0.837
		c0.159-0.399,0.238-0.88,0.238-1.441c0-0.555-0.085-1.046-0.254-1.474c-0.233-0.582-0.587-0.874-1.061-0.874
		c-0.409,0-0.737,0.261-0.981,0.784C-43.062-57.466-43.163-56.992-43.163-56.481z"/>
	<path fill="#FFFFFF" d="M-36.971-53.959c0.388,0,0.696-0.175,0.926-0.526c0.092-0.138,0.198-0.395,0.318-0.77h0.762
		c-0.221,1.323-0.887,1.985-1.995,1.985c-0.776,0-1.343-0.334-1.698-1.001c-0.275-0.519-0.414-1.203-0.414-2.054
		c0-0.801,0.16-1.478,0.478-2.032c0.387-0.677,0.954-1.016,1.698-1.016c0.741,0,1.287,0.352,1.635,1.053
		c0.266,0.534,0.398,1.211,0.398,2.032c0,0.021-0.002,0.082-0.005,0.181h-3.414v0.334c0,0.386,0.099,0.759,0.296,1.12
		C-37.733-54.189-37.394-53.959-36.971-53.959z M-36.939-58.685c-0.762,0-1.21,0.627-1.344,1.879h2.604
		c0-0.486-0.088-0.897-0.265-1.236C-36.166-58.47-36.498-58.685-36.939-58.685z"/>
	<path fill="#FFFFFF" d="M-34.075-56.229v-0.682h2.111v0.682H-34.075z"/>
	<path fill="#FFFFFF" d="M-29.274-59.209v0.689h-0.736v4.222c0,0.222,0.131,0.334,0.392,0.334c0.095,0,0.209-0.014,0.345-0.042
		v0.661c-0.248,0.054-0.442,0.08-0.583,0.08c-0.254,0-0.466-0.071-0.635-0.212c-0.179-0.152-0.269-0.353-0.269-0.605v-4.439h-0.646
		v-0.689h0.646v-1.54h0.752v1.54H-29.274z"/>
	<path fill="#FFFFFF" d="M-26.628-59.373c0.759,0,1.317,0.338,1.677,1.01c0.282,0.527,0.423,1.206,0.423,2.038
		s-0.141,1.513-0.423,2.038c-0.36,0.677-0.919,1.016-1.677,1.016c-0.762,0-1.323-0.338-1.683-1.011
		c-0.282-0.529-0.423-1.21-0.423-2.043c0-0.826,0.142-1.503,0.429-2.032C-27.943-59.034-27.383-59.373-26.628-59.373z
		 M-25.283-56.324c0-0.59-0.109-1.114-0.328-1.57c-0.254-0.527-0.593-0.79-1.016-0.79c-0.494,0-0.857,0.288-1.09,0.864
		c-0.169,0.418-0.254,0.916-0.254,1.496c0,0.605,0.107,1.131,0.323,1.581c0.249,0.523,0.59,0.784,1.021,0.784
		s0.77-0.261,1.021-0.784C-25.391-55.193-25.283-55.72-25.283-56.324z"/>
	<path fill="#FFFFFF" d="M-21.684-59.373c0.759,0,1.317,0.338,1.677,1.01c0.282,0.527,0.423,1.206,0.423,2.038
		s-0.141,1.513-0.423,2.038c-0.36,0.677-0.919,1.016-1.677,1.016c-0.762,0-1.323-0.338-1.683-1.011
		c-0.282-0.529-0.423-1.21-0.423-2.043c0-0.826,0.142-1.503,0.429-2.032C-22.999-59.034-22.439-59.373-21.684-59.373z
		 M-20.34-56.324c0-0.59-0.109-1.114-0.328-1.57c-0.254-0.527-0.593-0.79-1.016-0.79c-0.494,0-0.857,0.288-1.09,0.864
		c-0.169,0.418-0.254,0.916-0.254,1.496c0,0.605,0.107,1.131,0.323,1.581c0.249,0.523,0.59,0.784,1.021,0.784
		c0.43,0,0.77-0.261,1.021-0.784C-20.448-55.193-20.34-55.72-20.34-56.324z"/>
	<path fill="#FFFFFF" d="M-17.821-61.42v7.901h-0.741v-7.901H-17.821z"/>
</g>
<g>
	<path fill="#FFFFFF" d="M-151.507-78.024c0.572,0,1.067,0.209,1.485,0.627c0.417,0.417,0.627,0.918,0.627,1.501
		c0,0.594-0.209,1.1-0.627,1.518c-0.418,0.417-0.924,0.626-1.518,0.626c-0.594,0-1.1-0.209-1.518-0.626
		c-0.408-0.407-0.61-0.919-0.61-1.535c0-0.571,0.209-1.067,0.627-1.484C-152.59-77.815-152.079-78.024-151.507-78.024z
		 M-152.991-70.765h3.167v17.074h-3.167V-70.765z"/>
	<path fill="#FFFFFF" d="M-139.701-70.414v2.964c-0.77-0.571-1.578-0.857-2.425-0.857c-0.286,0-0.55,0.049-0.792,0.148
		s-0.454,0.233-0.635,0.403c-0.182,0.17-0.325,0.373-0.429,0.61c-0.104,0.236-0.157,0.486-0.157,0.75c0,0.813,0.737,1.779,2.211,2.9
		c0.594,0.462,1.089,0.89,1.484,1.285c0.396,0.395,0.698,0.77,0.907,1.121c0.429,0.693,0.644,1.565,0.644,2.62
		c0,1.526-0.445,2.752-1.336,3.674c-0.88,0.912-2.062,1.368-3.547,1.368c-0.913,0-1.837-0.271-2.772-0.813v-3.063
		c0.913,0.681,1.776,1.023,2.59,1.023c1.441,0,2.161-0.709,2.161-2.126c0-0.527-0.132-0.983-0.396-1.368
		c-0.121-0.187-0.314-0.403-0.577-0.651c-0.264-0.247-0.589-0.525-0.974-0.833c-1.33-1.033-2.232-1.901-2.705-2.604
		c-0.462-0.724-0.693-1.598-0.693-2.62c0-1.372,0.423-2.499,1.27-3.378c0.858-0.868,1.974-1.301,3.349-1.301
		C-141.554-71.162-140.614-70.912-139.701-70.414z"/>
	<path fill="#FFFFFF" d="M-126.29-62.088c0,5.773-1.787,8.66-5.361,8.66c-3.575,0-5.362-2.93-5.362-8.792
		c0-5.884,1.782-8.826,5.345-8.826c0.924,0,1.724,0.176,2.4,0.528c0.676,0.352,1.234,0.897,1.674,1.632
		c0.44,0.737,0.767,1.666,0.982,2.788C-126.398-64.976-126.29-63.639-126.29-62.088z M-129.556-62.171
		c0-2.244-0.149-3.805-0.445-4.684c-0.297-0.891-0.825-1.336-1.584-1.336c-0.748,0-1.282,0.44-1.6,1.319
		c-0.297,0.88-0.445,2.415-0.445,4.602c0,2.189,0.148,3.717,0.445,4.586c0.319,0.88,0.852,1.32,1.6,1.32
		c0.747,0,1.27-0.435,1.567-1.304C-129.71-58.482-129.556-59.983-129.556-62.171z"/>
	<path fill="#FFFFFF" d="M-123.354-70.765h3.151v2.111c0.869-1.594,2.023-2.392,3.464-2.392c1.572,0,2.639,0.798,3.2,2.392
		c0.835-1.594,2.023-2.392,3.563-2.392c1.199,0,2.114,0.316,2.747,0.949c0.632,0.632,0.949,1.564,0.949,2.796v13.609h-3.168v-11.234
		c0-1.287-0.121-2.15-0.363-2.59c-0.231-0.451-0.682-0.676-1.353-0.676c-0.759,0-1.276,0.231-1.551,0.693
		c-0.264,0.451-0.396,1.308-0.396,2.574v11.234h-3.266v-11.234c0-0.605-0.03-1.116-0.091-1.535c-0.06-0.417-0.162-0.753-0.305-1.006
		c-0.143-0.253-0.33-0.437-0.561-0.553s-0.517-0.173-0.858-0.173c-0.726,0-1.243,0.247-1.551,0.742
		c-0.308,0.496-0.462,1.336-0.462,2.525v11.234h-3.151V-70.765z"/>
	<path fill="#FFFFFF" d="M-92.967-70.765v17.074h-3.151v-2.195c-0.451,0.935-0.902,1.579-1.353,1.93
		c-0.451,0.352-1.045,0.528-1.782,0.528c-1.419,0-2.457-0.725-3.117-2.177c-0.66-1.452-0.99-3.728-0.99-6.83
		c0-2.958,0.33-5.133,0.99-6.524s1.699-2.087,3.117-2.087c1.298,0,2.343,0.737,3.134,2.211v-1.93H-92.967z M-100.094-62.303
		c0,2.244,0.149,3.811,0.445,4.702c0.308,0.891,0.847,1.336,1.617,1.336c0.704,0,1.215-0.462,1.535-1.386
		c0.318-0.989,0.478-2.512,0.478-4.569c0-2.067-0.16-3.596-0.478-4.586c-0.32-0.924-0.831-1.385-1.535-1.385
		c-0.748,0-1.281,0.44-1.6,1.319C-99.94-66.059-100.094-64.535-100.094-62.303z"/>
	<path fill="#FFFFFF" d="M-89.009-75.55h3.152v4.784h1.715v2.507h-1.715v14.567h-3.152v-14.567h-1.73v-2.507h1.73V-75.55z"/>
	<path fill="#FFFFFF" d="M-80.397-78.024c0.571,0,1.066,0.209,1.484,0.627c0.417,0.417,0.626,0.918,0.626,1.501
		c0,0.594-0.209,1.1-0.626,1.518c-0.419,0.417-0.925,0.626-1.517,0.626c-0.595,0-1.101-0.209-1.518-0.626
		c-0.408-0.407-0.611-0.919-0.611-1.535c0-0.571,0.21-1.067,0.627-1.484C-81.481-77.815-80.969-78.024-80.397-78.024z
		 M-81.882-70.765h3.167v17.074h-3.167V-70.765z"/>
	<path fill="#FFFFFF" d="M-68.19-70.435v3.216c-0.44-0.539-0.968-0.808-1.584-0.808c-1.737,0-2.606,1.881-2.606,5.641
		c0,3.993,0.864,5.989,2.59,5.989c0.484,0,1.017-0.215,1.6-0.644v2.952c-0.835,0.44-1.681,0.66-2.54,0.66
		c-3.387,0-5.082-2.881-5.082-8.644c0-3.068,0.419-5.331,1.255-6.788c0.835-1.458,2.134-2.186,3.892-2.186
		C-69.818-71.046-68.993-70.842-68.19-70.435z"/>
</g>
<g>
	<g>
		<path fill="#FFFFFF" d="M-34.128,3.919h-3.589l2.538-2.485c0.276-0.275,0.276-0.698,0-0.972c-0.276-0.275-0.678-0.264-0.954,0.011
			l-2.493,2.54v-3.576c0-0.388-0.316-0.703-0.706-0.703c-0.39,0-0.706,0.315-0.706,0.703v3.576l-2.582-2.529
			c-0.276-0.275-0.744-0.275-1.02,0s-0.287,0.676-0.011,0.95l2.527,2.485h-3.589c-0.39,0-0.706,0.315-0.706,0.703
			c0,0.388,0.316,0.703,0.706,0.703h3.589l-2.538,2.573c-0.276,0.275-0.276,0.742,0,1.016c0.138,0.137,0.318,0.217,0.499,0.217
			s0.405-0.063,0.543-0.201l2.582-2.523v3.576c0,0.388,0.316,0.703,0.706,0.703c0.39,0,0.706-0.315,0.706-0.703V6.408l2.493,2.529
			c0.138,0.137,0.296,0.206,0.477,0.206s0.35-0.069,0.488-0.206c0.276-0.275,0.27-0.764-0.006-1.038l-2.543-2.573h3.589
			c0.39,0,0.706-0.315,0.706-0.703C-33.422,4.234-33.738,3.919-34.128,3.919z"/>
		<g>
			<path fill="#FFFFFF" d="M-41.607,10.137c-0.82,0.718-2.306,0.742-3.165-0.11c-0.082-0.081-0.15-0.172-0.217-0.263h-9.425v8.281
				h14.995v-5.796C-40.585,12.203-41.53,11.29-41.607,10.137z"/>
			<path fill="#FFFFFF" d="M-45.219,6.833h-2.673l-2.497-2.366h-2.866l-1.159,0.864v2.685h9.007
				c0.071-0.419,0.254-0.807,0.537-1.125C-44.991,6.882-45.105,6.859-45.219,6.833z"/>
		</g>
	</g>
</g>
<path fill="none" stroke="#F3F2F2" stroke-width="2" stroke-miterlimit="10" d="M117.12,12.484"/>
<g>
	<path fill="#FFFFFF" d="M133.616-3.568L133.616-3.568c0.011,0.014,0.032,0.04,0.032,0.04S133.631-3.549,133.616-3.568z"/>
</g>
<g display="none">
	<path display="inline" fill="#FFFFFF" d="M54.027-26.093c0.854,0,1.582-0.3,2.183-0.901c0.6-0.602,0.902-1.33,0.902-2.184
		c0-0.839-0.301-1.558-0.902-2.159c-0.601-0.602-1.313-0.902-2.136-0.902c-0.823,0-1.558,0.3-2.206,0.902
		c-0.601,0.6-0.902,1.313-0.902,2.135c0,0.886,0.292,1.622,0.878,2.207C52.445-26.393,53.173-26.093,54.027-26.093z"/>
	<path display="inline" fill="#FFFFFF" d="M56.615-24.438h-5.153c-0.949,0-1.718,0.769-1.718,1.718v12.989H51.8V2.761h4.479V-9.731
		h2.055V-22.72C58.333-23.669,57.564-24.438,56.615-24.438z"/>
	<path display="inline" fill="#FFFFFF" d="M68.056-26.093c0.854,0,1.582-0.3,2.183-0.901c0.6-0.602,0.902-1.33,0.902-2.184
		c0-0.839-0.301-1.558-0.902-2.159c-0.601-0.602-1.313-0.902-2.136-0.902c-0.823,0-1.558,0.3-2.206,0.902
		c-0.601,0.6-0.902,1.313-0.902,2.135c0,0.886,0.292,1.622,0.878,2.207C66.474-26.393,67.202-26.093,68.056-26.093z"/>
	<path display="inline" fill="#FFFFFF" d="M70.644-24.438h-5.153c-0.949,0-1.718,0.769-1.718,1.718v12.989h2.054V2.761h4.479V-9.731
		h2.055V-22.72C72.362-23.669,71.593-24.438,70.644-24.438z"/>
</g>
<g display="none">
	<path display="inline" fill="#FFFFFF" d="M48.521-28.355h25.912l0.246,7.787h-1.096c-0.537-2.446-1.22-4.039-2.047-4.777
		c-0.828-0.738-2.57-1.108-5.225-1.108H63.76v23.45c0,1.765,0.276,2.86,0.828,3.283c0.552,0.423,1.76,0.701,3.625,0.834v0.85H54.854
		v-0.85c1.939-0.148,3.148-0.467,3.625-0.957c0.477-0.49,0.716-1.723,0.716-3.697v-22.913h-2.573c-2.536,0-4.263,0.365-5.18,1.096
		c-0.917,0.731-1.607,2.327-2.07,4.789h-1.119L48.521-28.355z"/>
</g>
<path fill="none" stroke="#F4F3F3" stroke-width="2" stroke-miterlimit="10" d="M117.294,13.302"/>
<path display="none" fill="#FFFFFF" d="M64.243,2.559v-5.477c0,0,0-7.54,7.801-7.54v-1.249H51.241v1.25c0,0,7.801-0.906,7.801,7.507
	c0,0,0,4.482,0,5.492c0,1.692,1.644,1.971,2.75,1.971C61.794,4.512,64.243,4.768,64.243,2.559z M60.514,2.796
	c-0.656-0.591-0.656-1.55,0-2.141c0.655-0.591,1.719-0.591,2.374,0s0.655,1.55,0,2.141C62.232,3.387,61.169,3.387,60.514,2.796z"/>
<g display="none">
	<path display="inline" fill="#FFFFFF" d="M72.044-19.231L72.044-19.231c0.01,0.013,0.03,0.038,0.03,0.038
		S72.059-19.213,72.044-19.231z"/>
	<path display="inline" fill="#FFFFFF" d="M72.074-19.509v-10.97H51.272v0.317v0.36h-0.03v2.2v0.82v3.125v5.568v0.513v0.492v3.694
		h20.803v-3.418v-1.281L72.074-19.509z M70.99-22.185c-1.699-1.482-4.4-3.235-7.662-3.235c-1.093,0-2.182,0.201-3.237,0.598
		c-1.805,0.678-3.36,1.022-4.623,1.022c-2.477,0-3.016-1.335-3.111-1.667v-3.926H70.99V-22.185z"/>
</g>
<g>
	<g>
		<path fill="#FFFFFF" d="M114.886-6.847c0.687,0,1.274-0.242,1.758-0.725c0.484-0.485,0.726-1.071,0.726-1.759
			c0-0.675-0.242-1.255-0.726-1.738c-0.484-0.485-1.058-0.727-1.72-0.727s-1.255,0.242-1.777,0.727
			c-0.484,0.484-0.726,1.058-0.726,1.719c0,0.713,0.235,1.306,0.707,1.777C113.611-7.089,114.198-6.847,114.886-6.847z"/>
		<path fill="#FFFFFF" d="M118.353-4.131c0-0.764-0.619-1.383-1.383-1.383h-4.149c-0.764,0-1.383,0.619-1.383,1.383v10.46h1.654
			v10.06h3.607V6.328h1.654V-4.131z"/>
	</g>
	<g>
		<path fill="#FFFFFF" d="M126.67-6.847c0.687,0,1.274-0.242,1.758-0.725c0.484-0.485,0.726-1.071,0.726-1.759
			c0-0.675-0.242-1.255-0.726-1.738c-0.484-0.485-1.058-0.727-1.72-0.727s-1.255,0.242-1.777,0.727
			c-0.484,0.484-0.726,1.058-0.726,1.719c0,0.713,0.235,1.306,0.707,1.777C125.396-7.089,125.982-6.847,126.67-6.847z"/>
		<path fill="#FFFFFF" d="M130.137-4.131c0-0.764-0.619-1.383-1.383-1.383h-4.149c-0.764,0-1.383,0.619-1.383,1.383v10.46h1.654
			v10.06h3.607V6.328h1.654V-4.131z"/>
	</g>
	<g>
		<g>
			<rect x="109.06" y="18.742" fill="#FFFFFF" width="22.801" height="1.629"/>
			<path fill="#FFFFFF" d="M131.986,20.496h-23.051v-1.879h23.051V20.496z M109.185,20.246h22.551v-1.379h-22.551V20.246z"/>
		</g>
		<g>
			<g>
				<rect x="108.653" y="16.909" fill="#FFFFFF" width="0.815" height="5.295"/>
				<path fill="#FFFFFF" d="M109.593,22.329h-1.064v-5.545h1.064V22.329z M108.778,22.079h0.564v-5.045h-0.564V22.079z"/>
			</g>
		</g>
		<g>
			<g>
				<rect x="131.454" y="16.909" fill="#FFFFFF" width="0.815" height="5.295"/>
				<path fill="#FFFFFF" d="M132.393,22.329h-1.064v-5.545h1.064V22.329z M131.579,22.079h0.564v-5.045h-0.564V22.079z"/>
			</g>
		</g>
	</g>
</g>
<g>
	<path fill="#FFFFFF" d="M48.728-25.003h4.939v21.668h-2.792v-19.184h-2.147V-25.003z"/>
	<path fill="#FFFFFF" d="M60.102-18.07c0.458,0,0.856,0.173,1.193,0.52c0.337,0.337,0.505,0.739,0.505,1.207
		c0,0.486-0.168,0.897-0.505,1.234s-0.744,0.506-1.221,0.506c-0.487,0-0.898-0.169-1.235-0.506
		c-0.337-0.346-0.505-0.758-0.505-1.234c0-0.486,0.168-0.894,0.505-1.222C59.185-17.901,59.606-18.07,60.102-18.07z M60.102-6.604
		c0.458,0,0.856,0.174,1.193,0.521c0.337,0.338,0.505,0.746,0.505,1.226s-0.168,0.888-0.505,1.226
		c-0.355,0.329-0.763,0.493-1.221,0.493c-0.244,0-0.47-0.045-0.681-0.134s-0.396-0.211-0.554-0.366
		c-0.159-0.155-0.283-0.338-0.372-0.55c-0.089-0.211-0.133-0.438-0.133-0.684c0-0.479,0.168-0.887,0.505-1.226
		C59.185-6.435,59.606-6.604,60.102-6.604z"/>
	<path fill="#FFFFFF" d="M67.504-25.003h6.891v2.512h-4.673l-0.702,5.445h0.351c0.851,0,1.607,0.136,2.267,0.407
		c0.659,0.271,1.214,0.669,1.663,1.192c0.449,0.524,0.791,1.17,1.024,1.937c0.234,0.768,0.351,1.643,0.351,2.625
		c0,2.433-0.529,4.346-1.586,5.739c-1.057,1.376-2.526,2.063-4.406,2.063c-1.058,0-2.204-0.3-3.438-0.898l0.73-2.582
		c1.001,0.523,1.838,0.786,2.512,0.786c0.955,0,1.712-0.431,2.273-1.292c0.562-0.869,0.842-2.039,0.842-3.508
		c0-2.778-1.193-4.168-3.579-4.168c-0.589,0-1.184,0.089-1.782,0.267L67.504-25.003z"/>
</g>
<g>
	<polygon fill="#FFFFFF" points="-12.85,-1.004 -12.85,6.009 -16.119,6.009 -10.262,11.422 -4.475,6.021 -7.62,6.009 -7.62,-1.004 	
		"/>
	<g>
		<path fill="#FFFFFF" d="M-14.318,9.715h-11.213v8.066h14.555v-5.069c-0.104-0.057-0.213-0.105-0.304-0.189L-14.318,9.715z"/>
		<path fill="#FFFFFF" d="M-17.336,6.861H-19.2l-2.424-2.305h-2.782l-1.125,0.842v2.615h9.371l-0.976-0.902
			C-17.217,7.037-17.275,6.948-17.336,6.861z"/>
	</g>
</g>
<g>
	<polygon fill="#FFFFFF" points="17.32,12.565 17.32,5.596 20.569,5.596 14.749,0.216 8.997,5.584 12.123,5.596 12.123,12.565 	"/>
	<g>
		<path fill="#FFFFFF" d="M10.623,12.565V9.767H0.431v8.017h14.466v-3.718h-2.774C11.294,14.065,10.623,13.394,10.623,12.565z"/>
		<path fill="#FFFFFF" d="M8.991,7.084C8.77,7.083,8.564,7.019,8.372,6.93H6.723L4.315,4.639H1.55L0.431,5.476v2.599h10.192V7.09
			L8.991,7.084z"/>
	</g>
</g>
</svg>
