<?xml version="1.0" encoding="utf-8"?>
<!-- Generator: Adobe Illustrator 17.0.2, SVG Export Plug-In . SVG Version: 6.00 Build 0)  -->
<!DOCTYPE svg PUBLIC "-//W3C//DTD SVG 1.1//EN" "http://www.w3.org/Graphics/SVG/1.1/DTD/svg11.dtd">
<svg version="1.1" id="Ebene_1" xmlns="http://www.w3.org/2000/svg" xmlns:xlink="http://www.w3.org/1999/xlink" x="0px" y="0px"
	 width="21px" height="18px" viewBox="0 0 21 18" enable-background="new 0 0 21 18" xml:space="preserve">
<g display="none">
	<path display="inline" fill="#FFFFFF" d="M54.027-26.093c0.854,0,1.582-0.3,2.183-0.901c0.6-0.602,0.902-1.33,0.902-2.184
		c0-0.839-0.301-1.558-0.902-2.159c-0.601-0.602-1.313-0.902-2.136-0.902s-1.558,0.3-2.206,0.902
		c-0.601,0.6-0.902,1.313-0.902,2.135c0,0.886,0.292,1.622,0.878,2.207C52.445-26.393,53.173-26.093,54.027-26.093z"/>
	<path display="inline" fill="#FFFFFF" d="M56.615-24.438h-5.153c-0.949,0-1.718,0.769-1.718,1.718v12.989H51.8V2.761h4.479V-9.731
		h2.055V-22.72C58.333-23.669,57.564-24.438,56.615-24.438z"/>
	<path display="inline" fill="#FFFFFF" d="M68.056-26.093c0.854,0,1.582-0.3,2.183-0.901c0.6-0.602,0.902-1.33,0.902-2.184
		c0-0.839-0.301-1.558-0.902-2.159c-0.601-0.602-1.313-0.902-2.136-0.902s-1.558,0.3-2.206,0.902
		c-0.601,0.6-0.902,1.313-0.902,2.135c0,0.886,0.292,1.622,0.878,2.207C66.474-26.393,67.202-26.093,68.056-26.093z"/>
	<path display="inline" fill="#FFFFFF" d="M70.644-24.438h-5.153c-0.949,0-1.718,0.769-1.718,1.718v12.989h2.054V2.761h4.479V-9.731
		h2.055V-22.72C72.362-23.669,71.593-24.438,70.644-24.438z"/>
</g>
<g display="none">
	<path display="inline" fill="#FFFFFF" d="M48.521-28.355h25.912l0.246,7.787h-1.096c-0.537-2.446-1.22-4.039-2.047-4.777
		c-0.828-0.738-2.57-1.108-5.225-1.108H63.76v23.45c0,1.765,0.276,2.86,0.828,3.283s1.76,0.701,3.625,0.834v0.85H54.854v-0.85
		c1.939-0.148,3.148-0.467,3.625-0.957s0.716-1.723,0.716-3.697v-22.913h-2.573c-2.536,0-4.263,0.365-5.18,1.096
		s-1.607,2.327-2.07,4.789h-1.119L48.521-28.355z"/>
</g>
<path display="none" fill="#FFFFFF" d="M64.243,2.559v-5.477c0,0,0-7.54,7.801-7.54v-1.249H51.241v1.25c0,0,7.801-0.906,7.801,7.507
	c0,0,0,4.482,0,5.492c0,1.692,1.644,1.971,2.75,1.971C61.794,4.512,64.243,4.768,64.243,2.559z M60.514,2.796
	c-0.656-0.591-0.656-1.55,0-2.141c0.655-0.591,1.719-0.591,2.374,0s0.655,1.55,0,2.141C62.232,3.387,61.169,3.387,60.514,2.796z"/>
<g display="none">
	<path display="inline" fill="#FFFFFF" d="M72.044-19.231L72.044-19.231c0.01,0.013,0.03,0.038,0.03,0.038
		S72.059-19.213,72.044-19.231z"/>
	<path display="inline" fill="#FFFFFF" d="M72.074-19.509v-10.97H51.272v0.317v0.36h-0.03v2.2v0.82v3.125v5.568v0.513v0.492v3.694
		h20.803v-3.418v-1.281L72.074-19.509z M70.99-22.185c-1.699-1.482-4.4-3.235-7.662-3.235c-1.093,0-2.182,0.201-3.237,0.598
		c-1.805,0.678-3.36,1.022-4.623,1.022c-2.477,0-3.016-1.335-3.111-1.667v-3.926H70.99V-22.185z"/>
</g>
<g>
	<polygon fill="#FFFFFF" points="17.32,12.565 17.32,5.596 20.569,5.596 14.749,0.216 8.997,5.584 12.123,5.596 12.123,12.565 	"/>
	<g>
		<path fill="#FFFFFF" d="M10.623,12.565V9.767H0.431v8.017h14.466v-3.718h-2.774C11.294,14.065,10.623,13.394,10.623,12.565z"/>
		<path fill="#FFFFFF" d="M8.991,7.084C8.77,7.083,8.564,7.019,8.372,6.93H6.723L4.315,4.639H1.55L0.431,5.476v2.599h10.192V7.09
			L8.991,7.084z"/>
	</g>
</g>
</svg>
