<?xml version="1.0" encoding="utf-8"?>
<!-- Generator: Adobe Illustrator 17.0.2, SVG Export Plug-In . SVG Version: 6.00 Build 0)  -->
<!DOCTYPE svg PUBLIC "-//W3C//DTD SVG 1.1//EN" "http://www.w3.org/Graphics/SVG/1.1/DTD/svg11.dtd">
<svg version="1.1" id="Ebene_1" xmlns="http://www.w3.org/2000/svg" xmlns:xlink="http://www.w3.org/1999/xlink" x="0px" y="0px"
	 width="22px" height="21px" viewBox="2 0 22 21" enable-background="new 2 0 22 21" xml:space="preserve">
<g>
	<path fill="#FFFFFF" d="M24,0H2v21h12.063c-0.016-3.082,0.005-6.477-0.01-9.442c-0.645-0.007-1.29-0.039-1.934-0.05
		c0.003-1.076,0.001-2.174,0.002-3.249c0.644-0.008,1.289-0.009,1.933-0.016c0.019-1.046-0.019-2.098,0.02-3.144
		c0.064-0.827,0.38-1.664,0.998-2.235c0.749-0.713,1.814-0.955,2.819-0.985c1.062-0.009,2.124-0.004,3.187-0.004
		c0.004,1.121,0.004,2.242-0.001,3.363c-0.687-0.001-1.374,0.002-2.06-0.002c-0.435-0.027-0.883,0.302-0.961,0.735
		c-0.009,0.75-0.003,1.5-0.003,2.25c1.007,0.004,2.014-0.001,3.021,0.003c-0.074,1.085,0.075,2.166-0.083,3.241
		c-0.889,0.008-2.064,0.088-2.952,0.093c-0.008,2.964,0.002,6.361-0.005,9.443H24V0z"/>
</g>
</svg>
