<?xml version="1.0" encoding="utf-8"?>
<!-- Generator: Adobe Illustrator 17.0.2, SVG Export Plug-In . SVG Version: 6.00 Build 0)  -->
<!DOCTYPE svg PUBLIC "-//W3C//DTD SVG 1.1//EN" "http://www.w3.org/Graphics/SVG/1.1/DTD/svg11.dtd">
<svg version="1.1" id="Ebene_1" xmlns="http://www.w3.org/2000/svg" xmlns:xlink="http://www.w3.org/1999/xlink" x="0px" y="0px"
	 width="181.803px" height="31px" viewBox="0 0 181.803 31" enable-background="new 0 0 181.803 31" xml:space="preserve">
<g>
	<rect x="382.389" y="-2.09" fill="#FFFFFF" width="18.635" height="1"/>
	<rect x="382.389" y="4.259" fill="#FFFFFF" width="18.635" height="1"/>
	<rect x="392.429" y="-7.642" fill="#FFFFFF" width="1" height="18.418"/>
	<g>
		<polygon fill="#FFFFFF" points="382.389,-7.132 377.389,-7.132 377.389,-2.09 382.389,-2.09 382.389,-1.09 377.389,-1.09 
			377.389,4.259 382.389,4.259 382.389,5.259 377.389,5.259 377.389,10.791 382.389,10.791 		"/>
		<rect x="382.889" y="-12.632" fill="#FFFFFF" width="9.54" height="4.991"/>
		<polygon fill="#FFFFFF" points="393.429,-7.642 393.429,-12.632 401.023,-12.632 401.023,-7.632 		"/>
		<polygon fill="#FFFFFF" points="377.389,-12.632 377.389,-8.842 377.389,-8.132 381.889,-8.132 381.889,-8.842 381.889,-12.632 		
			"/>
		<rect x="377.389" y="4.259" fill="#999999" width="0" height="1"/>
	</g>
</g>
<g>
	<g>
		<path fill="#FFFFFF" d="M435.332-7.107c0.822,0,1.523-0.289,2.102-0.867c0.578-0.58,0.868-1.281,0.868-2.102
			c0-0.807-0.29-1.5-0.868-2.078c-0.579-0.58-1.264-0.869-2.056-0.869s-1.5,0.289-2.124,0.869c-0.579,0.578-0.868,1.264-0.868,2.056
			c0,0.853,0.281,1.561,0.845,2.125C433.809-7.396,434.51-7.107,435.332-7.107z"/>
		<path fill="#FFFFFF" d="M439.477-3.86c0-0.913-0.74-1.654-1.654-1.654h-4.961c-0.913,0-1.654,0.74-1.654,1.654V8.645h1.978v12.027
			h4.312V8.645h1.978V-3.86z"/>
	</g>
	<g>
		<path fill="#FFFFFF" d="M448.206-7.107c0.822,0,1.523-0.289,2.102-0.867c0.578-0.58,0.868-1.281,0.868-2.102
			c0-0.807-0.29-1.5-0.868-2.078c-0.579-0.58-1.264-0.869-2.056-0.869s-1.5,0.289-2.124,0.869c-0.579,0.578-0.868,1.264-0.868,2.056
			c0,0.853,0.281,1.561,0.845,2.125C446.683-7.396,447.384-7.107,448.206-7.107z"/>
		<path fill="#FFFFFF" d="M452.352-3.86c0-0.913-0.74-1.654-1.654-1.654h-4.961c-0.913,0-1.654,0.74-1.654,1.654V8.645h1.978v12.027
			h4.312V8.645h1.978V-3.86z"/>
	</g>
</g>
<g>
	<g>
		<path fill="#FFFFFF" d="M6.704,7.775c0.57,0,1.056-0.2,1.458-0.601c0.401-0.402,0.602-0.888,0.602-1.458
			c0-0.56-0.201-1.04-0.602-1.441C7.76,3.872,7.285,3.671,6.736,3.671s-1.04,0.2-1.473,0.603C4.861,4.675,4.66,5.151,4.66,5.699
			c0,0.591,0.195,1.083,0.586,1.474C5.648,7.574,6.134,7.775,6.704,7.775z"/>
		<path fill="#FFFFFF" d="M9.579,10.027c0-0.633-0.513-1.147-1.147-1.147h-3.44c-0.633,0-1.147,0.513-1.147,1.147v8.673h1.372v8.342
			h2.99v-8.342h1.372V10.027z"/>
	</g>
	<g>
		<path fill="#FFFFFF" d="M15.482,7.775c0.57,0,1.056-0.2,1.458-0.601c0.401-0.402,0.602-0.888,0.602-1.458
			c0-0.56-0.201-1.04-0.602-1.441c-0.402-0.402-0.877-0.603-1.426-0.603c-0.549,0-1.04,0.2-1.473,0.603
			c-0.402,0.401-0.602,0.877-0.602,1.426c0,0.591,0.195,1.083,0.586,1.474C14.425,7.574,14.911,7.775,15.482,7.775z"/>
		<path fill="#FFFFFF" d="M18.357,10.027c0-0.633-0.513-1.147-1.147-1.147h-3.44c-0.633,0-1.147,0.513-1.147,1.147v8.673h1.372
			v8.342h2.99v-8.342h1.372V10.027z"/>
	</g>
	<g>
		<path fill="#FFFFFF" d="M24.26,7.775c0.57,0,1.056-0.2,1.458-0.601c0.401-0.402,0.602-0.888,0.602-1.458
			c0-0.56-0.201-1.04-0.602-1.441c-0.402-0.402-0.877-0.603-1.426-0.603c-0.549,0-1.04,0.2-1.473,0.603
			c-0.402,0.401-0.602,0.877-0.602,1.426c0,0.591,0.195,1.083,0.586,1.474C23.203,7.574,23.689,7.775,24.26,7.775z"/>
		<path fill="#FFFFFF" d="M27.135,10.027c0-0.633-0.513-1.147-1.147-1.147h-3.44c-0.633,0-1.147,0.513-1.147,1.147v8.673h1.372
			v8.342h2.99v-8.342h1.372V10.027z"/>
	</g>
	<g>
		<path fill="none" stroke="#FFFFFF" stroke-miterlimit="10" d="M0.5,27.665c0,1.566,1.269,2.835,2.835,2.835h24.331
			c1.566,0,2.835-1.269,2.835-2.835V3.335c0-1.566-1.269-2.835-2.835-2.835H3.335C1.769,0.5,0.5,1.769,0.5,3.335V27.665z"/>
	</g>
</g>
<g>
	<path fill="#FFFFFF" d="M130.901,12.473v0.689h-0.736v4.222c0,0.222,0.131,0.334,0.392,0.334c0.095,0,0.209-0.014,0.345-0.042
		v0.661c-0.248,0.054-0.442,0.08-0.583,0.08c-0.254,0-0.466-0.071-0.635-0.212c-0.179-0.152-0.269-0.353-0.269-0.605v-4.439h-0.646
		v-0.689h0.646v-1.54h0.752v1.54H130.901z"/>
	<path fill="#FFFFFF" d="M132.477,10.262v2.895c0.396-0.565,0.873-0.847,1.431-0.847c0.463,0,0.833,0.14,1.108,0.418
		c0.276,0.28,0.414,0.65,0.414,1.113v4.324h-0.741v-3.962c0-0.291-0.076-0.553-0.228-0.79c-0.173-0.275-0.396-0.413-0.672-0.413
		c-0.363,0-0.676,0.155-0.937,0.466c-0.251,0.298-0.375,0.63-0.375,1.002v3.698h-0.741v-7.901H132.477z"/>
	<path fill="#FFFFFF" d="M138.521,17.723c0.388,0,0.696-0.175,0.926-0.526c0.092-0.138,0.198-0.395,0.318-0.77h0.762
		c-0.221,1.323-0.887,1.985-1.995,1.985c-0.776,0-1.343-0.334-1.698-1.001c-0.275-0.519-0.414-1.203-0.414-2.054
		c0-0.801,0.16-1.478,0.478-2.032c0.387-0.677,0.954-1.016,1.698-1.016c0.741,0,1.287,0.352,1.635,1.053
		c0.266,0.534,0.398,1.211,0.398,2.032c0,0.021-0.002,0.082-0.005,0.181h-3.414v0.334c0,0.386,0.099,0.759,0.296,1.12
		C137.759,17.493,138.097,17.723,138.521,17.723z M138.553,12.998c-0.762,0-1.21,0.627-1.344,1.879h2.604
		c0-0.486-0.088-0.897-0.265-1.236C139.325,13.213,138.994,12.998,138.553,12.998z"/>
	<path fill="#FFFFFF" d="M148.229,17.74v0.576l-0.63,0.096c-0.395-0.121-0.613-0.395-0.652-0.826
		c-0.272,0.258-0.487,0.438-0.645,0.539c-0.296,0.191-0.602,0.287-0.916,0.287c-1.03,0-1.545-0.58-1.545-1.738
		c0-0.781,0.328-1.289,0.984-1.525c0.335-0.12,0.67-0.2,1.006-0.239c0.406-0.046,0.646-0.079,0.72-0.101
		c0.243-0.067,0.366-0.212,0.366-0.434v-0.673c-0.072-0.469-0.447-0.705-1.128-0.705c-0.335,0-0.595,0.115-0.777,0.346
		c-0.167,0.209-0.249,0.486-0.249,0.829h-0.703v-0.281c0-0.472,0.186-0.86,0.56-1.164c0.346-0.278,0.762-0.418,1.249-0.418
		c0.441,0,0.835,0.088,1.181,0.265c0.434,0.219,0.652,0.528,0.652,0.927v3.926c0,0.096,0.041,0.176,0.124,0.241
		c0.083,0.066,0.173,0.098,0.267,0.098C148.139,17.766,148.186,17.757,148.229,17.74z M145.051,15.776
		c-0.081,0.047-0.171,0.158-0.269,0.334c-0.115,0.208-0.173,0.406-0.173,0.593c0,0.275,0.072,0.512,0.215,0.709
		c0.162,0.219,0.374,0.328,0.637,0.328c0.435,0,0.804-0.162,1.107-0.487c0.232-0.251,0.348-0.461,0.348-0.63v-1.355
		c-0.187,0.093-0.508,0.179-0.964,0.26C145.508,15.602,145.208,15.685,145.051,15.776z"/>
	<path fill="#FFFFFF" d="M151.96,17.554c-0.322,0.572-0.815,0.859-1.48,0.859c-0.989,0-1.484-0.626-1.484-1.875v-4.065h0.741v4.175
		c0,0.307,0.071,0.556,0.213,0.747c0.155,0.219,0.382,0.328,0.681,0.328c0.425,0,0.762-0.188,1.01-0.566
		c0.213-0.326,0.319-0.713,0.319-1.161v-3.524h0.741v5.69h-0.741V17.554z"/>
	<path fill="#FFFFFF" d="M155.617,12.473v0.689h-0.736v4.222c0,0.222,0.131,0.334,0.392,0.334c0.095,0,0.209-0.014,0.345-0.042
		v0.661c-0.248,0.054-0.442,0.08-0.583,0.08c-0.254,0-0.466-0.071-0.635-0.212c-0.179-0.152-0.269-0.353-0.269-0.605v-4.439h-0.646
		v-0.689h0.646v-1.54h0.752v1.54H155.617z"/>
	<path fill="#FFFFFF" d="M158.264,12.31c0.759,0,1.317,0.338,1.677,1.01c0.282,0.527,0.423,1.206,0.423,2.038
		c0,0.833-0.141,1.513-0.423,2.038c-0.36,0.677-0.919,1.016-1.677,1.016c-0.762,0-1.323-0.338-1.683-1.011
		c-0.282-0.529-0.423-1.21-0.423-2.043c0-0.826,0.142-1.503,0.429-2.032C156.949,12.648,157.509,12.31,158.264,12.31z
		 M159.608,15.358c0-0.59-0.109-1.114-0.328-1.57c-0.254-0.527-0.593-0.79-1.016-0.79c-0.494,0-0.857,0.288-1.09,0.864
		c-0.169,0.418-0.254,0.916-0.254,1.496c0,0.605,0.107,1.131,0.323,1.581c0.249,0.523,0.59,0.784,1.021,0.784
		c0.43,0,0.77-0.261,1.021-0.784C159.5,16.49,159.608,15.963,159.608,15.358z"/>
	<path fill="#FFFFFF" d="M162.144,12.473v0.726c0.261-0.593,0.72-0.889,1.377-0.889c0.649,0,1.07,0.286,1.261,0.857
		c0.141-0.272,0.294-0.469,0.461-0.593c0.24-0.176,0.56-0.265,0.959-0.265c0.904,0,1.356,0.469,1.356,1.408v4.446h-0.741v-4.307
		c0-0.261-0.083-0.47-0.252-0.626c-0.168-0.155-0.385-0.233-0.65-0.233c-0.319,0-0.576,0.127-0.775,0.381
		c-0.187,0.234-0.281,0.513-0.281,0.837v3.947h-0.741v-4.175c0-0.286-0.073-0.519-0.218-0.699c-0.156-0.194-0.375-0.292-0.655-0.292
		c-0.334,0-0.605,0.148-0.814,0.445c-0.192,0.269-0.287,0.576-0.287,0.922v3.799h-0.741v-5.69H162.144z"/>
	<path fill="#FFFFFF" d="M172.935,17.74v0.576l-0.63,0.096c-0.395-0.121-0.613-0.395-0.652-0.826
		c-0.272,0.258-0.487,0.438-0.645,0.539c-0.296,0.191-0.602,0.287-0.916,0.287c-1.03,0-1.545-0.58-1.545-1.738
		c0-0.781,0.328-1.289,0.984-1.525c0.335-0.12,0.67-0.2,1.006-0.239c0.406-0.046,0.646-0.079,0.72-0.101
		c0.243-0.067,0.366-0.212,0.366-0.434v-0.673c-0.072-0.469-0.447-0.705-1.128-0.705c-0.335,0-0.595,0.115-0.777,0.346
		c-0.167,0.209-0.249,0.486-0.249,0.829h-0.703v-0.281c0-0.472,0.186-0.86,0.56-1.164c0.346-0.278,0.762-0.418,1.249-0.418
		c0.441,0,0.835,0.088,1.181,0.265c0.434,0.219,0.652,0.528,0.652,0.927v3.926c0,0.096,0.041,0.176,0.124,0.241
		c0.083,0.066,0.173,0.098,0.267,0.098C172.846,17.766,172.893,17.757,172.935,17.74z M169.757,15.776
		c-0.081,0.047-0.171,0.158-0.269,0.334c-0.115,0.208-0.173,0.406-0.173,0.593c0,0.275,0.072,0.512,0.215,0.709
		c0.162,0.219,0.374,0.328,0.637,0.328c0.435,0,0.804-0.162,1.107-0.487c0.232-0.251,0.348-0.461,0.348-0.63v-1.355
		c-0.187,0.093-0.508,0.179-0.964,0.26C170.215,15.602,169.915,15.685,169.757,15.776z"/>
	<path fill="#FFFFFF" d="M175.38,12.473v0.689h-0.736v4.222c0,0.222,0.131,0.334,0.392,0.334c0.095,0,0.209-0.014,0.345-0.042v0.661
		c-0.248,0.054-0.442,0.08-0.583,0.08c-0.254,0-0.466-0.071-0.635-0.212c-0.179-0.152-0.269-0.353-0.269-0.605v-4.439h-0.646v-0.689
		h0.646v-1.54h0.752v1.54H175.38z"/>
	<path fill="#FFFFFF" d="M176.184,11.389v-1.127h0.741v1.127H176.184z M176.184,18.163v-5.69h0.741v5.69H176.184z"/>
	<path fill="#FFFFFF" d="M179.798,18.413c-0.716,0-1.243-0.366-1.582-1.096c-0.254-0.547-0.381-1.226-0.381-2.037
		c0-0.755,0.154-1.409,0.466-1.959c0.376-0.673,0.915-1.01,1.614-1.01c0.603,0,1.073,0.2,1.408,0.599
		c0.303,0.367,0.463,0.861,0.481,1.482h-0.735c-0.025-0.387-0.124-0.703-0.296-0.952c-0.201-0.294-0.483-0.441-0.847-0.441
		c-0.441,0-0.78,0.298-1.016,0.892c-0.173,0.442-0.26,0.922-0.26,1.442c0,0.588,0.075,1.087,0.223,1.496
		c0.218,0.597,0.569,0.896,1.053,0.896c0.632,0,1.02-0.508,1.164-1.524h0.714c-0.025,0.767-0.251,1.343-0.677,1.731
		C180.769,18.251,180.327,18.413,179.798,18.413z"/>
	<path fill="#FFFFFF" d="M129.233,21.024v-1.127h0.741v1.127H129.233z M129.233,27.798v-5.69h0.741v5.69H129.233z"/>
	<path fill="#FFFFFF" d="M132.808,27.385c0.772,0,1.156-0.332,1.156-0.995c0-0.459-0.168-0.737-0.507-0.836
		c-0.616-0.18-1.133-0.356-1.548-0.529c-0.585-0.247-0.876-0.721-0.876-1.423c0-0.505,0.161-0.907,0.487-1.207
		c0.323-0.3,0.741-0.45,1.249-0.45c1.135,0,1.712,0.586,1.73,1.757h-0.735c0-0.713-0.355-1.069-1.064-1.069
		c-0.247,0-0.466,0.095-0.656,0.286s-0.286,0.41-0.286,0.657c0,0.392,0.183,0.667,0.55,0.826c0.025,0.011,0.336,0.108,0.936,0.292
		c0.452,0.138,0.766,0.272,0.943,0.403c0.345,0.254,0.518,0.652,0.518,1.191c0,0.555-0.176,0.99-0.529,1.309
		c-0.335,0.307-0.783,0.46-1.343,0.46c-1.275,0-1.911-0.645-1.911-1.936h0.702c0.021,0.318,0.113,0.59,0.275,0.82
		C132.111,27.237,132.413,27.385,132.808,27.385z"/>
	<path fill="#FFFFFF" d="M137.495,21.945c0.759,0,1.317,0.338,1.677,1.01c0.282,0.527,0.423,1.206,0.423,2.038
		s-0.141,1.513-0.423,2.038c-0.36,0.677-0.919,1.016-1.677,1.016c-0.762,0-1.323-0.338-1.683-1.011
		c-0.282-0.529-0.423-1.21-0.423-2.043c0-0.826,0.142-1.503,0.429-2.032C136.18,22.283,136.74,21.945,137.495,21.945z
		 M138.84,24.993c0-0.59-0.109-1.114-0.328-1.57c-0.254-0.527-0.593-0.79-1.016-0.79c-0.494,0-0.857,0.288-1.09,0.864
		c-0.169,0.418-0.254,0.916-0.254,1.496c0,0.605,0.107,1.131,0.323,1.581c0.249,0.523,0.59,0.784,1.021,0.784
		c0.43,0,0.77-0.261,1.021-0.784C138.731,26.125,138.84,25.598,138.84,24.993z"/>
	<path fill="#FFFFFF" d="M142.265,22.108v0.689h-0.736v4.222c0,0.222,0.131,0.334,0.392,0.334c0.095,0,0.209-0.014,0.345-0.042
		v0.661c-0.248,0.054-0.442,0.08-0.583,0.08c-0.254,0-0.466-0.071-0.635-0.212c-0.179-0.152-0.269-0.353-0.269-0.605v-4.439h-0.646
		v-0.689h0.646v-1.54h0.752v1.54H142.265z"/>
	<path fill="#FFFFFF" d="M144.613,29.116c-0.215,0.716-0.625,1.071-1.228,1.064c-0.169,0-0.316-0.048-0.44-0.143v-0.688
		c0.148,0.071,0.285,0.106,0.408,0.106c0.229,0,0.414-0.222,0.556-0.667l0.285-0.9l-1.54-5.78h0.789l1.195,4.304l1.287-4.304h0.804
		L144.613,29.116z"/>
	<path fill="#FFFFFF" d="M147.397,22.108h0.65v0.715c0.141-0.265,0.342-0.478,0.605-0.637c0.26-0.161,0.539-0.241,0.835-0.241
		c0.702,0,1.24,0.327,1.609,0.98c0.318,0.557,0.478,1.275,0.478,2.154c0,0.745-0.143,1.39-0.43,1.937
		c-0.36,0.688-0.88,1.033-1.558,1.033c-0.668,0-1.15-0.287-1.447-0.859v2.991h-0.741V22.108z M148.138,24.837
		c0,0.583,0.08,1.088,0.239,1.516c0.229,0.603,0.588,0.906,1.076,0.906c0.478,0,0.826-0.279,1.046-0.837
		c0.159-0.399,0.238-0.88,0.238-1.441c0-0.555-0.085-1.046-0.254-1.474c-0.233-0.582-0.587-0.874-1.061-0.874
		c-0.409,0-0.737,0.261-0.981,0.784C148.239,23.851,148.138,24.325,148.138,24.837z"/>
	<path fill="#FFFFFF" d="M154.331,27.358c0.388,0,0.696-0.175,0.926-0.526c0.092-0.138,0.198-0.395,0.318-0.77h0.762
		c-0.221,1.323-0.887,1.985-1.995,1.985c-0.776,0-1.343-0.334-1.698-1.001c-0.275-0.519-0.414-1.203-0.414-2.054
		c0-0.801,0.16-1.478,0.478-2.032c0.387-0.677,0.954-1.016,1.698-1.016c0.741,0,1.287,0.352,1.635,1.053
		c0.266,0.534,0.398,1.211,0.398,2.032c0,0.021-0.002,0.082-0.005,0.181h-3.414v0.334c0,0.386,0.099,0.759,0.296,1.12
		C153.569,27.128,153.907,27.358,154.331,27.358z M154.362,22.633c-0.762,0-1.21,0.627-1.344,1.879h2.604
		c0-0.486-0.088-0.897-0.265-1.236C155.135,22.848,154.804,22.633,154.362,22.633z"/>
	<path fill="#FFFFFF" d="M157.226,25.088v-0.682h2.111v0.682H157.226z"/>
	<path fill="#FFFFFF" d="M162.027,22.108v0.689h-0.736v4.222c0,0.222,0.131,0.334,0.392,0.334c0.095,0,0.209-0.014,0.345-0.042
		v0.661c-0.248,0.054-0.442,0.08-0.583,0.08c-0.254,0-0.466-0.071-0.635-0.212c-0.179-0.152-0.269-0.353-0.269-0.605v-4.439h-0.646
		v-0.689h0.646v-1.54h0.752v1.54H162.027z"/>
	<path fill="#FFFFFF" d="M164.674,21.945c0.759,0,1.317,0.338,1.677,1.01c0.282,0.527,0.423,1.206,0.423,2.038
		s-0.141,1.513-0.423,2.038c-0.36,0.677-0.919,1.016-1.677,1.016c-0.762,0-1.323-0.338-1.683-1.011
		c-0.282-0.529-0.423-1.21-0.423-2.043c0-0.826,0.142-1.503,0.429-2.032C163.359,22.283,163.919,21.945,164.674,21.945z
		 M166.018,24.993c0-0.59-0.109-1.114-0.328-1.57c-0.254-0.527-0.593-0.79-1.016-0.79c-0.494,0-0.857,0.288-1.09,0.864
		c-0.169,0.418-0.254,0.916-0.254,1.496c0,0.605,0.107,1.131,0.323,1.581c0.249,0.523,0.59,0.784,1.021,0.784
		c0.43,0,0.77-0.261,1.021-0.784C165.91,26.125,166.018,25.598,166.018,24.993z"/>
	<path fill="#FFFFFF" d="M169.617,21.945c0.759,0,1.317,0.338,1.677,1.01c0.282,0.527,0.423,1.206,0.423,2.038
		s-0.141,1.513-0.423,2.038c-0.36,0.677-0.919,1.016-1.677,1.016c-0.762,0-1.323-0.338-1.683-1.011
		c-0.282-0.529-0.423-1.21-0.423-2.043c0-0.826,0.142-1.503,0.429-2.032C168.302,22.283,168.862,21.945,169.617,21.945z
		 M170.961,24.993c0-0.59-0.109-1.114-0.328-1.57c-0.254-0.527-0.593-0.79-1.016-0.79c-0.494,0-0.857,0.288-1.09,0.864
		c-0.169,0.418-0.254,0.916-0.254,1.496c0,0.605,0.107,1.131,0.323,1.581c0.249,0.523,0.59,0.784,1.021,0.784
		c0.43,0,0.77-0.261,1.021-0.784C170.853,26.125,170.961,25.598,170.961,24.993z"/>
	<path fill="#FFFFFF" d="M173.481,19.897v7.901h-0.741v-7.901H173.481z"/>
</g>
<g>
	<path fill="#FFFFFF" d="M39.794,3.293c0.572,0,1.067,0.209,1.485,0.627c0.417,0.417,0.627,0.918,0.627,1.501
		c0,0.594-0.209,1.1-0.627,1.518c-0.418,0.417-0.924,0.626-1.518,0.626c-0.594,0-1.1-0.209-1.518-0.626
		c-0.408-0.407-0.61-0.919-0.61-1.535c0-0.571,0.209-1.067,0.627-1.484C38.711,3.502,39.222,3.293,39.794,3.293z M38.31,10.552
		h3.167v17.074H38.31V10.552z"/>
	<path fill="#FFFFFF" d="M51.6,10.903v2.964c-0.77-0.571-1.578-0.857-2.425-0.857c-0.286,0-0.55,0.049-0.792,0.148
		c-0.242,0.099-0.454,0.233-0.635,0.403c-0.182,0.17-0.325,0.373-0.429,0.61c-0.104,0.236-0.157,0.486-0.157,0.75
		c0,0.813,0.737,1.779,2.211,2.9c0.594,0.462,1.089,0.89,1.484,1.285c0.396,0.395,0.698,0.77,0.907,1.121
		c0.429,0.693,0.644,1.565,0.644,2.62c0,1.526-0.445,2.752-1.336,3.674c-0.88,0.912-2.062,1.368-3.547,1.368
		c-0.913,0-1.837-0.271-2.772-0.813v-3.063c0.913,0.681,1.776,1.023,2.59,1.023c1.441,0,2.161-0.709,2.161-2.126
		c0-0.527-0.132-0.983-0.396-1.368c-0.121-0.187-0.314-0.403-0.577-0.651c-0.264-0.247-0.589-0.525-0.974-0.833
		c-1.33-1.033-2.232-1.901-2.705-2.604c-0.462-0.724-0.693-1.598-0.693-2.62c0-1.372,0.423-2.499,1.27-3.378
		c0.858-0.868,1.974-1.301,3.349-1.301C49.747,10.156,50.687,10.405,51.6,10.903z"/>
	<path fill="#FFFFFF" d="M65.011,19.229c0,5.773-1.787,8.66-5.361,8.66c-3.575,0-5.362-2.93-5.362-8.792
		c0-5.884,1.782-8.826,5.345-8.826c0.924,0,1.724,0.176,2.4,0.528c0.676,0.352,1.234,0.897,1.674,1.632
		c0.44,0.737,0.767,1.666,0.982,2.788C64.904,16.342,65.011,17.678,65.011,19.229z M61.745,19.146c0-2.244-0.149-3.805-0.445-4.684
		c-0.297-0.891-0.825-1.336-1.584-1.336c-0.748,0-1.282,0.44-1.6,1.319c-0.297,0.88-0.445,2.415-0.445,4.602
		c0,2.189,0.148,3.717,0.445,4.586c0.319,0.88,0.852,1.32,1.6,1.32c0.747,0,1.27-0.435,1.567-1.304
		C61.591,22.836,61.745,21.335,61.745,19.146z"/>
	<path fill="#FFFFFF" d="M67.948,10.552h3.151v2.111c0.869-1.594,2.023-2.392,3.464-2.392c1.572,0,2.639,0.798,3.2,2.392
		c0.835-1.594,2.023-2.392,3.563-2.392c1.199,0,2.114,0.316,2.747,0.949c0.632,0.632,0.949,1.564,0.949,2.796v13.609h-3.168V16.392
		c0-1.287-0.121-2.15-0.363-2.59c-0.231-0.451-0.682-0.676-1.353-0.676c-0.759,0-1.276,0.231-1.551,0.693
		c-0.264,0.451-0.396,1.308-0.396,2.574v11.234h-3.266V16.392c0-0.605-0.03-1.116-0.091-1.535c-0.06-0.417-0.162-0.753-0.305-1.006
		s-0.33-0.437-0.561-0.553c-0.231-0.115-0.517-0.173-0.858-0.173c-0.726,0-1.243,0.247-1.551,0.742
		c-0.308,0.496-0.462,1.336-0.462,2.525v11.234h-3.151V10.552z"/>
	<path fill="#FFFFFF" d="M98.334,10.552v17.074h-3.151v-2.195c-0.451,0.935-0.902,1.579-1.353,1.93
		c-0.451,0.352-1.045,0.528-1.782,0.528c-1.419,0-2.457-0.725-3.117-2.177c-0.66-1.452-0.99-3.728-0.99-6.83
		c0-2.958,0.33-5.133,0.99-6.524s1.699-2.087,3.117-2.087c1.298,0,2.343,0.737,3.134,2.211v-1.93H98.334z M91.207,19.014
		c0,2.244,0.149,3.811,0.445,4.702c0.308,0.891,0.847,1.336,1.617,1.336c0.704,0,1.215-0.462,1.535-1.386
		c0.318-0.989,0.478-2.512,0.478-4.569c0-2.067-0.16-3.596-0.478-4.586c-0.32-0.924-0.831-1.385-1.535-1.385
		c-0.748,0-1.281,0.44-1.6,1.319C91.361,15.258,91.207,16.782,91.207,19.014z"/>
	<path fill="#FFFFFF" d="M102.292,5.768h3.152v4.784h1.715v2.507h-1.715v14.567h-3.152V13.059h-1.73v-2.507h1.73V5.768z"/>
	<path fill="#FFFFFF" d="M110.905,3.293c0.571,0,1.066,0.209,1.484,0.627c0.417,0.417,0.626,0.918,0.626,1.501
		c0,0.594-0.209,1.1-0.626,1.518c-0.419,0.417-0.925,0.626-1.517,0.626c-0.595,0-1.101-0.209-1.518-0.626
		c-0.408-0.407-0.611-0.919-0.611-1.535c0-0.571,0.21-1.067,0.627-1.484C109.82,3.502,110.332,3.293,110.905,3.293z M109.419,10.552
		h3.167v17.074h-3.167V10.552z"/>
	<path fill="#FFFFFF" d="M123.111,10.882v3.216c-0.44-0.539-0.968-0.808-1.584-0.808c-1.737,0-2.606,1.881-2.606,5.641
		c0,3.993,0.864,5.989,2.59,5.989c0.484,0,1.017-0.215,1.6-0.644v2.952c-0.835,0.44-1.681,0.66-2.54,0.66
		c-3.387,0-5.082-2.881-5.082-8.644c0-3.068,0.419-5.331,1.255-6.788c0.835-1.458,2.134-2.186,3.892-2.186
		C121.483,10.271,122.309,10.475,123.111,10.882z"/>
</g>
</svg>
