<?xml version="1.0" encoding="utf-8"?>
<!-- Generator: Adobe Illustrator 17.0.2, SVG Export Plug-In . SVG Version: 6.00 Build 0)  -->
<!DOCTYPE svg PUBLIC "-//W3C//DTD SVG 1.1//EN" "http://www.w3.org/Graphics/SVG/1.1/DTD/svg11.dtd">
<svg version="1.1" id="Ebene_1" xmlns="http://www.w3.org/2000/svg" xmlns:xlink="http://www.w3.org/1999/xlink" x="0px" y="0px"
	 width="186.829px" height="31px" viewBox="0 0 186.829 31" enable-background="new 0 0 186.829 31" xml:space="preserve">
<g>
	<g>
		<path fill="#FFFFFF" d="M6.704,7.775c0.57,0,1.056-0.2,1.458-0.601c0.401-0.402,0.602-0.888,0.602-1.458
			c0-0.56-0.201-1.04-0.602-1.441C7.76,3.872,7.285,3.671,6.736,3.671s-1.04,0.2-1.473,0.603C4.861,4.675,4.66,5.151,4.66,5.699
			c0,0.591,0.195,1.083,0.586,1.474C5.648,7.574,6.134,7.775,6.704,7.775z"/>
		<path fill="#FFFFFF" d="M9.579,10.027c0-0.633-0.513-1.147-1.147-1.147h-3.44c-0.633,0-1.147,0.513-1.147,1.147V18.7h1.372v8.342
			h2.99V18.7h1.372C9.579,18.7,9.579,10.027,9.579,10.027z"/>
	</g>
	<g>
		<path fill="#FFFFFF" d="M15.482,7.775c0.57,0,1.056-0.2,1.458-0.601c0.401-0.402,0.602-0.888,0.602-1.458
			c0-0.56-0.201-1.04-0.602-1.441c-0.402-0.402-0.877-0.603-1.426-0.603c-0.549,0-1.04,0.2-1.473,0.603
			c-0.402,0.401-0.602,0.877-0.602,1.426c0,0.591,0.195,1.083,0.586,1.474C14.425,7.574,14.911,7.775,15.482,7.775z"/>
		<path fill="#FFFFFF" d="M18.357,10.027c0-0.633-0.513-1.147-1.147-1.147h-3.44c-0.633,0-1.147,0.513-1.147,1.147V18.7h1.372v8.342
			h2.99V18.7h1.372V10.027z"/>
	</g>
	<g>
		<path fill="#FFFFFF" d="M24.26,7.775c0.57,0,1.056-0.2,1.458-0.601c0.401-0.402,0.602-0.888,0.602-1.458
			c0-0.56-0.201-1.04-0.602-1.441c-0.402-0.402-0.877-0.603-1.426-0.603s-1.04,0.2-1.473,0.603
			c-0.402,0.401-0.602,0.877-0.602,1.426c0,0.591,0.195,1.083,0.586,1.474C23.203,7.574,23.689,7.775,24.26,7.775z"/>
		<path fill="#FFFFFF" d="M27.135,10.027c0-0.633-0.513-1.147-1.147-1.147h-3.44c-0.633,0-1.147,0.513-1.147,1.147V18.7h1.372v8.342
			h2.99V18.7h1.372V10.027z"/>
	</g>
	<g>
		<path fill="none" stroke="#FFFFFF" stroke-miterlimit="10" d="M0.5,27.665c0,1.566,1.269,2.835,2.835,2.835h24.331
			c1.566,0,2.835-1.269,2.835-2.835V3.335c0-1.566-1.269-2.835-2.835-2.835H3.335C1.769,0.5,0.5,1.769,0.5,3.335V27.665z"/>
	</g>
</g>
<g>
	<path fill="#FFFFFF" d="M39.794,3.293c0.572,0,1.067,0.209,1.485,0.627c0.417,0.417,0.627,0.918,0.627,1.501
		c0,0.594-0.209,1.1-0.627,1.518c-0.418,0.417-0.924,0.626-1.518,0.626s-1.1-0.209-1.518-0.626c-0.408-0.407-0.61-0.919-0.61-1.535
		c0-0.571,0.209-1.067,0.627-1.484C38.711,3.502,39.222,3.293,39.794,3.293z M38.31,10.552h3.167v17.074H38.31V10.552z"/>
	<path fill="#FFFFFF" d="M51.6,10.903v2.964c-0.77-0.571-1.578-0.857-2.425-0.857c-0.286,0-0.55,0.049-0.792,0.148
		s-0.454,0.233-0.635,0.403c-0.182,0.17-0.325,0.373-0.429,0.61c-0.104,0.236-0.157,0.486-0.157,0.75c0,0.813,0.737,1.779,2.211,2.9
		c0.594,0.462,1.089,0.89,1.484,1.285c0.396,0.395,0.698,0.77,0.907,1.121c0.429,0.693,0.644,1.565,0.644,2.62
		c0,1.526-0.445,2.752-1.336,3.674c-0.88,0.912-2.062,1.368-3.547,1.368c-0.913,0-1.837-0.271-2.772-0.813v-3.063
		c0.913,0.681,1.776,1.023,2.59,1.023c1.441,0,2.161-0.709,2.161-2.126c0-0.527-0.132-0.983-0.396-1.368
		c-0.121-0.187-0.314-0.403-0.577-0.651c-0.264-0.247-0.589-0.525-0.974-0.833c-1.33-1.033-2.232-1.901-2.705-2.604
		c-0.462-0.724-0.693-1.598-0.693-2.62c0-1.372,0.423-2.499,1.27-3.378c0.858-0.868,1.974-1.301,3.349-1.301
		C49.747,10.156,50.687,10.405,51.6,10.903z"/>
	<path fill="#FFFFFF" d="M65.011,19.229c0,5.773-1.787,8.66-5.361,8.66c-3.575,0-5.362-2.93-5.362-8.792
		c0-5.884,1.782-8.826,5.345-8.826c0.924,0,1.724,0.176,2.4,0.528c0.676,0.352,1.234,0.897,1.674,1.632
		c0.44,0.737,0.767,1.666,0.982,2.788C64.904,16.342,65.011,17.678,65.011,19.229z M61.745,19.146c0-2.244-0.149-3.805-0.445-4.684
		c-0.297-0.891-0.825-1.336-1.584-1.336c-0.748,0-1.282,0.44-1.6,1.319c-0.297,0.88-0.445,2.415-0.445,4.602
		c0,2.189,0.148,3.717,0.445,4.586c0.319,0.88,0.852,1.32,1.6,1.32c0.747,0,1.27-0.435,1.567-1.304
		C61.591,22.836,61.745,21.335,61.745,19.146z"/>
	<path fill="#FFFFFF" d="M67.948,10.552h3.151v2.111c0.869-1.594,2.023-2.392,3.464-2.392c1.572,0,2.639,0.798,3.2,2.392
		c0.835-1.594,2.023-2.392,3.563-2.392c1.199,0,2.114,0.316,2.747,0.949c0.632,0.632,0.949,1.564,0.949,2.796v13.609h-3.168V16.392
		c0-1.287-0.121-2.15-0.363-2.59c-0.231-0.451-0.682-0.676-1.353-0.676c-0.759,0-1.276,0.231-1.551,0.693
		c-0.264,0.451-0.396,1.308-0.396,2.574v11.234h-3.266V16.392c0-0.605-0.03-1.116-0.091-1.535c-0.06-0.417-0.162-0.753-0.305-1.006
		s-0.33-0.437-0.561-0.553c-0.231-0.115-0.517-0.173-0.858-0.173c-0.726,0-1.243,0.247-1.551,0.742
		c-0.308,0.496-0.462,1.336-0.462,2.525v11.234h-3.151V10.552H67.948z"/>
	<path fill="#FFFFFF" d="M98.334,10.552v17.074h-3.151v-2.195c-0.451,0.935-0.902,1.579-1.353,1.93
		c-0.451,0.352-1.045,0.528-1.782,0.528c-1.419,0-2.457-0.725-3.117-2.177c-0.66-1.452-0.99-3.728-0.99-6.83
		c0-2.958,0.33-5.133,0.99-6.524s1.699-2.087,3.117-2.087c1.298,0,2.343,0.737,3.134,2.211v-1.93H98.334z M91.207,19.014
		c0,2.244,0.149,3.811,0.445,4.702c0.308,0.891,0.847,1.336,1.617,1.336c0.704,0,1.215-0.462,1.535-1.386
		c0.318-0.989,0.478-2.512,0.478-4.569c0-2.067-0.16-3.596-0.478-4.586c-0.32-0.924-0.831-1.385-1.535-1.385
		c-0.748,0-1.281,0.44-1.6,1.319C91.361,15.258,91.207,16.782,91.207,19.014z"/>
	<path fill="#FFFFFF" d="M102.292,5.768h3.152v4.784h1.715v2.507h-1.715v14.567h-3.152V13.059h-1.73v-2.507h1.73V5.768z"/>
	<path fill="#FFFFFF" d="M110.905,3.293c0.571,0,1.066,0.209,1.484,0.627c0.417,0.417,0.626,0.918,0.626,1.501
		c0,0.594-0.209,1.1-0.626,1.518c-0.419,0.417-0.925,0.626-1.517,0.626c-0.595,0-1.101-0.209-1.518-0.626
		c-0.408-0.407-0.611-0.919-0.611-1.535c0-0.571,0.21-1.067,0.627-1.484C109.82,3.502,110.332,3.293,110.905,3.293z M109.419,10.552
		h3.167v17.074h-3.167V10.552z"/>
	<path fill="#FFFFFF" d="M123.111,10.882v3.216c-0.44-0.539-0.968-0.808-1.584-0.808c-1.737,0-2.606,1.881-2.606,5.641
		c0,3.993,0.864,5.989,2.59,5.989c0.484,0,1.017-0.215,1.6-0.644v2.952c-0.835,0.44-1.681,0.66-2.54,0.66
		c-3.387,0-5.082-2.881-5.082-8.644c0-3.068,0.419-5.331,1.255-6.788c0.835-1.458,2.134-2.186,3.892-2.186
		C121.483,10.271,122.309,10.475,123.111,10.882z"/>
</g>
<g>
	<path fill="#FFFFFF" d="M130.366,17.087c0.196,0,0.408-0.049,0.636-0.147v1.092c-0.228,0.158-0.569,0.237-1.024,0.237
		c-0.508,0-0.884-0.152-1.129-0.454c-0.244-0.303-0.367-0.757-0.367-1.362v-3.03h-0.567v-0.625l0.729-0.504l0.357-1.239h0.893v1.26
		h1.061v1.108h-1.061v3.077C129.893,16.891,130.051,17.087,130.366,17.087z"/>
	<path fill="#FFFFFF" d="M134.734,18.164v-3.487c0-0.858-0.216-1.286-0.645-1.286c-0.323,0-0.548,0.169-0.678,0.506
		c-0.13,0.338-0.195,0.824-0.195,1.457v2.809h-1.396v-8.17h1.396v1.817c0,0.234-0.021,0.653-0.063,1.255h0.074
		c0.28-0.574,0.71-0.861,1.291-0.861c0.536,0,0.94,0.181,1.213,0.544c0.273,0.362,0.41,0.895,0.41,1.599v3.818H134.734z"/>
	<path fill="#FFFFFF" d="M139.428,18.269c-0.731,0-1.308-0.26-1.73-0.78c-0.422-0.519-0.633-1.255-0.633-2.208
		c0-0.966,0.191-1.72,0.572-2.263c0.382-0.543,0.915-0.814,1.596-0.814c0.638,0,1.14,0.232,1.507,0.695
		c0.368,0.464,0.551,1.114,0.551,1.951v0.746h-2.809c0.01,0.522,0.117,0.91,0.321,1.164c0.202,0.253,0.483,0.38,0.84,0.38
		c0.454,0,0.92-0.141,1.396-0.425v1.149C140.592,18.134,140.054,18.269,139.428,18.269z M139.224,13.28
		c-0.2,0-0.365,0.106-0.494,0.318c-0.129,0.211-0.204,0.54-0.225,0.984h1.418c-0.007-0.427-0.072-0.751-0.194-0.971
		C139.604,13.391,139.436,13.28,139.224,13.28z"/>
	<path fill="#FFFFFF" d="M147.739,18.164l-0.278-0.798h-0.031c-0.206,0.343-0.42,0.579-0.641,0.708
		c-0.221,0.13-0.499,0.195-0.835,0.195c-0.43,0-0.768-0.161-1.016-0.483c-0.246-0.323-0.37-0.77-0.37-1.344
		c0-0.617,0.169-1.074,0.507-1.373c0.338-0.3,0.843-0.465,1.515-0.496l0.777-0.032v-0.42c0-0.546-0.237-0.819-0.708-0.819
		c-0.35,0-0.753,0.137-1.209,0.41l-0.483-0.966c0.581-0.368,1.213-0.551,1.896-0.551c0.62,0,1.091,0.178,1.415,0.533
		c0.324,0.355,0.486,0.858,0.486,1.509v3.928H147.739z M146.526,17.177c0.256,0,0.459-0.115,0.612-0.344
		c0.152-0.23,0.228-0.536,0.228-0.917v-0.494l-0.431,0.021c-0.319,0.018-0.552,0.108-0.701,0.273
		c-0.149,0.165-0.223,0.41-0.223,0.736C146.012,16.935,146.184,17.177,146.526,17.177z"/>
	<path fill="#FFFFFF" d="M153.052,18.164l-0.173-0.751h-0.074c-0.13,0.266-0.314,0.475-0.554,0.628
		c-0.24,0.152-0.514,0.228-0.822,0.228c-0.525,0-0.922-0.179-1.192-0.536c-0.269-0.357-0.404-0.891-0.404-1.602v-3.817h1.412v3.481
		c0,0.428,0.052,0.749,0.153,0.966c0.101,0.218,0.266,0.326,0.494,0.326c0.301,0,0.52-0.15,0.659-0.452
		c0.138-0.301,0.207-0.807,0.207-1.517v-2.804h1.413v5.849H153.052z"/>
	<path fill="#FFFFFF" d="M157.374,17.087c0.196,0,0.408-0.049,0.636-0.147v1.092c-0.228,0.158-0.569,0.237-1.024,0.237
		c-0.508,0-0.884-0.152-1.129-0.454c-0.244-0.303-0.367-0.757-0.367-1.362v-3.03h-0.567v-0.625l0.729-0.504l0.357-1.239h0.893v1.26
		h1.061v1.108h-1.061v3.077C156.901,16.891,157.059,17.087,157.374,17.087z"/>
	<path fill="#FFFFFF" d="M163.16,15.228c0,0.959-0.203,1.706-0.609,2.24c-0.406,0.534-0.962,0.801-1.67,0.801
		c-0.448,0-0.844-0.123-1.187-0.368c-0.343-0.245-0.607-0.598-0.793-1.058c-0.185-0.461-0.278-0.999-0.278-1.615
		c0-0.948,0.201-1.69,0.604-2.224c0.402-0.534,0.96-0.8,1.674-0.8c0.689,0,1.238,0.272,1.646,0.817
		C162.955,13.565,163.16,14.301,163.16,15.228z M160.051,15.228c0,0.609,0.067,1.069,0.2,1.381c0.133,0.311,0.347,0.467,0.641,0.467
		c0.56,0,0.84-0.616,0.84-1.848c0-0.612-0.068-1.07-0.202-1.373c-0.135-0.303-0.347-0.454-0.638-0.454
		c-0.294,0-0.508,0.151-0.641,0.454C160.118,14.158,160.051,14.616,160.051,15.228z"/>
	<path fill="#FFFFFF" d="M169.948,18.164v-3.487c0-0.858-0.211-1.286-0.635-1.286c-0.308,0-0.529,0.153-0.662,0.46
		c-0.133,0.306-0.2,0.797-0.2,1.473v2.841h-1.407v-3.487c0-0.858-0.215-1.286-0.646-1.286c-0.301,0-0.519,0.152-0.656,0.457
		c-0.137,0.305-0.205,0.807-0.205,1.507v2.809h-1.396v-5.849h1.107l0.168,0.751h0.09c0.139-0.297,0.331-0.515,0.575-0.653
		c0.243-0.138,0.503-0.208,0.779-0.208c0.714,0,1.19,0.338,1.428,1.013h0.053c0.297-0.675,0.775-1.013,1.433-1.013
		c0.518,0,0.911,0.182,1.179,0.546c0.267,0.364,0.401,0.896,0.401,1.596v3.818H169.948z"/>
	<path fill="#FFFFFF" d="M175.35,18.164l-0.278-0.798h-0.032c-0.206,0.343-0.42,0.579-0.641,0.708
		c-0.221,0.13-0.499,0.195-0.835,0.195c-0.43,0-0.768-0.161-1.016-0.483c-0.246-0.323-0.37-0.77-0.37-1.344
		c0-0.617,0.169-1.074,0.507-1.373c0.338-0.3,0.843-0.465,1.515-0.496l0.777-0.032v-0.42c0-0.546-0.237-0.819-0.708-0.819
		c-0.35,0-0.753,0.137-1.209,0.41l-0.483-0.966c0.581-0.368,1.213-0.551,1.896-0.551c0.62,0,1.091,0.178,1.415,0.533
		c0.324,0.355,0.486,0.858,0.486,1.509v3.928H175.35z M174.138,17.177c0.256,0,0.459-0.115,0.612-0.344
		c0.152-0.23,0.228-0.536,0.228-0.917v-0.494l-0.431,0.021c-0.319,0.018-0.552,0.108-0.701,0.273s-0.223,0.41-0.223,0.736
		C173.623,16.935,173.795,17.177,174.138,17.177z"/>
	<path fill="#FFFFFF" d="M179.535,17.087c0.196,0,0.408-0.049,0.636-0.147v1.092c-0.228,0.158-0.569,0.237-1.024,0.237
		c-0.508,0-0.884-0.152-1.129-0.454c-0.244-0.303-0.367-0.757-0.367-1.362v-3.03h-0.567v-0.625l0.729-0.504l0.357-1.239h0.893v1.26
		h1.061v1.108h-1.061v3.077C179.063,16.891,179.22,17.087,179.535,17.087z"/>
	<path fill="#FFFFFF" d="M180.942,10.786c0-0.231,0.068-0.414,0.202-0.548c0.135-0.135,0.323-0.202,0.564-0.202
		c0.227,0,0.41,0.067,0.546,0.202c0.137,0.135,0.205,0.317,0.205,0.548c0,0.238-0.071,0.422-0.21,0.554
		c-0.14,0.131-0.321,0.197-0.541,0.197c-0.231,0-0.416-0.066-0.557-0.197C181.012,11.209,180.942,11.025,180.942,10.786z
		 M182.397,18.164H181v-5.849h1.398V18.164z"/>
	<path fill="#FFFFFF" d="M185.527,18.269c-0.697,0-1.228-0.254-1.591-0.762c-0.364-0.507-0.546-1.252-0.546-2.237
		c0-1.029,0.173-1.798,0.517-2.305c0.345-0.507,0.877-0.761,1.599-0.761c0.217,0,0.444,0.032,0.682,0.095
		c0.239,0.063,0.452,0.154,0.642,0.273l-0.399,1.087c-0.291-0.171-0.548-0.257-0.772-0.257c-0.298,0-0.512,0.155-0.643,0.464
		c-0.131,0.31-0.197,0.775-0.197,1.394c0,0.606,0.065,1.059,0.194,1.357c0.13,0.3,0.342,0.449,0.636,0.449
		c0.35,0,0.716-0.122,1.098-0.368v1.229C186.376,18.155,185.97,18.269,185.527,18.269z"/>
	<path fill="#FFFFFF" d="M128.286,20.562c0-0.231,0.068-0.413,0.202-0.548c0.135-0.136,0.323-0.202,0.564-0.202
		c0.227,0,0.41,0.067,0.546,0.202c0.137,0.135,0.205,0.317,0.205,0.548c0,0.239-0.071,0.423-0.21,0.555
		c-0.14,0.131-0.321,0.197-0.541,0.197c-0.231,0-0.416-0.066-0.557-0.197C128.356,20.985,128.286,20.8,128.286,20.562z
		 M129.741,27.939h-1.398V22.09h1.398V27.939z"/>
	<path fill="#FFFFFF" d="M134.077,26.227c0,0.57-0.167,1.016-0.501,1.336c-0.334,0.32-0.827,0.48-1.478,0.48
		c-0.578,0-1.055-0.114-1.433-0.342V26.49c0.192,0.133,0.417,0.243,0.674,0.33c0.258,0.088,0.484,0.132,0.68,0.132
		c0.218,0,0.383-0.053,0.496-0.16c0.114-0.107,0.171-0.247,0.171-0.423c0-0.179-0.059-0.334-0.179-0.467
		c-0.119-0.134-0.338-0.296-0.657-0.489c-0.423-0.252-0.726-0.52-0.911-0.806c-0.183-0.285-0.275-0.622-0.275-1.011
		c0-0.496,0.17-0.891,0.512-1.181c0.341-0.291,0.81-0.436,1.404-0.436c0.518,0,1.006,0.137,1.465,0.41l-0.457,1.003
		c-0.374-0.203-0.704-0.305-0.987-0.305c-0.179,0-0.312,0.047-0.402,0.141c-0.089,0.095-0.134,0.21-0.134,0.347
		c0,0.158,0.055,0.298,0.165,0.42c0.111,0.123,0.316,0.275,0.618,0.457c0.364,0.221,0.619,0.408,0.766,0.561
		c0.147,0.155,0.262,0.329,0.342,0.525C134.037,25.736,134.077,25.965,134.077,26.227z"/>
	<path fill="#FFFFFF" d="M139.291,25.004c0,0.959-0.203,1.706-0.609,2.24c-0.406,0.534-0.962,0.801-1.67,0.801
		c-0.448,0-0.844-0.123-1.187-0.368c-0.343-0.245-0.607-0.598-0.793-1.058c-0.185-0.461-0.278-0.999-0.278-1.615
		c0-0.948,0.201-1.69,0.604-2.223c0.402-0.534,0.96-0.801,1.674-0.801c0.689,0,1.238,0.272,1.646,0.817
		C139.087,23.341,139.291,24.077,139.291,25.004z M136.183,25.004c0,0.609,0.067,1.069,0.2,1.381
		c0.133,0.311,0.347,0.467,0.641,0.467c0.56,0,0.84-0.616,0.84-1.848c0-0.612-0.068-1.07-0.202-1.373
		c-0.135-0.303-0.347-0.454-0.638-0.454c-0.294,0-0.508,0.152-0.641,0.454S136.183,24.392,136.183,25.004z"/>
	<path fill="#FFFFFF" d="M142.305,26.862c0.196,0,0.408-0.049,0.636-0.147v1.092c-0.228,0.158-0.569,0.237-1.024,0.237
		c-0.508,0-0.884-0.152-1.129-0.454c-0.244-0.303-0.367-0.757-0.367-1.362v-3.03h-0.567v-0.624l0.729-0.504l0.357-1.239h0.893v1.26
		h1.061v1.107h-1.061v3.077C141.833,26.666,141.99,26.862,142.305,26.862z"/>
	<path fill="#FFFFFF" d="M143.166,22.09h1.449l0.809,3.302c0.08,0.294,0.145,0.705,0.194,1.234h0.032
		c0.003-0.084,0.019-0.234,0.047-0.449c0.028-0.216,0.051-0.385,0.068-0.507c0.018-0.123,0.26-1.316,0.726-3.581h1.47l-1.675,6.269
		c-0.203,0.769-0.473,1.323-0.809,1.659s-0.784,0.504-1.344,0.504c-0.277,0-0.523-0.03-0.741-0.09v-1.17
		c0.144,0.042,0.305,0.063,0.483,0.063c0.47,0,0.777-0.308,0.924-0.924l0.1-0.368L143.166,22.09z"/>
	<path fill="#FFFFFF" d="M151.163,28.044c-0.252,0-0.475-0.057-0.669-0.171c-0.195-0.114-0.376-0.314-0.544-0.601h-0.073
		c0.055,0.476,0.084,0.764,0.084,0.861v2.389h-1.407V22.09h1.081l0.242,0.761h0.063c0.29-0.58,0.712-0.872,1.265-0.872
		c0.532,0,0.949,0.263,1.25,0.79c0.301,0.527,0.452,1.272,0.452,2.234c0,0.949-0.156,1.693-0.467,2.232
		C152.127,27.774,151.702,28.044,151.163,28.044z M150.732,23.166c-0.273,0-0.47,0.127-0.591,0.381
		c-0.12,0.254-0.184,0.675-0.192,1.263v0.183c0,0.644,0.062,1.113,0.184,1.407s0.326,0.441,0.609,0.441
		c0.49,0,0.735-0.62,0.735-1.859c0-0.609-0.06-1.063-0.181-1.365C151.176,23.317,150.988,23.166,150.732,23.166z"/>
	<path fill="#FFFFFF" d="M156.046,28.044c-0.731,0-1.308-0.26-1.73-0.78c-0.422-0.519-0.633-1.255-0.633-2.208
		c0-0.966,0.191-1.72,0.572-2.262c0.382-0.543,0.915-0.814,1.596-0.814c0.638,0,1.14,0.232,1.507,0.696
		c0.368,0.464,0.551,1.114,0.551,1.95v0.746h-2.809c0.01,0.522,0.117,0.91,0.321,1.164c0.202,0.253,0.483,0.38,0.84,0.38
		c0.454,0,0.92-0.141,1.396-0.425v1.149C157.21,27.909,156.672,28.044,156.046,28.044z M155.842,23.056
		c-0.2,0-0.365,0.106-0.494,0.318c-0.129,0.211-0.204,0.539-0.225,0.984h1.418c-0.007-0.428-0.072-0.751-0.194-0.972
		C156.223,23.166,156.055,23.056,155.842,23.056z"/>
	<path fill="#FFFFFF" d="M158.618,25.671v-1.229h2.64v1.229H158.618z"/>
	<path fill="#FFFFFF" d="M164.262,26.862c0.196,0,0.408-0.049,0.636-0.147v1.092c-0.228,0.158-0.569,0.237-1.024,0.237
		c-0.508,0-0.884-0.152-1.129-0.454c-0.244-0.303-0.367-0.757-0.367-1.362v-3.03h-0.567v-0.624l0.729-0.504l0.357-1.239h0.893v1.26
		h1.061v1.107h-1.061v3.077C163.79,26.666,163.947,26.862,164.262,26.862z"/>
	<path fill="#FFFFFF" d="M170.048,25.004c0,0.959-0.203,1.706-0.609,2.24c-0.406,0.534-0.962,0.801-1.67,0.801
		c-0.448,0-0.844-0.123-1.187-0.368c-0.343-0.245-0.607-0.598-0.793-1.058c-0.185-0.461-0.278-0.999-0.278-1.615
		c0-0.948,0.201-1.69,0.604-2.223c0.402-0.534,0.96-0.801,1.674-0.801c0.689,0,1.238,0.272,1.646,0.817
		C169.844,23.341,170.048,24.077,170.048,25.004z M166.94,25.004c0,0.609,0.067,1.069,0.2,1.381
		c0.133,0.311,0.347,0.467,0.641,0.467c0.56,0,0.84-0.616,0.84-1.848c0-0.612-0.068-1.07-0.202-1.373
		c-0.135-0.303-0.347-0.454-0.638-0.454c-0.294,0-0.508,0.152-0.641,0.454S166.94,24.392,166.94,25.004z"/>
	<path fill="#FFFFFF" d="M175.362,25.004c0,0.959-0.203,1.706-0.609,2.24c-0.406,0.534-0.962,0.801-1.67,0.801
		c-0.448,0-0.844-0.123-1.187-0.368c-0.343-0.245-0.607-0.598-0.793-1.058c-0.185-0.461-0.278-0.999-0.278-1.615
		c0-0.948,0.201-1.69,0.604-2.223c0.402-0.534,0.96-0.801,1.674-0.801c0.689,0,1.238,0.272,1.646,0.817
		C175.157,23.341,175.362,24.077,175.362,25.004z M172.253,25.004c0,0.609,0.067,1.069,0.2,1.381
		c0.133,0.311,0.347,0.467,0.641,0.467c0.56,0,0.84-0.616,0.84-1.848c0-0.612-0.068-1.07-0.202-1.373s-0.347-0.454-0.638-0.454
		c-0.294,0-0.508,0.152-0.641,0.454C172.32,23.933,172.253,24.392,172.253,25.004z"/>
	<path fill="#FFFFFF" d="M177.74,27.939h-1.396v-8.17h1.396V27.939z"/>
</g>
</svg>
