<?xml version="1.0" encoding="utf-8"?>
<!-- Generator: Adobe Illustrator 17.0.2, SVG Export Plug-In . SVG Version: 6.00 Build 0)  -->
<!DOCTYPE svg PUBLIC "-//W3C//DTD SVG 1.1//EN" "http://www.w3.org/Graphics/SVG/1.1/DTD/svg11.dtd">
<svg version="1.1" id="Ebene_1" xmlns="http://www.w3.org/2000/svg" xmlns:xlink="http://www.w3.org/1999/xlink" x="0px" y="0px"
	 width="22px" height="14px" viewBox="0 0 22 14" enable-background="new 0 0 22 14" xml:space="preserve">
<g>
	<path fill="#686766" d="M3.996,2.458c0.322,0,0.597-0.12,0.824-0.36c0.227-0.241,0.341-0.532,0.341-0.874
		c0-0.336-0.114-0.623-0.341-0.864C4.593,0.12,4.324,0,4.013,0S3.425,0.12,3.181,0.361C2.954,0.601,2.84,0.886,2.84,1.215
		c0,0.354,0.11,0.649,0.331,0.883C3.398,2.338,3.673,2.458,3.996,2.458z"/>
	<path fill="#686766" d="M4.973,3.12H3.027c-0.358,0-0.649,0.308-0.649,0.687v5.195h0.775V14h1.691V9.003H5.62V3.807
		C5.621,3.428,5.331,3.12,4.973,3.12z"/>
</g>
<g>
	<path fill="#686766" d="M17.457,2.458c0.322,0,0.597-0.12,0.824-0.36c0.227-0.241,0.341-0.532,0.341-0.874
		c0-0.336-0.114-0.623-0.341-0.864C18.054,0.12,17.785,0,17.475,0c-0.311,0-0.588,0.12-0.833,0.361
		c-0.227,0.24-0.341,0.525-0.341,0.854c0,0.354,0.11,0.649,0.331,0.883C16.859,2.338,17.134,2.458,17.457,2.458z"/>
	<path fill="#686766" d="M18.434,3.12h-1.945c-0.358,0-0.649,0.308-0.649,0.687v5.195h0.775V14h1.691V9.003h0.776V3.807
		C19.083,3.428,18.792,3.12,18.434,3.12z"/>
</g>
<g>
	<g>
		<line fill="none" stroke="#686766" stroke-miterlimit="10" x1="7.477" y1="7.475" x2="13.983" y2="7.475"/>
		<g>
			<polygon fill="#686766" points="9.469,9.17 7.773,7.475 9.469,5.779 8.03,5.779 6.334,7.475 8.03,9.17 			"/>
		</g>
		<g>
			<polygon fill="#686766" points="11.991,9.17 13.688,7.475 11.991,5.779 13.431,5.779 15.126,7.475 13.431,9.17 			"/>
		</g>
	</g>
</g>
</svg>
