<?xml version="1.0" encoding="utf-8"?>
<!-- Generator: Adobe Illustrator 17.0.2, SVG Export Plug-In . SVG Version: 6.00 Build 0)  -->
<!DOCTYPE svg PUBLIC "-//W3C//DTD SVG 1.1//EN" "http://www.w3.org/Graphics/SVG/1.1/DTD/svg11.dtd">
<svg version="1.1" id="Ebene_1" xmlns="http://www.w3.org/2000/svg" xmlns:xlink="http://www.w3.org/1999/xlink" x="0px" y="0px"
	 width="40px" height="44px" viewBox="0 0 40 44" enable-background="new 0 0 40 44" xml:space="preserve">
<path fill="none" stroke="#F3F2F2" stroke-width="2" stroke-miterlimit="10" d="M13.404,28.617"/>
<g>
	<path fill="#FFFFFF" d="M29.516,13.534L29.516,13.534c0.011,0.014,0.031,0.04,0.031,0.04S29.531,13.552,29.516,13.534z"/>
</g>
<path fill="#FFFFFF" d="M11.034,8.949c0.854,0,1.582-0.3,2.183-0.901c0.6-0.602,0.902-1.33,0.902-2.184
	c0-0.839-0.301-1.558-0.902-2.159c-0.601-0.602-1.313-0.902-2.136-0.902s-1.558,0.3-2.206,0.902c-0.601,0.6-0.902,1.313-0.902,2.135
	c0,0.886,0.292,1.622,0.878,2.207C9.451,8.649,10.179,8.949,11.034,8.949z"/>
<path fill="#FFFFFF" d="M13.622,10.604H8.469c-0.949,0-1.718,0.769-1.718,1.718v12.989h2.054v12.493h4.479V25.311h2.055V12.322
	C15.339,11.373,14.57,10.604,13.622,10.604z M11.831,23.244h-1.316v-9.04H9.503v-1.171h2.328V23.244z"/>
<path fill="#FFFFFF" d="M25.063,8.949c0.854,0,1.582-0.3,2.183-0.901c0.6-0.602,0.902-1.33,0.902-2.184
	c0-0.839-0.301-1.558-0.902-2.159c-0.601-0.602-1.313-0.902-2.136-0.902c-0.823,0-1.558,0.3-2.206,0.902
	c-0.601,0.6-0.902,1.313-0.902,2.135c0,0.886,0.292,1.622,0.878,2.207C23.48,8.649,24.208,8.949,25.063,8.949z"/>
<path fill="#FFFFFF" d="M27.651,10.604h-5.153c-0.949,0-1.718,0.769-1.718,1.718v12.989h2.054v12.493h4.479V25.311h2.055V12.322
	C29.369,11.373,28.599,10.604,27.651,10.604z M27.315,22.067v1.177h-4.484c0.075-0.168,0.231-0.5,0.47-0.999
	c0.238-0.498,0.562-1.171,0.972-2.017c0.348-0.741,0.639-1.369,0.873-1.885c0.234-0.516,0.41-0.939,0.529-1.27
	c0.238-0.661,0.357-1.232,0.357-1.713c0-0.846-0.293-1.27-0.88-1.27c-0.564,0-0.846,0.525-0.846,1.574l0.007,0.582l0.007,0.106
	H22.97l-0.013-0.403c0-1.115,0.168-1.9,0.503-2.354c0.339-0.459,0.908-0.688,1.706-0.688c1.503,0,2.255,0.833,2.255,2.5
	c0,1.124-0.562,2.744-1.686,4.861l-0.813,1.528c-0.004,0.009-0.018,0.035-0.04,0.079c-0.022,0.044-0.053,0.108-0.093,0.192H27.315z"
	/>
</svg>
