<?xml version="1.0" encoding="utf-8"?>
<!-- Generator: Adobe Illustrator 17.0.2, SVG Export Plug-In . SVG Version: 6.00 Build 0)  -->
<!DOCTYPE svg PUBLIC "-//W3C//DTD SVG 1.1//EN" "http://www.w3.org/Graphics/SVG/1.1/DTD/svg11.dtd">
<svg version="1.1" id="Ebene_1" xmlns="http://www.w3.org/2000/svg" xmlns:xlink="http://www.w3.org/1999/xlink" x="0px" y="0px"
	 width="40px" height="44px" viewBox="0 0 40 44" enable-background="new 0 0 40 44" xml:space="preserve">
<path fill="none" stroke="#F3F2F2" stroke-width="2" stroke-miterlimit="10" d="M14.729,29.203"/>
<g>
	<path fill="#FFFFFF" d="M28.946,15.628L28.946,15.628c0.01,0.013,0.028,0.036,0.028,0.036S28.96,15.644,28.946,15.628z"/>
</g>
<path fill="#FFFFFF" d="M12.596,11.502c0.769,0,1.424-0.27,1.965-0.811c0.54-0.542,0.812-1.197,0.812-1.966
	c0-0.755-0.271-1.402-0.812-1.943C14.02,6.24,13.379,5.97,12.638,5.97s-1.402,0.27-1.985,0.812c-0.541,0.54-0.812,1.182-0.812,1.922
	c0,0.797,0.263,1.46,0.79,1.986C11.171,11.232,11.826,11.502,12.596,11.502z"/>
<path fill="#FFFFFF" d="M25.222,11.502c0.769,0,1.424-0.27,1.965-0.811c0.54-0.542,0.812-1.197,0.812-1.966
	c0-0.755-0.271-1.402-0.812-1.943C26.646,6.24,26.005,5.97,25.264,5.97s-1.402,0.27-1.985,0.812
	c-0.541,0.54-0.812,1.182-0.812,1.922c0,0.797,0.263,1.46,0.79,1.986C23.797,11.232,24.452,11.502,25.222,11.502z"/>
<g>
	<path fill="#FFFFFF" d="M14.925,12.991h-4.638c-0.854,0-1.546,0.692-1.546,1.546v11.69h1.849v11.244h4.031V26.228h1.85v-11.69
		C16.47,13.683,15.778,12.991,14.925,12.991z M13.462,23.5l-0.533-1.161c-0.262-0.543-0.416-0.977-0.463-1.301
		c-0.035,0.312-0.16,0.711-0.375,1.195L11.552,23.5H10.38l1.518-3.2l-1.518-2.865h1.324l0.533,1.172
		c0.062,0.137,0.121,0.28,0.176,0.431s0.104,0.31,0.146,0.478c0.031-0.148,0.068-0.291,0.111-0.428s0.092-0.271,0.146-0.404
		l0.076-0.176l0.439-1.072h1.178L13.14,20.3l1.658,3.2H13.462z"/>
	<path fill="#FFFFFF" d="M27.551,12.991h-4.638c-0.854,0-1.546,0.692-1.546,1.546v11.69h1.849v11.244h4.031V26.228h1.85v-11.69
		C29.097,13.683,28.404,12.991,27.551,12.991z M26.296,23.5l-0.533-1.161c-0.262-0.543-0.416-0.977-0.463-1.301
		c-0.035,0.312-0.16,0.711-0.375,1.195L24.386,23.5h-1.172l1.518-3.2l-1.518-2.865h1.324l0.533,1.172
		c0.062,0.137,0.121,0.28,0.176,0.431s0.104,0.31,0.146,0.478c0.031-0.148,0.068-0.291,0.111-0.428s0.092-0.271,0.146-0.404
		l0.076-0.176l0.439-1.072h1.178L25.974,20.3l1.658,3.2H26.296z"/>
</g>
</svg>
