<?xml version="1.0" encoding="utf-8"?>
<!-- Generator: Adobe Illustrator 17.0.2, SVG Export Plug-In . SVG Version: 6.00 Build 0)  -->
<!DOCTYPE svg PUBLIC "-//W3C//DTD SVG 1.1//EN" "http://www.w3.org/Graphics/SVG/1.1/DTD/svg11.dtd">
<svg version="1.1" id="Ebene_1" xmlns="http://www.w3.org/2000/svg" xmlns:xlink="http://www.w3.org/1999/xlink" x="0px" y="0px"
	 width="22px" height="14px" viewBox="0 0 22 14" enable-background="new 0 0 22 14" xml:space="preserve">
<path fill="#686766" d="M3.891,10.238"/>
<g>
	<path fill="#FFFFFF" d="M7.764,4.247L7.764,4.247c0.004,0.006,0.012,0.016,0.012,0.016S7.77,4.254,7.764,4.247z"/>
</g>
<g>
	<path fill="#686766" d="M5.158,2.458c0.322,0,0.597-0.12,0.824-0.36c0.227-0.241,0.341-0.532,0.341-0.874
		c0-0.336-0.114-0.623-0.341-0.864C5.755,0.12,5.486,0,5.175,0S4.587,0.12,4.343,0.361c-0.227,0.24-0.341,0.525-0.341,0.854
		c0,0.354,0.11,0.649,0.331,0.883C4.56,2.338,4.835,2.458,5.158,2.458z"/>
	<path fill="#686766" d="M6.135,3.12H4.189c-0.358,0-0.649,0.308-0.649,0.687v5.195h0.776V14h1.691V9.003h0.776V3.807
		C6.783,3.428,6.493,3.12,6.135,3.12z"/>
</g>
<g>
	<path fill="#686766" d="M10.362,2.458c0.322,0,0.597-0.12,0.824-0.36c0.227-0.241,0.341-0.532,0.341-0.874
		c0-0.336-0.114-0.623-0.341-0.864C10.959,0.12,10.69,0,10.38,0c-0.311,0-0.588,0.12-0.833,0.361
		C9.32,0.601,9.206,0.886,9.206,1.215c0,0.354,0.11,0.649,0.331,0.883C9.764,2.338,10.039,2.458,10.362,2.458z"/>
	<path fill="#686766" d="M11.339,3.12H9.393c-0.358,0-0.649,0.308-0.649,0.687v5.195h0.775V14h1.691V9.003h0.776V3.807
		C11.988,3.428,11.697,3.12,11.339,3.12z"/>
</g>
<g>
	<g>
		<line fill="none" stroke="#686766" stroke-miterlimit="10" x1="15.378" y1="12.857" x2="15.378" y2="1.216"/>
		<g>
			<polygon fill="#686766" points="17.073,10.865 15.378,12.562 13.683,10.865 13.683,12.305 15.378,14 17.073,12.305 			"/>
		</g>
		<g>
			<polygon fill="#686766" points="17.243,3.407 15.378,1.541 13.513,3.407 13.513,1.823 15.378,-0.042 17.243,1.823 			"/>
		</g>
	</g>
</g>
</svg>
