<?xml version="1.0" encoding="utf-8"?>
<!-- Generator: Adobe Illustrator 17.0.2, SVG Export Plug-In . SVG Version: 6.00 Build 0)  -->
<!DOCTYPE svg PUBLIC "-//W3C//DTD SVG 1.1//EN" "http://www.w3.org/Graphics/SVG/1.1/DTD/svg11.dtd">
<svg version="1.1" id="Ebene_1" xmlns="http://www.w3.org/2000/svg" xmlns:xlink="http://www.w3.org/1999/xlink" x="0px" y="0px"
	 width="27px" height="27px" viewBox="0 0 27 27" enable-background="new 0 0 27 27" xml:space="preserve">
<g>
	<path d="M13.208,5.661c0.589,0,1.092-0.207,1.507-0.622c0.415-0.416,0.622-0.918,0.622-1.508c0-0.579-0.208-1.076-0.622-1.49
		c-0.415-0.416-0.907-0.623-1.475-0.623c-0.568,0-1.076,0.207-1.523,0.623c-0.415,0.415-0.622,0.907-0.622,1.474
		c0,0.611,0.201,1.12,0.606,1.524C12.116,5.454,12.618,5.661,13.208,5.661z"/>
	<path d="M16.181,7.989c0-0.655-0.531-1.186-1.186-1.186h-3.557c-0.655,0-1.186,0.531-1.186,1.186v8.967h1.418v8.625h3.092v-8.625
		h1.418V7.989z"/>
</g>
</svg>
