<?xml version="1.0" encoding="utf-8"?>
<!-- Generator: Adobe Illustrator 17.0.2, SVG Export Plug-In . SVG Version: 6.00 Build 0)  -->
<!DOCTYPE svg PUBLIC "-//W3C//DTD SVG 1.1//EN" "http://www.w3.org/Graphics/SVG/1.1/DTD/svg11.dtd">
<svg version="1.1" id="Ebene_1" xmlns="http://www.w3.org/2000/svg" xmlns:xlink="http://www.w3.org/1999/xlink" x="0px" y="0px"
	 width="64px" height="64px" viewBox="0 0 64 64" enable-background="new 0 0 64 64" xml:space="preserve">
<g>
	<g>
		<path d="M29.413,24.855c1.104,0,2.045-0.388,2.823-1.165c0.776-0.779,1.166-1.72,1.166-2.824c0-1.084-0.389-2.015-1.166-2.791
			c-0.778-0.779-1.698-1.167-2.762-1.167s-2.015,0.388-2.853,1.167c-0.778,0.776-1.166,1.698-1.166,2.761
			c0,1.145,0.377,2.097,1.135,2.854C27.367,24.467,28.308,24.855,29.413,24.855z"/>
		<path d="M34.98,29.216c0-1.227-0.994-2.221-2.221-2.221h-6.662c-1.227,0-2.221,0.994-2.221,2.221v16.795h2.656v16.154h5.791
			V46.011h2.657V29.216z"/>
	</g>
	<circle cx="37.82" cy="8.675" r="6.51"/>
	<path fill="none" stroke="#000000" stroke-width="1.5" stroke-miterlimit="10" d="M37.82,8.675c0,0-4.037,7.453-2.038,14.407
		c1.456,5.065,5.474,7.634,4.882,12.838c-0.686,6.021-6.22,5.894-6.22,5.894"/>
</g>
</svg>
