<?xml version="1.0" encoding="utf-8"?>
<!-- Generator: Adobe Illustrator 17.0.2, SVG Export Plug-In . SVG Version: 6.00 Build 0)  -->
<!DOCTYPE svg PUBLIC "-//W3C//DTD SVG 1.1//EN" "http://www.w3.org/Graphics/SVG/1.1/DTD/svg11.dtd">
<svg version="1.1" id="Ebene_1" xmlns="http://www.w3.org/2000/svg" xmlns:xlink="http://www.w3.org/1999/xlink" x="0px" y="0px"
	 width="64px" height="64px" viewBox="0 0 64 64" enable-background="new 0 0 64 64" xml:space="preserve">
<g>
	<path d="M30.445,12.572c1.471,0,2.726-0.517,3.762-1.552c1.035-1.038,1.554-2.292,1.554-3.764c0-1.445-0.519-2.685-1.554-3.72
		c-1.036-1.038-2.263-1.555-3.681-1.555c-1.418,0-2.685,0.517-3.803,1.555c-1.036,1.035-1.554,2.263-1.554,3.68
		c0,1.526,0.503,2.795,1.513,3.804C27.717,12.054,28.972,12.572,30.445,12.572z"/>
	<path d="M37.865,18.384c0-1.635-1.325-2.96-2.96-2.96h-8.88c-1.635,0-2.96,1.325-2.96,2.96v22.385h3.541v21.53h7.718v-21.53h3.541
		V18.384z"/>
</g>
</svg>
