<?xml version="1.0" encoding="utf-8"?>
<!-- Generator: Adobe Illustrator 17.0.2, SVG Export Plug-In . SVG Version: 6.00 Build 0)  -->
<!DOCTYPE svg PUBLIC "-//W3C//DTD SVG 1.1//EN" "http://www.w3.org/Graphics/SVG/1.1/DTD/svg11.dtd">
<svg version="1.1" id="Ebene_1" xmlns="http://www.w3.org/2000/svg" xmlns:xlink="http://www.w3.org/1999/xlink" x="0px" y="0px"
	 width="27px" height="27px" viewBox="0 0 27 27" enable-background="new 0 0 27 27" xml:space="preserve">
<g>
	<g>
		<path d="M12.227,10.241c0.442,0,0.818-0.155,1.129-0.466c0.311-0.311,0.466-0.688,0.466-1.13c0-0.434-0.156-0.806-0.466-1.116
			c-0.311-0.311-0.679-0.467-1.105-0.467s-0.806,0.155-1.141,0.467c-0.311,0.311-0.466,0.679-0.466,1.104
			c0,0.458,0.151,0.839,0.454,1.142C11.408,10.086,11.785,10.241,12.227,10.241z"/>
		<path d="M14.454,11.985c0-0.491-0.398-0.888-0.888-0.888H10.9c-0.491,0-0.888,0.398-0.888,0.888v6.718h1.063v6.462h2.316v-6.462
			h1.063V11.985z"/>
	</g>
	<circle cx="15.59" cy="3.769" r="2.604"/>
	<path fill="none" stroke="#000000" stroke-width="0.5" stroke-miterlimit="10" d="M15.59,3.769c0,0-1.615,2.981-0.815,5.763
		c0.582,2.026,2.19,3.054,1.953,5.135c-0.274,2.409-2.488,2.358-2.488,2.358"/>
</g>
</svg>
