<?xml version="1.0" encoding="utf-8"?>
<!-- Generator: Adobe Illustrator 17.0.2, SVG Export Plug-In . SVG Version: 6.00 Build 0)  -->
<!DOCTYPE svg PUBLIC "-//W3C//DTD SVG 1.1//EN" "http://www.w3.org/Graphics/SVG/1.1/DTD/svg11.dtd">
<svg version="1.1" id="Ebene_1" xmlns="http://www.w3.org/2000/svg" xmlns:xlink="http://www.w3.org/1999/xlink" x="0px" y="0px"
	 width="64px" height="64px" viewBox="0 0 64 64" enable-background="new 0 0 64 64" xml:space="preserve">
<g>
	<path d="M31.904,12.535c1.475,0,2.734-0.515,3.773-1.544c1.038-1.032,1.558-2.28,1.558-3.744c0-1.438-0.52-2.671-1.558-3.701
		C34.637,2.515,33.407,2,31.985,2c-1.422,0-2.693,0.515-3.813,1.547c-1.039,1.029-1.558,2.251-1.558,3.66
		c0,1.518,0.504,2.78,1.518,3.784C29.169,12.021,30.427,12.535,31.904,12.535z"/>
	<path d="M39.544,47.034l-2.351-6.45h2.152V18.317c0-1.626-1.329-2.944-2.968-2.944h-8.905c-1.639,0-2.968,1.318-2.968,2.944v22.267
		h2.152l-2.199,6.45h3.598V62h7.74V47.034H39.544z"/>
</g>
</svg>
