<?xml version="1.0" encoding="utf-8"?>
<!-- Generator: Adobe Illustrator 17.0.2, SVG Export Plug-In . SVG Version: 6.00 Build 0)  -->
<!DOCTYPE svg PUBLIC "-//W3C//DTD SVG 1.1//EN" "http://www.w3.org/Graphics/SVG/1.1/DTD/svg11.dtd">
<svg version="1.1" id="Ebene_1" xmlns="http://www.w3.org/2000/svg" xmlns:xlink="http://www.w3.org/1999/xlink" x="0px" y="0px"
	 width="22px" height="14px" viewBox="0 0 22 14" enable-background="new 0 0 22 14" xml:space="preserve">
<path fill="#686766" d="M7.128,10.238"/>
<g>
	<path fill="#FFFFFF" d="M11,4.247L11,4.247c0.004,0.006,0.012,0.016,0.012,0.016S11.006,4.254,11,4.247z"/>
</g>
<g>
	<path fill="#686766" d="M8.394,2.458c0.322,0,0.597-0.12,0.824-0.36c0.227-0.241,0.341-0.532,0.341-0.874
		c0-0.336-0.114-0.623-0.341-0.864C8.991,0.12,8.722,0,8.411,0S7.823,0.12,7.579,0.361c-0.227,0.24-0.341,0.525-0.341,0.854
		c0,0.354,0.11,0.649,0.331,0.883C7.796,2.338,8.071,2.458,8.394,2.458z"/>
	<path fill="#686766" d="M9.371,3.12H7.425c-0.358,0-0.649,0.308-0.649,0.687v5.195h0.775V14h1.691V9.003h0.776V3.807
		C10.019,3.428,9.729,3.12,9.371,3.12z"/>
</g>
<g>
	<path fill="#686766" d="M13.598,2.458c0.322,0,0.597-0.12,0.824-0.36c0.227-0.241,0.341-0.532,0.341-0.874
		c0-0.336-0.114-0.623-0.341-0.864C14.195,0.12,13.926,0,13.616,0c-0.311,0-0.588,0.12-0.833,0.361
		c-0.227,0.24-0.341,0.525-0.341,0.854c0,0.354,0.11,0.649,0.331,0.883C13,2.338,13.275,2.458,13.598,2.458z"/>
	<path fill="#686766" d="M14.575,3.12H12.63c-0.358,0-0.649,0.308-0.649,0.687v5.195h0.775V14h1.691V9.003h0.776V3.807
		C15.224,3.428,14.933,3.12,14.575,3.12z"/>
</g>
<g>
	<g>
		<line fill="none" stroke="#686766" stroke-miterlimit="10" x1="17" y1="7.546" x2="20.743" y2="7.546"/>
		<g>
			<polygon fill="#686766" points="18.552,9.411 20.418,7.546 18.552,5.681 20.135,5.681 22,7.546 20.135,9.411 			"/>
		</g>
	</g>
</g>
<g>
	<g>
		<line fill="none" stroke="#686766" stroke-miterlimit="10" x1="5" y1="7.546" x2="1.257" y2="7.546"/>
		<g>
			<polygon fill="#686766" points="3.448,5.681 1.582,7.546 3.448,9.411 1.865,9.411 0,7.546 1.865,5.681 			"/>
		</g>
	</g>
</g>
</svg>
