<?xml version="1.0" encoding="utf-8"?>
<!-- Generator: Adobe Illustrator 17.0.2, SVG Export Plug-In . SVG Version: 6.00 Build 0)  -->
<!DOCTYPE svg PUBLIC "-//W3C//DTD SVG 1.1//EN" "http://www.w3.org/Graphics/SVG/1.1/DTD/svg11.dtd">
<svg version="1.1" id="Ebene_1" xmlns="http://www.w3.org/2000/svg" xmlns:xlink="http://www.w3.org/1999/xlink" x="0px" y="0px"
	 width="40px" height="44px" viewBox="0 0 40 44" enable-background="new 0 0 40 44" xml:space="preserve">
<g display="none">
	<path display="inline" fill="#FFFFFF" d="M11.034,8.949c0.854,0,1.582-0.3,2.183-0.901c0.6-0.602,0.902-1.33,0.902-2.184
		c0-0.839-0.301-1.558-0.902-2.159c-0.601-0.602-1.313-0.902-2.136-0.902s-1.558,0.3-2.206,0.902
		c-0.601,0.6-0.902,1.313-0.902,2.135c0,0.886,0.292,1.622,0.878,2.207C9.451,8.649,10.179,8.949,11.034,8.949z"/>
	<path display="inline" fill="#FFFFFF" d="M13.622,10.604H8.469c-0.949,0-1.718,0.769-1.718,1.718v12.989h2.054v12.493h4.479V25.311
		h2.055V12.322C15.339,11.373,14.57,10.604,13.622,10.604z"/>
	<path display="inline" fill="#FFFFFF" d="M25.063,8.949c0.854,0,1.582-0.3,2.183-0.901c0.6-0.602,0.902-1.33,0.902-2.184
		c0-0.839-0.301-1.558-0.902-2.159c-0.601-0.602-1.313-0.902-2.136-0.902s-1.558,0.3-2.206,0.902
		c-0.601,0.6-0.902,1.313-0.902,2.135c0,0.886,0.292,1.622,0.878,2.207C23.48,8.649,24.208,8.949,25.063,8.949z"/>
	<path display="inline" fill="#FFFFFF" d="M27.651,10.604h-5.153c-0.949,0-1.718,0.769-1.718,1.718v12.989h2.054v12.493h4.479
		V25.311h2.055V12.322C29.369,11.373,28.599,10.604,27.651,10.604z"/>
</g>
<g display="none">
	<path display="inline" fill="#FFFFFF" d="M5.528,6.688H31.44l0.246,7.787H30.59c-0.537-2.446-1.22-4.039-2.047-4.777
		c-0.828-0.738-2.57-1.108-5.225-1.108h-2.551v23.45c0,1.765,0.276,2.86,0.828,3.283s1.76,0.701,3.625,0.834v0.85H11.86v-0.85
		c1.939-0.148,3.148-0.467,3.625-0.957s0.716-1.723,0.716-3.697V8.59h-2.573c-2.536,0-4.263,0.365-5.18,1.096
		s-1.607,2.327-2.07,4.789H5.259L5.528,6.688z"/>
</g>
<path display="none" fill="#FFFFFF" d="M21.25,37.601v-5.477c0,0,0-7.54,7.801-7.54v-1.249H8.248v1.25c0,0,7.801-0.906,7.801,7.507
	c0,0,0,4.482,0,5.492c0,1.692,1.644,1.971,2.75,1.971C18.8,39.554,21.25,39.81,21.25,37.601z M17.52,37.839
	c-0.656-0.591-0.656-1.55,0-2.141c0.655-0.591,1.719-0.591,2.374,0s0.655,1.55,0,2.141C19.238,38.43,18.175,38.43,17.52,37.839z"/>
<g display="none">
	<path display="inline" fill="#FFFFFF" d="M29.051,15.812L29.051,15.812c0.01,0.013,0.03,0.038,0.03,0.038
		S29.066,15.829,29.051,15.812z"/>
	<path display="inline" fill="#FFFFFF" d="M29.081,15.533V4.563H8.278V4.88v0.36h-0.03v2.2v0.82v3.125v5.568v0.513v0.492v3.694
		h20.803v-3.418v-1.281L29.081,15.533z M27.996,12.857c-1.699-1.482-4.4-3.235-7.662-3.235c-1.093,0-2.182,0.201-3.237,0.598
		c-1.805,0.678-3.36,1.022-4.623,1.022c-2.477,0-3.016-1.335-3.111-1.667V5.649h18.634L27.996,12.857z"/>
</g>
<g>
	<path fill="#FFFFFF" d="M5.734,10.04h4.939v21.668H7.881V12.524H5.734V10.04z"/>
	<path fill="#FFFFFF" d="M17.109,16.972c0.458,0,0.856,0.173,1.193,0.52c0.337,0.337,0.505,0.739,0.505,1.207
		c0,0.486-0.168,0.897-0.505,1.234s-0.744,0.506-1.221,0.506c-0.487,0-0.898-0.169-1.235-0.506
		c-0.337-0.346-0.505-0.758-0.505-1.234c0-0.486,0.168-0.894,0.505-1.222C16.192,17.141,16.613,16.972,17.109,16.972z
		 M17.109,28.438c0.458,0,0.856,0.174,1.193,0.521c0.337,0.338,0.505,0.746,0.505,1.226s-0.168,0.888-0.505,1.226
		c-0.355,0.329-0.763,0.493-1.221,0.493c-0.244,0-0.47-0.045-0.681-0.134s-0.396-0.211-0.554-0.366
		c-0.159-0.155-0.283-0.338-0.372-0.55c-0.089-0.211-0.133-0.438-0.133-0.684c0-0.479,0.168-0.887,0.505-1.226
		C16.192,28.607,16.613,28.438,17.109,28.438z"/>
	<path fill="#FFFFFF" d="M24.511,10.04h6.891v2.512h-4.673l-0.702,5.445h0.351c0.851,0,1.607,0.136,2.267,0.407
		c0.659,0.271,1.214,0.669,1.663,1.192c0.449,0.524,0.791,1.17,1.024,1.937c0.234,0.768,0.351,1.643,0.351,2.625
		c0,2.433-0.529,4.346-1.586,5.739c-1.057,1.376-2.526,2.063-4.406,2.063c-1.058,0-2.204-0.3-3.438-0.898l0.73-2.582
		c1.001,0.523,1.838,0.786,2.512,0.786c0.955,0,1.712-0.431,2.273-1.292c0.562-0.869,0.842-2.039,0.842-3.508
		c0-2.778-1.193-4.168-3.579-4.168c-0.589,0-1.184,0.089-1.782,0.267L24.511,10.04z"/>
</g>
</svg>
