<?xml version="1.0" encoding="utf-8"?>
<!-- Generator: Adobe Illustrator 17.0.2, SVG Export Plug-In . SVG Version: 6.00 Build 0)  -->
<!DOCTYPE svg PUBLIC "-//W3C//DTD SVG 1.1//EN" "http://www.w3.org/Graphics/SVG/1.1/DTD/svg11.dtd">
<svg version="1.1" id="Ebene_1" xmlns="http://www.w3.org/2000/svg" xmlns:xlink="http://www.w3.org/1999/xlink" x="0px" y="0px"
	 width="46px" height="25px" viewBox="0 0 46 25" enable-background="new 0 0 46 25" xml:space="preserve">
<g>
	<path fill="#FFFFFF" d="M32.978,4.39c0.602,0,1.115-0.214,1.539-0.643c0.423-0.43,0.636-0.95,0.636-1.56
		c0-0.599-0.212-1.113-0.636-1.542C34.093,0.214,33.591,0,33.011,0s-1.099,0.214-1.556,0.645C31.032,1.073,30.82,1.583,30.82,2.17
		c0,0.633,0.206,1.159,0.619,1.577C31.863,4.175,32.376,4.39,32.978,4.39z"/>
	<path fill="#FFFFFF" d="M36.014,6.799c0-0.678-0.542-1.227-1.211-1.227H31.17c-0.669,0-1.211,0.549-1.211,1.227v9.278h1.448V25
		h3.157v-8.924h1.448V6.799H36.014z"/>
</g>
<g>
	<path fill="#FFFFFF" d="M3.019,4.39c0.602,0,1.115-0.214,1.539-0.643c0.423-0.43,0.636-0.95,0.636-1.56
		c0-0.599-0.212-1.113-0.636-1.542C4.134,0.214,3.632,0,3.052,0S1.953,0.214,1.496,0.645C1.072,1.073,0.861,1.583,0.861,2.17
		c0,0.633,0.206,1.159,0.619,1.577C1.903,4.175,2.416,4.39,3.019,4.39z"/>
	<path fill="#FFFFFF" d="M6.054,6.799c0-0.678-0.542-1.227-1.211-1.227H1.211C0.542,5.572,0,6.121,0,6.799v9.278h1.448V25h3.157
		v-8.924h1.448L6.054,6.799L6.054,6.799z"/>
</g>
<g>
	<path fill="#FFFFFF" d="M13.007,9.038c0.464,0,0.859-0.165,1.186-0.495c0.326-0.331,0.49-0.732,0.49-1.202
		c0-0.461-0.163-0.857-0.49-1.188c-0.327-0.332-0.713-0.497-1.16-0.497c-0.447,0-0.847,0.165-1.199,0.497
		c-0.327,0.331-0.49,0.723-0.49,1.175c0,0.488,0.159,0.893,0.477,1.215C12.148,8.872,12.543,9.038,13.007,9.038z"/>
	<path fill="#FFFFFF" d="M15.346,10.894c0-0.522-0.418-0.945-0.933-0.945h-2.799c-0.515,0-0.933,0.423-0.933,0.945v7.148h1.116
		v6.875h2.432v-6.875h1.116v-7.147H15.346z"/>
</g>
<g>
	<path fill="#FFFFFF" d="M22.996,14.31c0.31,0,0.574-0.11,0.792-0.331c0.218-0.221,0.327-0.489,0.327-0.803
		c0-0.308-0.109-0.573-0.327-0.794c-0.218-0.222-0.477-0.332-0.775-0.332s-0.566,0.11-0.801,0.332
		c-0.218,0.221-0.327,0.483-0.327,0.785c0,0.326,0.106,0.596,0.319,0.812C22.422,14.2,22.686,14.31,22.996,14.31z"/>
	<path fill="#FFFFFF" d="M24.558,15.55c0-0.349-0.279-0.631-0.623-0.631h-1.87c-0.344,0-0.623,0.283-0.623,0.631v4.775h0.745v4.592
		h1.625v-4.592h0.745V15.55H24.558z"/>
</g>
<g>
	<path fill="#FFFFFF" d="M42.967,10.49c0.431,0,0.798-0.153,1.102-0.46c0.303-0.308,0.455-0.68,0.455-1.117
		c0-0.429-0.152-0.797-0.455-1.104c-0.304-0.309-0.663-0.462-1.078-0.462S42.204,7.5,41.877,7.808
		C41.573,8.116,41.421,8.48,41.421,8.9c0,0.453,0.147,0.83,0.443,1.129C42.168,10.336,42.535,10.49,42.967,10.49z"/>
	<path fill="#FFFFFF" d="M45.14,12.214c0-0.485-0.388-0.878-0.867-0.878h-2.601c-0.479,0-0.867,0.393-0.867,0.878v6.642h1.037v6.388
		h2.26v-6.389h1.038V12.214z"/>
</g>
</svg>
