<?xml version="1.0" encoding="utf-8"?>
<!-- Generator: Adobe Illustrator 17.0.2, SVG Export Plug-In . SVG Version: 6.00 Build 0)  -->
<!DOCTYPE svg PUBLIC "-//W3C//DTD SVG 1.1//EN" "http://www.w3.org/Graphics/SVG/1.1/DTD/svg11.dtd">
<svg version="1.1" id="Ebene_1" xmlns="http://www.w3.org/2000/svg" xmlns:xlink="http://www.w3.org/1999/xlink" x="0px" y="0px"
	 width="22px" height="21px" viewBox="0 0 22 21" enable-background="new 0 0 22 21" xml:space="preserve">
<path fill="#FFFFFF" d="M0,0v21h22V0H0z M18.445,10.394c-0.343,1.404-1.16,2.662-2.22,3.633c-2.062,1.867-4.918,2.762-7.678,2.584
	c-2.653-0.162-5.263-1.469-6.83-3.639c0.137,0.08,0.252,0.191,0.383,0.279c1.213,0.878,2.829,1.157,4.271,0.765
	c0.875-0.226,1.67-0.715,2.305-1.355c-0.406,0.028-0.857-0.045-1.151-0.351c-0.183-0.175-0.259-0.462-0.149-0.697
	c0.134-0.296,0.431-0.464,0.711-0.596c-0.921,0.132-1.924-0.297-2.348-1.148c0.311-0.371,0.808-0.49,1.27-0.526
	C6.471,9.187,5.919,8.995,5.512,8.594C5.188,8.29,4.978,7.869,4.914,7.431C5.295,7.36,5.677,7.273,6.066,7.29
	C5.183,6.83,4.375,5.953,4.445,4.894c1.676,0.611,3.326,1.309,4.901,2.151c0.551,0.302,1.009,0.741,1.459,1.173
	c0.436-1.133,0.905-2.271,1.615-3.265c0.38-0.523,0.829-1.009,1.38-1.354c-0.022,0.171-0.109,0.321-0.191,0.469
	c0.412-0.31,0.888-0.551,1.406-0.611c-0.072,0.309-0.365,0.471-0.621,0.612c0.386-0.114,0.763-0.283,1.17-0.31
	c0.108-0.004,0.263,0.001,0.302,0.127c0.058,0.157-0.101,0.279-0.222,0.345c-0.444,0.229-0.958,0.263-1.409,0.475
	c0.928-0.087,1.856,0.273,2.56,0.867c0.84,0.692,1.396,1.693,1.598,2.758c0.743,0.2,1.546,0.055,2.243-0.241
	c-0.351,0.794-1.243,1.156-2.059,1.227c0.678,0.256,1.423,0.299,2.14,0.223C20.15,10.169,19.271,10.414,18.445,10.394z"/>
</svg>
