<?xml version="1.0" encoding="utf-8"?>
<!-- Generator: Adobe Illustrator 17.0.2, SVG Export Plug-In . SVG Version: 6.00 Build 0)  -->
<!DOCTYPE svg PUBLIC "-//W3C//DTD SVG 1.1//EN" "http://www.w3.org/Graphics/SVG/1.1/DTD/svg11.dtd">
<svg version="1.1" id="Ebene_1" xmlns="http://www.w3.org/2000/svg" xmlns:xlink="http://www.w3.org/1999/xlink" x="0px" y="0px"
	 width="46px" height="25px" viewBox="0 0 46 25" enable-background="new 0 0 46 25" xml:space="preserve">
<g>
	<g>
		<path fill="#FFFFFF" d="M42.965,4.39c0.602,0,1.115-0.214,1.539-0.643c0.423-0.43,0.636-0.95,0.636-1.56
			c0-0.599-0.212-1.113-0.636-1.542C44.08,0.214,43.578,0,42.998,0c-0.58,0-1.099,0.214-1.556,0.645
			c-0.424,0.429-0.636,0.938-0.636,1.525c0,0.633,0.206,1.159,0.619,1.577C41.849,4.175,42.362,4.39,42.965,4.39z"/>
		<path fill="#FFFFFF" d="M46,6.799c0-0.678-0.542-1.227-1.211-1.227h-3.633c-0.669,0-1.211,0.549-1.211,1.227v9.278h1.448V25h3.157
			v-8.924H46V6.799z"/>
	</g>
	<g>
		<path fill="#FFFFFF" d="M32.978,4.39c0.602,0,1.115-0.214,1.539-0.643c0.423-0.43,0.636-0.95,0.636-1.56
			c0-0.599-0.212-1.113-0.636-1.542C34.093,0.214,33.591,0,33.011,0s-1.099,0.214-1.556,0.645C31.032,1.073,30.82,1.583,30.82,2.17
			c0,0.633,0.206,1.159,0.619,1.577C31.863,4.175,32.376,4.39,32.978,4.39z"/>
		<path fill="#FFFFFF" d="M36.014,6.799c0-0.678-0.542-1.227-1.211-1.227H31.17c-0.669,0-1.211,0.549-1.211,1.227v9.278h1.448V25
			h3.157v-8.924h1.448V6.799H36.014z"/>
	</g>
	<g>
		<path fill="#FFFFFF" d="M13.005,4.39c0.602,0,1.115-0.214,1.539-0.643c0.423-0.43,0.636-0.95,0.636-1.56
			c0-0.599-0.212-1.113-0.636-1.542C14.12,0.214,13.618,0,13.038,0s-1.099,0.214-1.556,0.645c-0.424,0.429-0.636,0.938-0.636,1.525
			c0,0.633,0.206,1.159,0.619,1.577C11.89,4.175,12.403,4.39,13.005,4.39z"/>
		<path fill="#FFFFFF" d="M16.041,6.799c0-0.678-0.542-1.227-1.211-1.227h-3.633c-0.669,0-1.211,0.549-1.211,1.227v9.278h1.448V25
			h3.157v-8.924h1.448V6.799H16.041z"/>
	</g>
	<g>
		<path fill="#FFFFFF" d="M3.019,4.39c0.602,0,1.115-0.214,1.539-0.643c0.423-0.43,0.636-0.95,0.636-1.56
			c0-0.599-0.212-1.113-0.636-1.542C4.134,0.214,3.632,0,3.052,0S1.953,0.214,1.496,0.645C1.072,1.073,0.861,1.583,0.861,2.17
			c0,0.633,0.206,1.159,0.619,1.577C1.903,4.175,2.416,4.39,3.019,4.39z"/>
		<path fill="#FFFFFF" d="M6.054,6.799c0-0.678-0.542-1.227-1.211-1.227H1.211C0.542,5.572,0,6.121,0,6.799v9.278h1.448V25h3.157
			v-8.924h1.448L6.054,6.799L6.054,6.799z"/>
	</g>
</g>
<line fill="none" stroke="#FFFFFF" stroke-miterlimit="10" x1="23.24" y1="0" x2="23.24" y2="25"/>
</svg>
